<svg width="70%" max-height="650" min-height="200" viewBox="0 0 855 650" fill="none" xmlns="http://www.w3.org/2000/svg"><g clip-path="url(#clip0_80_21985)"><path d="M600.975 500.308C525.472 500.308 457.243 447.929 440.281 371.229C424.578 300.224 469.569 229.682 540.574 213.979C554.128 210.982 568.14 210.683 581.809 213.101C595.479 215.518 608.538 220.605 620.242 228.069C631.946 235.534 642.065 245.23 650.021 256.606C657.977 267.981 663.615 280.812 666.612 294.366C671.44 316.315 667.365 339.282 655.28 358.23C643.196 377.177 624.089 390.558 602.151 395.435C586.995 398.725 571.17 396.764 557.276 389.873C543.381 382.982 532.243 371.571 525.69 357.514C525.635 357.395 525.603 357.265 525.598 357.134C525.592 357.002 525.613 356.871 525.658 356.747C525.703 356.623 525.773 356.51 525.862 356.413C525.952 356.316 526.059 356.238 526.179 356.183C526.298 356.128 526.428 356.097 526.559 356.092C526.691 356.087 526.822 356.108 526.946 356.154C527.069 356.2 527.182 356.27 527.279 356.36C527.375 356.45 527.453 356.558 527.507 356.678C533.867 370.322 544.678 381.397 558.164 388.086C571.649 394.774 587.009 396.677 601.719 393.482C623.139 388.72 641.796 375.655 653.595 357.154C665.395 338.654 669.374 316.228 664.66 294.798C658.72 267.942 642.356 244.546 619.166 229.756C595.977 214.965 567.861 209.993 541.006 215.932C507.391 223.406 478.114 243.909 459.597 272.941C441.08 301.974 434.836 337.167 442.234 370.798C461.594 458.342 548.566 513.814 636.113 494.453C665.037 488.076 692.218 475.455 715.752 457.472C739.286 439.489 758.605 416.579 772.356 390.346C772.417 390.229 772.501 390.126 772.602 390.042C772.702 389.957 772.819 389.894 772.945 389.854C773.07 389.815 773.202 389.801 773.333 389.813C773.464 389.825 773.592 389.863 773.708 389.924C773.825 389.985 773.928 390.069 774.012 390.17C774.096 390.271 774.159 390.388 774.198 390.513C774.237 390.639 774.251 390.771 774.239 390.902C774.226 391.033 774.188 391.16 774.127 391.277C760.24 417.767 740.732 440.902 716.966 459.062C693.201 477.221 665.753 489.967 636.545 496.406C624.866 498.995 612.938 500.304 600.975 500.308V500.308Z" fill="#E6E6E6"></path><path d="M795.552 275.189C795.305 275.188 795.068 275.097 794.884 274.932C794.701 274.767 794.585 274.54 794.559 274.295C793.745 266.736 792.515 259.228 790.873 251.805C764.756 133.711 658.173 49.6981 537.442 52.1537C537.177 52.1589 536.92 52.0586 536.729 51.8748C536.538 51.6911 536.427 51.4388 536.422 51.1737C536.417 50.9085 536.517 50.652 536.701 50.4608C536.885 50.2695 537.137 50.159 537.402 50.1537C596.661 49.0532 654.475 68.4911 701.033 105.169C747.59 141.846 780.023 193.503 792.826 251.373C794.484 258.868 795.726 266.45 796.548 274.082C796.562 274.213 796.55 274.345 796.513 274.471C796.476 274.597 796.414 274.714 796.332 274.817C796.249 274.919 796.148 275.004 796.032 275.067C795.917 275.129 795.79 275.169 795.66 275.183C795.624 275.187 795.588 275.189 795.552 275.189Z" fill="#E6E6E6"></path><path d="M244.048 439.189C243.821 439.189 243.6 439.111 243.423 438.968C243.246 438.826 243.122 438.627 243.073 438.405C230.487 381.689 233.565 322.618 251.977 267.517C270.389 212.417 303.442 163.362 347.596 125.606C347.696 125.52 347.811 125.454 347.936 125.412C348.062 125.371 348.194 125.354 348.325 125.364C348.457 125.374 348.585 125.409 348.703 125.469C348.82 125.528 348.925 125.61 349.011 125.711C349.097 125.811 349.162 125.927 349.203 126.052C349.243 126.177 349.259 126.31 349.248 126.441C349.238 126.573 349.202 126.701 349.141 126.818C349.081 126.935 348.998 127.039 348.898 127.125C305.019 164.645 272.172 213.394 253.874 268.151C235.577 322.908 232.518 381.611 245.026 437.973C245.058 438.12 245.057 438.271 245.023 438.417C244.989 438.563 244.923 438.699 244.829 438.816C244.735 438.933 244.616 439.027 244.481 439.091C244.346 439.156 244.198 439.189 244.048 439.189Z" fill="#E6E6E6"></path><path d="M520.422 161H364.422C359.915 160.995 355.594 159.202 352.407 156.015C349.22 152.828 347.427 148.507 347.422 144V17C347.427 12.4929 349.22 8.1718 352.407 4.98478C355.594 1.79776 359.915 0.00507387 364.422 0H520.422C524.929 0.00507387 529.25 1.79776 532.437 4.98478C535.624 8.1718 537.417 12.4929 537.422 17V144C537.417 148.507 535.624 152.828 532.437 156.015C529.25 159.202 524.929 160.995 520.422 161V161ZM364.422 2C360.445 2.0045 356.632 3.5863 353.82 6.39837C351.008 9.21044 349.426 13.0231 349.422 17V144C349.426 147.977 351.008 151.79 353.82 154.602C356.632 157.414 360.445 158.996 364.422 159H520.422C524.399 158.996 528.211 157.414 531.023 154.602C533.836 151.79 535.417 147.977 535.422 144V17C535.417 13.0231 533.836 9.21044 531.023 6.39837C528.211 3.5863 524.399 2.0045 520.422 2H364.422Z" fill="#3F3D56"></path><path d="M502.69 38.1379H423.959C423.267 38.152 422.596 37.9028 422.08 37.4407C421.565 36.9787 421.245 36.3382 421.183 35.6489C421.164 35.292 421.218 34.935 421.341 34.5996C421.465 34.2642 421.655 33.9575 421.901 33.6981C422.147 33.4387 422.443 33.2321 422.771 33.091C423.099 32.9498 423.453 32.877 423.81 32.877H503.954C506.594 35.197 504.985 38.138 502.689 38.138L502.69 38.1379Z" fill="#CCCCCC"></path><path d="M502.69 51.9475H423.959C423.267 51.9616 422.596 51.7124 422.08 51.2503C421.565 50.7883 421.245 50.1478 421.183 49.4585C421.164 49.1016 421.218 48.7446 421.341 48.4092C421.465 48.0738 421.655 47.7671 421.901 47.5077C422.147 47.2483 422.443 47.0417 422.771 46.9005C423.099 46.7593 423.453 46.6865 423.81 46.6865H503.954C506.594 49.0065 504.985 51.9475 502.689 51.9475H502.69Z" fill="#CCCCCC"></path><path d="M406.939 59.8111H382.911C382.127 59.8103 381.374 59.4983 380.82 58.9435C380.265 58.3888 379.953 57.6366 379.952 56.8521V28.4971C379.953 27.7126 380.265 26.9604 380.82 26.4056C381.374 25.8509 382.127 25.5389 382.911 25.5381H406.939C407.724 25.5391 408.476 25.8512 409.03 26.4059C409.585 26.9606 409.897 27.7126 409.898 28.4971V56.8521C409.897 57.6366 409.585 58.3888 409.031 58.9435C408.476 59.4983 407.724 59.8103 406.939 59.8111V59.8111Z" fill="#004D78"></path><path d="M502.461 80.2239H382.303C381.611 80.2379 380.939 79.9887 380.424 79.5267C379.909 79.0646 379.588 78.4242 379.527 77.7348C379.508 77.378 379.562 77.021 379.685 76.6856C379.808 76.3502 379.999 76.0434 380.245 75.7841C380.49 75.5247 380.786 75.3181 381.115 75.1769C381.443 75.0357 381.797 74.9629 382.154 74.9629H503.725C506.366 77.2829 504.757 80.2239 502.461 80.2239V80.2239Z" fill="#CCCCCC"></path><path d="M502.461 94.0383H382.303C381.611 94.0524 380.939 93.8032 380.424 93.3411C379.909 92.8791 379.588 92.2387 379.527 91.5493C379.508 91.1924 379.562 90.8354 379.685 90.5C379.808 90.1646 379.999 89.8579 380.245 89.5985C380.49 89.3391 380.786 89.1325 381.115 88.9913C381.443 88.8502 381.797 88.7773 382.154 88.7773H503.725C506.366 91.0973 504.757 94.0383 502.461 94.0383V94.0383Z" fill="#CCCCCC"></path><path d="M502.461 107.843H382.303C381.611 107.857 380.939 107.608 380.424 107.146C379.909 106.684 379.588 106.043 379.527 105.354C379.508 104.997 379.562 104.64 379.685 104.305C379.808 103.969 379.999 103.663 380.245 103.403C380.49 103.144 380.786 102.937 381.115 102.796C381.443 102.655 381.797 102.582 382.154 102.582H503.725C506.366 104.902 504.757 107.843 502.461 107.843V107.843Z" fill="#CCCCCC"></path><path d="M502.461 121.656H382.303C381.611 121.67 380.939 121.421 380.424 120.959C379.909 120.497 379.588 119.857 379.527 119.167C379.508 118.811 379.562 118.454 379.685 118.118C379.808 117.783 379.999 117.476 380.245 117.217C380.49 116.957 380.786 116.751 381.115 116.61C381.443 116.468 381.797 116.396 382.154 116.396H503.725C506.366 118.716 504.757 121.657 502.461 121.657V121.656Z" fill="#CCCCCC"></path><path d="M502.461 135.462H382.303C381.611 135.476 380.939 135.227 380.424 134.765C379.909 134.303 379.588 133.662 379.527 132.973C379.508 132.616 379.562 132.259 379.685 131.924C379.808 131.588 379.999 131.282 380.245 131.022C380.49 130.763 380.786 130.556 381.115 130.415C381.443 130.274 381.797 130.201 382.154 130.201H503.725C506.366 132.521 504.757 135.462 502.461 135.462V135.462Z" fill="#CCCCCC"></path><path d="M840.922 391.811H727.921C724.392 391.807 721.007 390.403 718.511 387.907C716.015 385.411 714.611 382.026 714.607 378.497V286.502C714.611 282.973 716.015 279.588 718.511 277.092C721.007 274.596 724.392 273.192 727.921 273.188H840.922C844.452 273.192 847.836 274.596 850.332 277.092C852.828 279.588 854.232 282.973 854.236 286.502V378.497C854.232 382.027 852.828 385.411 850.332 387.907C847.836 390.403 844.452 391.807 840.922 391.811V391.811ZM727.921 275.189C724.922 275.192 722.046 276.385 719.925 278.506C717.804 280.627 716.611 283.503 716.607 286.503V378.497C716.611 381.496 717.804 384.372 719.925 386.493C722.046 388.614 724.922 389.807 727.921 389.811H840.922C843.921 389.807 846.797 388.614 848.918 386.493C851.039 384.372 852.233 381.496 852.236 378.497V286.502C852.233 283.503 851.039 280.627 848.918 278.506C846.797 276.385 843.921 275.192 840.922 275.188L727.921 275.189Z" fill="#3F3D56"></path><path d="M828.078 301.815H771.048C770.547 301.825 770.061 301.644 769.688 301.31C769.314 300.975 769.082 300.511 769.038 300.012C769.024 299.753 769.063 299.495 769.152 299.252C769.242 299.009 769.379 298.787 769.558 298.599C769.736 298.411 769.95 298.261 770.188 298.159C770.426 298.057 770.682 298.004 770.941 298.004H828.993C830.906 299.684 829.74 301.815 828.077 301.815L828.078 301.815Z" fill="#CCCCCC"></path><path d="M828.077 311.818H771.047C770.546 311.828 770.06 311.647 769.687 311.313C769.313 310.978 769.081 310.514 769.037 310.015C769.023 309.756 769.062 309.498 769.151 309.255C769.241 309.012 769.379 308.79 769.557 308.602C769.735 308.414 769.949 308.264 770.187 308.162C770.425 308.06 770.681 308.007 770.94 308.007H828.992C830.905 309.687 829.739 311.818 828.077 311.818L828.077 311.818Z" fill="#CCCCCC"></path><path d="M758.719 317.514H741.314C740.746 317.513 740.201 317.287 739.799 316.885C739.397 316.483 739.171 315.938 739.171 315.37V294.831C739.171 294.263 739.397 293.718 739.799 293.316C740.201 292.914 740.746 292.688 741.314 292.688H758.719C759.287 292.688 759.832 292.914 760.234 293.316C760.636 293.718 760.862 294.263 760.863 294.831V315.37C760.862 315.938 760.636 316.483 760.234 316.885C759.832 317.287 759.287 317.513 758.719 317.514V317.514Z" fill="#004D78"></path><path d="M827.911 332.3H740.874C740.372 332.31 739.886 332.13 739.513 331.795C739.14 331.46 738.907 330.997 738.863 330.497C738.849 330.239 738.888 329.98 738.977 329.737C739.067 329.494 739.205 329.272 739.383 329.084C739.561 328.896 739.775 328.747 740.013 328.644C740.251 328.542 740.507 328.489 740.766 328.489H828.827C830.74 330.17 829.574 332.3 827.911 332.3V332.3Z" fill="#CCCCCC"></path><path d="M827.911 342.306H740.874C740.372 342.316 739.886 342.136 739.513 341.801C739.14 341.466 738.907 341.002 738.863 340.503C738.849 340.245 738.888 339.986 738.977 339.743C739.067 339.5 739.205 339.278 739.383 339.09C739.561 338.902 739.775 338.752 740.013 338.65C740.251 338.548 740.507 338.495 740.766 338.495H828.827C830.74 340.176 829.574 342.306 827.911 342.306V342.306Z" fill="#CCCCCC"></path><path d="M827.911 352.306H740.874C740.372 352.316 739.886 352.136 739.513 351.801C739.14 351.466 738.907 351.002 738.863 350.503C738.849 350.245 738.888 349.986 738.977 349.743C739.067 349.5 739.205 349.278 739.383 349.09C739.561 348.902 739.775 348.752 740.013 348.65C740.251 348.548 740.507 348.495 740.766 348.495H828.827C830.74 350.176 829.574 352.306 827.911 352.306V352.306Z" fill="#CCCCCC"></path><path d="M827.911 362.312H740.874C740.372 362.322 739.886 362.142 739.513 361.807C739.14 361.472 738.907 361.008 738.863 360.509C738.849 360.25 738.888 359.992 738.977 359.749C739.067 359.506 739.205 359.284 739.383 359.096C739.561 358.908 739.775 358.758 740.013 358.656C740.251 358.554 740.507 358.501 740.766 358.501H828.827C830.74 360.181 829.574 362.312 827.911 362.312V362.312Z" fill="#CCCCCC"></path><path d="M827.911 372.312H740.874C740.372 372.322 739.886 372.142 739.513 371.807C739.14 371.472 738.907 371.008 738.863 370.509C738.849 370.25 738.888 369.992 738.977 369.749C739.067 369.506 739.205 369.284 739.383 369.096C739.561 368.908 739.775 368.758 740.013 368.656C740.251 368.554 740.507 368.501 740.766 368.501H828.827C830.74 370.181 829.574 372.312 827.911 372.312V372.312Z" fill="#CCCCCC"></path><path d="M563.243 358.469H491.601C489.266 358.466 487.027 357.537 485.376 355.886C483.725 354.235 482.797 351.997 482.794 349.662V291.338C482.797 289.003 483.725 286.765 485.376 285.114C487.027 283.463 489.266 282.534 491.601 282.531H563.243C565.578 282.534 567.816 283.463 569.467 285.114C571.118 286.765 572.047 289.003 572.05 291.338V349.662C572.047 351.997 571.118 354.235 569.467 355.886C567.816 357.537 565.578 358.466 563.243 358.469V358.469ZM491.601 284.531C489.796 284.533 488.066 285.251 486.79 286.527C485.514 287.803 484.796 289.534 484.794 291.338V349.662C484.796 351.466 485.514 353.197 486.79 354.473C488.066 355.749 489.796 356.467 491.601 356.469H563.243C565.047 356.467 566.778 355.749 568.054 354.473C569.33 353.197 570.048 351.466 570.05 349.662V291.338C570.048 289.534 569.33 287.803 568.054 286.527C566.778 285.251 565.047 284.533 563.243 284.531H491.601Z" fill="#3F3D56"></path><path d="M551.922 326.75H502.922C501.728 326.75 500.584 326.276 499.74 325.432C498.896 324.588 498.422 323.443 498.422 322.25C498.422 321.057 498.896 319.912 499.74 319.068C500.584 318.224 501.728 317.75 502.922 317.75H551.922C553.115 317.75 554.26 318.224 555.104 319.068C555.948 319.912 556.422 321.057 556.422 322.25C556.422 323.443 555.948 324.588 555.104 325.432C554.26 326.276 553.115 326.75 551.922 326.75V326.75Z" fill="#004D78"></path><path d="M541.922 308.25H512.922C511.728 308.25 510.584 307.776 509.74 306.932C508.896 306.088 508.422 304.943 508.422 303.75C508.422 302.557 508.896 301.412 509.74 300.568C510.584 299.724 511.728 299.25 512.922 299.25H541.922C543.115 299.25 544.26 299.724 545.104 300.568C545.948 301.412 546.422 302.557 546.422 303.75C546.422 304.943 545.948 306.088 545.104 306.932C544.26 307.776 543.115 308.25 541.922 308.25Z" fill="#004D78"></path><path d="M551.922 341.75H502.922C501.728 341.75 500.584 341.276 499.74 340.432C498.896 339.588 498.422 338.443 498.422 337.25C498.422 336.057 498.896 334.912 499.74 334.068C500.584 333.224 501.728 332.75 502.922 332.75H551.922C553.115 332.75 554.26 333.224 555.104 334.068C555.948 334.912 556.422 336.057 556.422 337.25C556.422 338.443 555.948 339.588 555.104 340.432C554.26 341.276 553.115 341.75 551.922 341.75V341.75Z" fill="#004D78"></path><path d="M126.398 473.602C125.706 472.305 125.307 470.872 125.229 469.404C125.151 467.936 125.396 466.469 125.946 465.106C126.497 463.742 127.339 462.516 128.415 461.514C129.49 460.512 130.772 459.758 132.171 459.304L132.908 423.577L148.196 434.118L145.152 466.429C145.758 468.829 145.462 471.367 144.321 473.564C143.18 475.76 141.273 477.462 138.961 478.346C136.649 479.23 134.094 479.235 131.778 478.361C129.463 477.487 127.548 475.794 126.398 473.602H126.398Z" fill="#A0616A"></path><path d="M143.303 336.032L128.338 448.546L146.353 449.225L161.408 331.113L157.795 328.982C156.42 328.17 154.866 327.712 153.271 327.648C151.677 327.584 150.091 327.916 148.655 328.615C147.22 329.313 145.98 330.356 145.046 331.65C144.112 332.944 143.513 334.45 143.303 336.032V336.032Z" fill="#004D78"></path><path d="M191.064 637.553L203.323 637.552L209.156 590.264L191.061 590.265L191.064 637.553Z" fill="#A0616A"></path><path d="M226.968 648.934L188.437 648.935L188.436 634.048L212.08 634.047C216.028 634.047 219.815 635.615 222.607 638.407C225.399 641.199 226.968 644.985 226.968 648.934V648.934Z" fill="#2F2E41"></path><path d="M89.0605 622.9L100.186 628.05L125.346 587.589L108.926 579.988L89.0605 622.9Z" fill="#A0616A"></path><path d="M116.859 648.314L81.8937 632.128L88.1477 618.618L109.604 628.551C113.187 630.21 115.964 633.224 117.325 636.93C118.685 640.636 118.518 644.732 116.859 648.314V648.314V648.314Z" fill="#2F2E41"></path><path d="M203.917 627.56C203.737 627.56 203.558 627.549 203.379 627.528L193.68 626.387C192.66 626.263 191.712 625.795 190.994 625.06C190.275 624.325 189.828 623.368 189.726 622.345L178.083 500.204C178.052 499.885 177.92 499.584 177.706 499.345C177.493 499.107 177.208 498.943 176.894 498.878C176.58 498.813 176.254 498.85 175.963 498.984C175.672 499.118 175.431 499.341 175.276 499.622L110.495 616.988C110.008 617.877 109.234 618.574 108.3 618.966C107.366 619.359 106.326 619.423 105.351 619.149L94.4547 616.123C93.8665 615.96 93.3177 615.679 92.8416 615.297C92.3655 614.915 91.972 614.44 91.6853 613.901C91.3986 613.362 91.2245 612.771 91.1738 612.163C91.123 611.554 91.1966 610.942 91.39 610.363C100.88 581.969 148.424 439.663 152.489 426.565C157.346 410.915 193.603 404.748 196.727 404.245L198.522 402.45L198.867 402.915C214.871 424.458 222.615 452.991 220.673 483.257L220.672 483.268L208.388 623.452C208.29 624.571 207.776 625.613 206.949 626.373C206.122 627.133 205.04 627.557 203.917 627.56V627.56Z" fill="#2F2E41"></path><path d="M152.817 310.409C166.382 310.409 177.378 299.413 177.378 285.848C177.378 272.283 166.382 261.287 152.817 261.287C139.252 261.287 128.256 272.283 128.256 285.848C128.256 299.413 139.252 310.409 152.817 310.409Z" fill="#A0616A"></path><path d="M154.069 422.802L139.496 346.84C138.276 340.423 139.541 333.783 143.035 328.264C146.528 322.745 151.989 318.76 158.31 317.116C162.217 316.1 166.327 316.169 170.197 317.314C174.068 318.46 177.553 320.639 180.278 323.618C187.717 331.738 197.166 343.556 199.938 353.742C202.285 362.388 208.889 394.787 208.955 395.113L209.008 395.371L208.825 395.56C208.79 395.596 205.252 399.253 199.744 403.818C196.513 406.496 193.209 408.982 189.926 411.207C180.708 417.432 155.627 422.491 154.563 422.703L154.069 422.802Z" fill="#004D78"></path><path opacity="0.2" d="M189.646 410.794C193.306 408.314 196.626 405.754 199.426 403.434C198.416 388.494 176.406 357.214 167.486 357.214C167.486 357.214 165.376 405.424 189.646 410.794Z" fill="black"></path><path d="M234.95 450.031C233.568 449.53 232.313 448.732 231.273 447.693C230.232 446.654 229.433 445.4 228.929 444.019C228.426 442.638 228.232 441.163 228.361 439.698C228.489 438.234 228.937 436.815 229.673 435.543L206.314 408.499L224.729 406.103L244.088 432.151C246.144 433.529 247.622 435.613 248.244 438.009C248.866 440.405 248.587 442.946 247.461 445.149C246.335 447.353 244.439 449.068 242.133 449.967C239.827 450.867 237.272 450.89 234.95 450.031H234.95Z" fill="#A0616A"></path><path d="M169.644 318.739C170.661 318.76 171.674 318.876 172.67 319.085C174.686 319.546 176.556 320.5 178.112 321.861C179.669 323.223 180.863 324.949 181.588 326.885L210.466 387.214L241.466 420.214L225.966 432.714L176.966 388.714L157.39 335.432C156.765 333.508 156.606 331.463 156.928 329.466C157.249 327.468 158.041 325.576 159.238 323.945C160.435 322.314 162.003 320.991 163.813 320.086C165.622 319.181 167.621 318.719 169.644 318.739V318.739Z" fill="#004D78"></path><path d="M151.363 310.183C147.868 304.951 145.109 297.695 148.958 292.717C152.757 287.803 160.25 288.527 166.068 286.352C174.172 283.324 178.872 273.803 177.406 265.277C175.941 256.75 169.096 249.682 160.942 246.79C152.789 243.898 143.594 244.839 135.609 248.169C125.78 252.269 117.348 260.199 113.812 270.245C110.277 280.291 112.167 292.353 119.502 300.075C127.365 308.353 139.707 310.56 151.124 310.426" fill="#2F2E41"></path><path d="M112.794 281.223C111.793 286.814 105.66 289.99 100.023 290.688C94.3865 291.385 88.5555 290.491 83.068 291.957C73.3939 294.541 67.0132 303.845 63.5012 313.222C59.9892 322.599 58.4317 332.72 53.8687 341.634C49.3057 350.547 40.4581 358.405 30.4795 357.571C32.4343 362.493 35.86 366.691 40.2892 369.594C44.7184 372.497 49.9352 373.963 55.2281 373.791C60.5209 373.619 65.6319 371.819 69.8637 368.635C74.0955 365.452 77.242 361.04 78.8738 356.002C82.5396 344.685 78.3316 331.189 84.7423 321.168C88.2897 315.623 94.4153 312.362 100.322 309.456C106.228 306.549 112.427 303.566 116.387 298.308C120.347 293.05 121.139 284.745 116.259 280.327" fill="#2F2E41"></path><path d="M1.19115 649.461H321.485C321.8 649.461 322.102 649.335 322.325 649.112C322.547 648.888 322.672 648.586 322.672 648.271C322.672 647.956 322.547 647.653 322.325 647.43C322.102 647.207 321.8 647.081 321.485 647.08H1.19115C0.875955 647.081 0.573992 647.207 0.35144 647.43C0.128889 647.653 0.00390625 647.956 0.00390625 648.271C0.00390625 648.586 0.128889 648.888 0.35144 649.112C0.573992 649.335 0.875955 649.461 1.19115 649.461V649.461Z" fill="#3F3D56"></path><path d="M264.05 253.189C271.782 253.189 278.05 246.921 278.05 239.189C278.05 231.457 271.782 225.189 264.05 225.189C256.318 225.189 250.05 231.457 250.05 239.189C250.05 246.921 256.318 253.189 264.05 253.189Z" fill="#E6E6E6"></path><path d="M709.05 130.189C716.782 130.189 723.05 123.921 723.05 116.189C723.05 108.457 716.782 102.189 709.05 102.189C701.318 102.189 695.05 108.457 695.05 116.189C695.05 123.921 701.318 130.189 709.05 130.189Z" fill="#E6E6E6"></path><path d="M556.05 508.189C563.782 508.189 570.05 501.921 570.05 494.189C570.05 486.457 563.782 480.189 556.05 480.189C548.318 480.189 542.05 486.457 542.05 494.189C542.05 501.921 548.318 508.189 556.05 508.189Z" fill="#E6E6E6"></path></g><defs><clipPath id="clip0_80_21985"><rect width="854.236" height="649.461" fill="white"></rect></clipPath></defs></svg>