<svg width="70%" max-height="792" min-height="200" viewBox="0 0 1026 792" fill="none" xmlns="http://www.w3.org/2000/svg"><g clip-path="url(#clip0_80_22029)"><path d="M767.825 476.317C768.562 476.386 769.303 476.226 769.947 475.859C770.591 475.492 771.106 474.936 771.423 474.267C771.741 473.598 771.844 472.847 771.721 472.116C771.597 471.386 771.252 470.711 770.732 470.183C770.658 469.817 770.604 469.555 770.53 469.189C770.566 469.111 770.603 469.034 770.639 468.957C771.466 467.233 772.784 465.791 774.427 464.813C776.071 463.835 777.966 463.365 779.876 463.461C781.786 463.557 783.625 464.215 785.162 465.353C786.699 466.491 787.866 468.057 788.515 469.856C791.112 477.035 794.506 484.263 795.076 491.753C795.327 495.063 795.001 498.392 794.114 501.591C801.68 486.928 806.004 470.811 806.794 454.33C806.988 450.195 806.951 446.051 806.682 441.92C806.459 438.533 806.087 435.163 805.568 431.81C802.725 413.616 795.608 396.357 784.8 381.448C779.386 378.158 775.111 373.288 772.55 367.494C771.622 365.411 771 363.204 770.703 360.943C771.326 361.054 771.961 361.135 772.585 361.206C772.78 361.225 772.985 361.245 773.18 361.264L773.253 361.271C773.941 361.334 774.631 361.197 775.243 360.876C775.854 360.556 776.359 360.066 776.698 359.464C777.037 358.863 777.195 358.177 777.153 357.488C777.111 356.799 776.871 356.137 776.461 355.582C776.206 355.236 775.951 354.891 775.696 354.546C775.309 354.013 774.911 353.49 774.524 352.957C774.479 352.906 774.437 352.853 774.398 352.797C773.952 352.189 773.507 351.592 773.061 350.984C773.986 349.686 775.199 348.618 776.604 347.865C781.469 345.312 787.913 347.537 791.134 351.98C794.366 356.423 794.733 362.463 793.292 367.76C791.908 372.259 789.769 376.49 786.965 380.272C787.207 380.613 787.459 380.944 787.701 381.284C792.114 387.54 795.904 394.212 799.016 401.207C798.538 393.511 799.895 385.812 802.973 378.742C806.066 372.164 811.54 366.758 816.4 361.173C822.236 354.464 833.399 358.03 833.959 366.905C833.965 366.991 833.97 367.076 833.975 367.162C833.275 367.515 832.589 367.892 831.916 368.294C831.07 368.803 830.398 369.557 829.988 370.455C829.578 371.353 829.448 372.355 829.617 373.328C829.786 374.301 830.244 375.2 830.932 375.908C831.621 376.616 832.507 377.099 833.475 377.295L833.574 377.315C833.217 379.761 832.674 382.175 831.951 384.539C829.867 391.133 826.443 397.226 821.894 402.435C817.345 407.644 811.769 411.857 805.515 414.81C805.105 414.997 804.705 415.184 804.295 415.361C807.287 425.288 808.975 435.561 809.317 445.924C809.499 452.036 809.187 458.153 808.383 464.215L808.424 464.001C810.054 457.294 813.948 451.356 819.45 447.188C827.617 441.093 838.84 439.231 847.568 434.432C848.497 433.895 849.56 433.635 850.632 433.682C851.703 433.729 852.739 434.082 853.617 434.699C854.495 435.315 855.179 436.17 855.586 437.163C855.994 438.155 856.11 439.243 855.92 440.299C855.905 440.374 855.89 440.449 855.875 440.524C854.586 440.981 853.326 441.517 852.104 442.13C851.404 442.483 850.718 442.86 850.045 443.261C849.2 443.771 848.528 444.524 848.117 445.423C847.707 446.321 847.578 447.322 847.746 448.295C847.915 449.268 848.373 450.167 849.062 450.875C849.75 451.583 850.636 452.067 851.604 452.262L851.704 452.282C851.775 452.296 851.836 452.309 851.907 452.323C849.506 457.383 846.251 461.992 842.286 465.948C837.392 470.732 831.573 474.467 825.185 476.922C818.796 479.377 811.974 480.502 805.136 480.227L805.125 480.227C802.894 488.204 799.84 495.929 796.012 503.275L767.352 501.941C767.264 501.617 767.186 501.284 767.109 500.962C769.754 501.252 772.425 501.217 775.061 500.858C773.056 498.15 771.052 495.421 769.047 492.713C769.002 492.662 768.96 492.609 768.921 492.553C767.905 491.167 766.877 489.791 765.861 488.406L765.86 488.404C765.993 484.308 766.653 480.246 767.824 476.318L767.825 476.317Z" fill="#F2F2F2"></path><path d="M190.344 228.482C189.612 228.596 188.863 228.482 188.197 228.156C187.532 227.83 186.984 227.307 186.626 226.658C186.268 226.009 186.117 225.266 186.196 224.53C186.274 223.793 186.577 223.098 187.064 222.539C187.115 222.17 187.152 221.904 187.203 221.534C187.162 221.459 187.121 221.385 187.08 221.31C186.148 219.64 184.744 218.282 183.043 217.408C181.343 216.533 179.421 216.181 177.521 216.395C175.621 216.608 173.826 217.379 172.362 218.61C170.898 219.84 169.831 221.476 169.294 223.311C167.146 230.637 164.204 238.061 164.098 245.572C164.052 248.891 164.583 252.193 165.666 255.332C157.209 241.165 151.897 225.345 150.09 208.945C149.641 204.829 149.422 200.691 149.435 196.551C149.449 193.157 149.611 189.77 149.923 186.391C151.636 168.057 157.673 150.391 167.54 134.843C172.74 131.225 176.706 126.1 178.904 120.159C179.702 118.022 180.186 115.782 180.342 113.506C179.728 113.656 179.099 113.776 178.48 113.884C178.287 113.916 178.084 113.948 177.89 113.98L177.818 113.991C177.135 114.096 176.438 114.002 175.808 113.72C175.178 113.438 174.643 112.98 174.268 112.401C173.892 111.822 173.692 111.146 173.691 110.456C173.691 109.766 173.89 109.091 174.264 108.511C174.497 108.15 174.731 107.79 174.964 107.429C175.318 106.874 175.682 106.327 176.036 105.771C176.077 105.718 176.116 105.662 176.152 105.604C176.559 104.97 176.967 104.346 177.374 103.712C176.37 102.473 175.094 101.483 173.645 100.818C168.632 98.5702 162.338 101.189 159.397 105.823C156.446 110.457 156.453 116.508 158.218 121.705C159.877 126.111 162.274 130.202 165.306 133.803C165.086 134.158 164.854 134.504 164.634 134.859C160.616 141.375 157.245 148.269 154.571 155.442C154.573 147.732 152.743 140.131 149.234 133.265C145.741 126.891 139.943 121.833 134.748 116.559C128.507 110.224 117.587 114.472 117.576 123.365C117.576 123.451 117.576 123.537 117.576 123.623C118.296 123.932 119.004 124.266 119.701 124.625C120.577 125.081 121.294 125.792 121.759 126.663C122.224 127.534 122.415 128.525 122.306 129.507C122.198 130.488 121.796 131.414 121.153 132.164C120.51 132.913 119.655 133.45 118.701 133.705L118.603 133.731C119.111 136.15 119.802 138.527 120.67 140.841C123.157 147.294 126.951 153.163 131.813 158.082C136.675 163 142.501 166.86 148.926 169.421C149.347 169.582 149.757 169.745 150.177 169.896C147.805 179.988 146.754 190.347 147.053 200.71C147.249 206.822 147.939 212.908 149.115 218.909L149.061 218.698C147.02 212.105 142.766 206.418 137.018 202.598C128.49 197.019 117.173 195.854 108.165 191.604C107.205 191.125 106.128 190.931 105.061 191.044C103.994 191.158 102.982 191.574 102.144 192.244C101.306 192.913 100.676 193.809 100.331 194.825C99.9847 195.84 99.9365 196.934 100.192 197.976C100.211 198.05 100.231 198.124 100.251 198.198C101.565 198.573 102.855 199.031 104.113 199.567C104.833 199.876 105.542 200.21 106.238 200.569C107.114 201.026 107.831 201.736 108.296 202.607C108.761 203.478 108.952 204.47 108.844 205.451C108.735 206.433 108.333 207.359 107.69 208.108C107.047 208.857 106.192 209.394 105.238 209.65L105.14 209.676C105.07 209.694 105.01 209.711 104.939 209.729C107.649 214.631 111.182 219.03 115.384 222.733C120.564 227.206 126.603 230.574 133.131 232.63C139.659 234.686 146.537 235.387 153.346 234.69L153.356 234.689C156.076 242.513 159.601 250.034 163.876 257.13L192.399 254.027C192.467 253.699 192.523 253.362 192.581 253.035C189.959 253.488 187.291 253.619 184.637 253.423C186.471 250.596 188.303 247.749 190.137 244.922C190.178 244.868 190.217 244.812 190.253 244.754C191.182 243.308 192.122 241.872 193.051 240.426L193.051 240.424C192.665 236.344 191.756 232.331 190.345 228.483L190.344 228.482Z" fill="#F2F2F2"></path><path d="M584.419 217.911C585.831 218.3 587.14 218.993 588.255 219.942C589.37 220.892 590.263 222.074 590.872 223.406C591.48 224.738 591.789 226.187 591.777 227.651C591.765 229.115 591.433 230.559 590.802 231.88L606.109 248.898L598.036 260.722L576.758 236.386C574.608 235.18 572.975 233.227 572.168 230.898C571.362 228.568 571.438 226.023 572.382 223.746C573.327 221.469 575.073 219.617 577.292 218.542C579.51 217.466 582.046 217.242 584.419 217.911V217.911Z" fill="#A0616A"></path><path d="M727.715 259.698C726.335 257.452 724.526 255.501 722.39 253.956C720.254 252.411 717.834 251.303 715.27 250.695C712.705 250.087 710.045 249.992 707.443 250.414C704.841 250.836 702.348 251.768 700.107 253.156L649.768 284.333L595.467 238.176L581.957 250.754L641.944 328.584L719.909 287.94C718.09 288.888 729.914 263.277 727.715 259.698Z" fill="#CCCCCC"></path><path d="M627.992 363.365C627.997 388.226 623.104 412.845 613.592 435.816C604.08 458.786 590.136 479.657 572.556 497.237C554.976 514.817 534.105 528.761 511.135 538.273C488.165 547.784 463.546 552.678 438.684 552.673C334.133 552.673 249.376 467.915 249.376 363.365C249.358 343.028 252.618 322.821 259.031 303.522C271.621 265.831 295.741 233.052 327.98 209.819C360.219 186.586 398.946 174.076 438.684 174.057C472.956 174.045 506.587 183.34 535.989 200.949C565.39 218.559 589.458 243.823 605.622 274.043C609.63 281.499 613.126 289.219 616.087 297.149C616.497 298.253 616.897 299.357 617.286 300.472V300.483C619.021 305.384 620.55 310.376 621.871 315.459C625.948 331.101 628.005 347.2 627.992 363.365V363.365Z" fill="#3F3D56"></path><path d="M417.972 235.64C409.464 231.04 400.019 228.443 390.355 228.047C380.691 227.652 371.065 229.469 362.21 233.359C354.414 236.752 346.204 242.839 343.604 253.83C354.123 247.622 367.739 257.431 370.446 273.166L369.814 273.34C368.384 284.238 371.576 296.104 377.755 302.862C378.566 295.842 383.182 291.065 387.721 288.081C392.261 285.096 397.283 282.928 400.749 277.799C404.856 271.717 405.9 262.83 407.531 254.722C409.163 246.614 412.259 237.899 417.972 235.64Z" fill="white"></path><path d="M359.09 328.385C356.177 332.76 352.285 335.506 348.794 338.924C345.313 342.352 342 346.98 341.306 352.922C340.864 356.729 341.547 360.599 341.453 364.449C341.358 368.298 340.075 372.631 337.456 373.588C333.323 375.081 330.168 367.404 325.919 366.867C322.543 366.447 319.504 371.758 320.482 376.364C321.46 380.971 326.056 383.011 328.696 380.003C331.083 384.01 329.4 391.278 325.814 392.508C325.435 395.032 325.057 397.546 324.689 400.07C315.623 393.728 306.462 387.281 298.753 377.995C290.18 367.754 284.862 355.184 283.483 341.9C282.483 331.225 283.966 319.015 279.065 310.801C275.142 304.228 268.411 302.776 262.354 303.187C261.249 303.26 260.135 303.386 259.03 303.523C262.603 292.793 267.14 282.409 272.587 272.498C273.819 271.968 274.965 271.256 275.984 270.384C281.621 265.598 284.124 255.912 288.699 249.213C288.994 248.781 289.298 248.361 289.614 247.951C294.294 241.84 300.562 238.695 306.62 235.772C320.03 229.262 333.828 222.667 347.984 223.572L343.956 223.961C339.255 237.128 334.55 250.296 329.842 263.463C329.127 265.482 328.405 267.505 327.676 269.532C325.004 277.02 322.249 284.992 322.659 293.374C322.901 298.338 324.625 303.639 327.907 305.342C330.967 306.92 334.312 304.985 337.267 303.071C338.519 302.271 339.76 301.472 341.011 300.662C345.502 297.77 350.477 294.804 355.22 296.739C359.563 298.506 362.771 304.406 363.381 310.769C363.94 316.954 362.431 323.15 359.09 328.385V328.385Z" fill="white"></path><path d="M385.8 418.283C372.684 410.207 359.568 402.131 346.452 394.056L346.675 393.482C338.52 396.588 335.134 411.084 336.482 422.938C337.83 434.793 342.399 445.39 344.708 456.94C347.821 472.747 346.646 489.099 341.305 504.298C358.552 484.946 373.815 463.914 386.866 441.518C388.689 438.695 390.078 435.614 390.987 432.379C391.82 428.938 391.692 424.8 390.023 422.04C388.95 420.456 387.498 419.164 385.8 418.283V418.283Z" fill="white"></path><path d="M334.035 271.363C332.643 274.495 332.107 278.67 333.371 281.91C334.661 285.219 337.39 286.715 339.902 287.96L347.149 291.552C349.56 292.747 352.159 293.954 354.617 292.971C357.581 291.785 359.637 287.138 359.105 282.823C358.539 278.232 355.645 275.074 352.969 272.384C349.223 268.621 345.478 264.857 341.732 261.094L339.621 263.679C337.338 265.906 335.449 268.504 334.035 271.363V271.363Z" fill="white"></path><path d="M589.141 320.445C592.402 321.213 595.662 321.98 598.922 322.748C598.354 333.76 592.896 343.951 585.576 347.642C582.526 349.178 579.129 349.746 576.605 352.617C574.323 355.225 573.166 359.285 572.104 363.165C570.242 369.938 568.381 376.711 566.519 383.484C564.521 390.783 561.955 398.892 556.759 401.521C552.3 403.782 547.199 401.016 543.771 396.378C540.342 391.74 538.249 385.504 536.219 379.425C536.345 386.051 533.264 392.55 528.899 394.853C524.524 397.157 519.203 395.074 516.279 389.932C514.175 386.24 513.303 381.37 511.241 377.626C509.18 373.882 504.857 371.737 502.607 375.25C501.124 377.584 501.313 381.16 500.577 384.126C499.43 388.732 495.96 391.625 492.521 391.877C489.092 392.13 485.748 390.152 482.877 387.47C476.955 381.917 472.591 373.104 470.898 363.313C470.151 358.948 469.941 354.194 471.234 350.103C472.528 346.012 475.651 342.857 478.754 343.635C480.794 339.323 476.766 333.602 473.138 334.107C469.499 334.611 466.649 338.513 463.662 341.511C460.685 344.508 456.521 346.685 453.523 343.709C453.544 346.475 451.294 348.305 449.348 348.073C447.413 347.853 445.688 346.296 443.911 345.192C437.043 340.911 428.324 343.751 423.444 351.849C426.494 338.871 430.964 323.979 440.335 320.929C444.163 319.677 448.338 320.708 451.956 318.541C458.361 314.703 459.655 300.199 454.123 294.215C454.827 299.873 454.691 306.478 451.704 310.348C448.717 314.219 442.449 311.695 442.827 305.973C441.965 309.917 437.674 310.517 435.697 307.488C433.709 304.459 433.877 299.505 435.287 295.887C436.696 292.269 439.094 289.672 441.418 287.179C446.414 281.826 451.483 276.41 457.267 273.044C463.062 269.679 469.751 268.543 475.557 271.887C478.617 273.654 481.31 276.599 484.433 278.156C487.557 279.723 491.522 279.523 493.594 275.863C495.918 271.782 494.824 265.724 495.686 260.623C497.232 251.61 506.245 247.393 511.241 253.346C507.508 252.389 503.648 256.806 503.185 262.159C502.712 267.512 505.415 272.918 509.033 274.538C515.111 277.23 521.064 270.457 525.66 264.189C530.456 257.626 535.259 251.067 540.069 244.511C540.837 243.395 541.699 242.347 542.645 241.377C544.152 239.909 546.16 239.068 548.263 239.025C550.366 238.982 552.407 239.74 553.972 241.146C558.831 245.111 561.113 253.241 565.099 258.836C570.884 266.965 579.539 268.943 587.595 270.52C593.601 271.688 599.609 272.862 605.622 274.043C609.63 281.499 613.126 289.219 616.086 297.15C605.906 301.472 596.514 309.56 589.141 320.445Z" fill="white"></path><path d="M608.556 446.986C604.05 456.135 598.81 464.904 592.886 473.205C589.1 471.586 585.029 474.478 581.485 477.191C577.783 480.031 573.334 482.797 569.538 480.21C565.657 477.559 564.405 470.145 565.636 464.266C566.866 458.397 569.937 453.728 572.914 449.289C576.069 444.578 579.445 439.687 583.831 437.857C588.227 436.027 593.874 438.615 595.157 444.862L598.271 444.757C596.525 442.359 597.44 437.394 599.785 436.522C602.488 435.502 604.833 439.214 606.432 442.495C607.147 443.978 607.873 445.472 608.556 446.986Z" fill="white"></path><path d="M489.328 402.562C482.637 402.983 477.337 394.746 473.815 386.642C470.292 378.538 467.079 369.271 461.041 365.146C457.591 362.789 453.658 362.466 449.916 361.324C446.174 360.182 442.258 357.818 440.469 353.006L436.224 351.291C430.619 354.443 424.939 357.653 420.109 362.782C414.691 368.537 411.317 375.914 410.506 383.775C409.695 392.271 412.689 401.745 418.284 404.937C422.705 407.458 427.851 405.869 432.329 408.178C437.924 411.062 441.245 419.441 442.502 427.714C443.76 435.988 443.441 444.586 444.341 452.953C445.24 461.32 447.719 470.026 452.85 474.314C459.27 479.68 468.691 475.221 471.572 465.454C472.985 460.663 472.936 455.256 473.993 450.283C475.854 441.525 480.876 435.027 484.859 427.842C488.842 420.658 491.977 410.9 489.328 402.562Z" fill="white"></path><path d="M423.208 316.5C423.832 317.074 424.415 317.692 424.951 318.349C425.506 319.306 425.789 320.396 425.77 321.502C425.751 322.608 425.431 323.688 424.844 324.625C425.65 324.579 426.437 324.367 427.157 324.001C427.877 323.635 428.513 323.124 429.025 322.5C430.246 321.109 431.321 319.596 432.231 317.984C432.913 316.871 433.639 315.367 433.176 314.045C432.86 313.143 432.112 312.758 431.588 312.079C430.758 311.004 430.552 309.296 430.122 307.82C429.194 304.632 426.969 302.288 424.555 301.953L424.89 302.017C423.882 302.363 423.177 303.964 423.4 305.406C423.603 306.718 424.447 307.808 424.363 309.146C424.242 311.071 422.319 311.974 422.2 313.899C422.181 314.865 422.543 315.799 423.208 316.5V316.5Z" fill="white"></path><path d="M411.743 283.792C411.753 283.789 411.763 283.788 411.773 283.786C411.979 283.598 412.17 283.395 412.344 283.178L411.743 283.792Z" fill="#E6E6E6"></path><path d="M413.75 292.826C415.23 291.875 416.056 289.244 415.567 287.041C415.081 284.853 413.36 283.381 411.774 283.786C411.313 284.252 410.742 284.594 410.113 284.779C409.484 284.965 408.818 284.987 408.179 284.844C407.197 284.591 406.12 283.941 405.269 284.68C404.783 285.232 404.442 285.897 404.279 286.615C403.964 287.582 403.649 288.549 403.334 289.515C403.184 289.861 403.145 290.245 403.222 290.614C403.282 290.762 403.38 290.892 403.505 290.991C403.63 291.091 403.778 291.156 403.936 291.182C405.826 291.739 407.715 292.296 409.605 292.853C410.982 293.259 412.469 293.65 413.75 292.826Z" fill="white"></path><path d="M556.406 417.557C555.533 416.127 554.659 414.697 553.786 413.267C552.928 411.611 551.755 410.138 550.333 408.931C550.02 408.669 549.658 408.472 549.268 408.352C548.878 408.232 548.469 408.191 548.063 408.232C547.657 408.273 547.263 408.394 546.905 408.589C546.547 408.784 546.231 409.049 545.977 409.367L546.083 410.184C548.074 412.682 550.18 415.457 550.685 419.165C550.885 420.626 550.815 422.139 550.99 423.607C551.165 425.074 551.661 426.597 552.608 427.23C553.984 428.148 555.599 426.794 556.578 425.14C557.453 423.783 557.846 422.17 557.692 420.562C557.474 419.483 557.036 418.46 556.406 417.557V417.557Z" fill="white"></path><path d="M595.281 362.94C595.534 361.283 595.786 359.627 596.039 357.97C596.449 356.15 596.5 354.268 596.189 352.429C596.119 352.027 595.969 351.644 595.748 351.301C595.527 350.958 595.24 350.663 594.903 350.433C594.566 350.202 594.187 350.042 593.787 349.96C593.388 349.879 592.976 349.878 592.576 349.958L592.131 350.651C592.046 353.844 591.87 357.324 589.869 360.486C589.081 361.732 588.053 362.845 587.242 364.08C586.43 365.315 585.83 366.8 586.147 367.894C586.607 369.483 588.715 369.486 590.529 368.852C592.073 368.377 593.412 367.395 594.33 366.066C594.858 365.1 595.182 364.036 595.281 362.94V362.94Z" fill="#E6E6E6"></path><path d="M570.109 419.419C570.536 418.192 569.919 416.784 569.789 415.427C569.727 413.674 570.191 411.943 571.123 410.458C572.048 409.056 572.75 407.519 573.201 405.901C573.392 405.164 573.357 404.387 573.102 403.67C572.812 403.02 572.112 402.724 571.71 403.238L572.57 403.792C571.409 403.585 570.217 403.643 569.081 403.961C568.434 404.209 567.855 404.609 567.395 405.128C566.935 405.647 566.606 406.269 566.437 406.941C566.295 407.99 566.063 409.025 565.744 410.034C565.231 411.088 564.239 411.439 563.615 412.364C563.189 413.184 562.975 414.097 562.99 415.021C563.005 415.944 563.25 416.85 563.703 417.656C564.486 418.973 565.731 419.952 567.196 420.403C568.246 420.78 569.629 420.8 570.109 419.419Z" fill="white"></path><path d="M594.511 426.781C594.891 427.768 595.399 428.702 596.023 429.556C597.192 430.733 598.779 430.009 600.197 429.723C601.483 429.52 602.8 429.669 604.008 430.154C605.217 430.638 606.272 431.441 607.061 432.477C606.511 429.736 605.312 427.166 603.563 424.985C601.815 422.803 599.568 421.073 597.012 419.94C593.671 418.578 590.153 418.447 586.678 418.324L586.078 418.478C587.607 422.93 592.409 422.83 594.511 426.781Z" fill="white"></path><path d="M491.159 435.885L491.168 435.905C491.226 435.793 491.284 435.681 491.343 435.568L491.159 435.885Z" fill="#E6E6E6"></path><path d="M487.457 443.052C486.65 444.518 485.956 446.043 485.38 447.615C484.619 450.16 484.115 452.775 483.875 455.421C483.687 456.925 483.629 458.847 484.572 459.58C484.842 459.76 485.169 459.835 485.491 459.791C485.813 459.747 486.108 459.588 486.321 459.342C486.844 458.788 487.273 458.151 487.589 457.458C489.441 454.267 490.88 450.853 491.869 447.299C492.771 443.555 492.763 439.148 491.168 435.906C489.931 438.288 488.694 440.67 487.457 443.052Z" fill="white"></path><path d="M451.745 252.15C452.333 252.725 453.076 253.115 453.883 253.272C454.69 253.43 455.526 253.348 456.287 253.036C457.863 252.347 459.309 251.392 460.561 250.213C461.598 249.446 462.477 248.487 463.151 247.387C463.523 246.73 463.761 246.006 463.852 245.257C463.943 244.507 463.885 243.748 463.681 243.021C463.096 241.309 461.611 240.735 460.301 240.347C458.203 239.725 456.106 239.103 454.009 238.481L455.526 237.113C453.965 236.275 452.238 237.83 451.262 239.755C450.636 241.012 450.2 242.355 449.968 243.74C449.445 246.761 449.956 250.359 451.745 252.15Z" fill="#E6E6E6"></path><path d="M488.775 239.718C489.366 240.37 490.183 240.772 491.06 240.843C491.937 240.915 492.809 240.65 493.497 240.102C494.09 239.657 494.583 239.092 494.942 238.444C495.302 237.795 495.522 237.079 495.586 236.34C495.734 234.69 494.919 232.856 493.754 232.714L494.02 231.169C491.776 230.764 489.014 230.683 487.811 233.408C487.406 234.452 487.281 235.585 487.45 236.692C487.619 237.799 488.076 238.843 488.775 239.718Z" fill="#E6E6E6"></path><path d="M483.828 157.575C470.67 156.09 457.462 159.894 447.109 168.148C436.755 176.403 430.105 188.432 428.621 201.589C425.53 228.989 439.965 288.488 466.283 313.118C478.674 265.929 522.097 237.939 527.843 212.782C533.982 185.901 511.227 160.665 483.828 157.575Z" fill="#004D78"></path><path d="M474.728 218.487C483.72 218.487 491.01 211.197 491.01 202.204C491.01 193.212 483.72 185.922 474.728 185.922C465.735 185.922 458.445 193.212 458.445 202.204C458.445 211.197 465.735 218.487 474.728 218.487Z" fill="white"></path><path d="M457.608 336.595C463.498 336.595 468.273 331.82 468.273 325.93C468.273 320.04 463.498 315.266 457.608 315.266C451.718 315.266 446.943 320.04 446.943 325.93C446.943 331.82 451.718 336.595 457.608 336.595Z" fill="#004D78"></path><path opacity="0.2" d="M488.2 190.538C490.033 191.639 491.631 193.091 492.903 194.809C494.175 196.528 495.095 198.481 495.613 200.555C496.13 202.63 496.233 204.786 495.917 206.901C495.601 209.016 494.872 211.048 493.77 212.88C492.669 214.713 491.217 216.311 489.499 217.583C487.78 218.855 485.827 219.775 483.753 220.293C479.563 221.337 475.129 220.675 471.428 218.45C475.202 219.29 479.151 218.759 482.57 216.953C485.988 215.146 488.652 212.182 490.084 208.591C491.517 205 491.624 201.017 490.388 197.353C489.152 193.69 486.652 190.586 483.337 188.598C485.052 188.978 486.694 189.633 488.2 190.538V190.538Z" fill="#231F20"></path><path opacity="0.2" d="M527.906 212.834C522.161 237.991 478.738 265.981 466.346 313.17C463.871 310.831 461.572 308.313 459.469 305.635C473.393 261.278 514.114 234.326 519.665 210.02C524.634 188.266 510.677 167.591 490.65 158.857C514.892 164.951 533.533 188.2 527.906 212.834Z" fill="#231F20"></path><path d="M331.245 221.106C321.364 219.991 311.445 222.847 303.67 229.046C295.895 235.245 290.901 244.278 289.787 254.159C287.466 274.735 298.306 319.417 318.069 337.913C327.375 302.476 359.984 281.456 364.299 262.564C368.909 242.378 351.821 223.427 331.245 221.106Z" fill="#004D78"></path><path d="M324.411 266.848C331.164 266.848 336.639 261.373 336.639 254.62C336.639 247.867 331.164 242.393 324.411 242.393C317.658 242.393 312.184 247.867 312.184 254.62C312.184 261.373 317.658 266.848 324.411 266.848Z" fill="white"></path><path d="M311.555 355.543C315.978 355.543 319.563 351.957 319.563 347.534C319.563 343.111 315.978 339.525 311.555 339.525C307.132 339.525 303.546 343.111 303.546 347.534C303.546 351.957 307.132 355.543 311.555 355.543Z" fill="#004D78"></path><path opacity="0.2" d="M334.528 245.861C335.905 246.688 337.104 247.778 338.06 249.069C339.015 250.36 339.706 251.826 340.095 253.384C340.483 254.942 340.561 256.561 340.323 258.15C340.086 259.738 339.538 261.263 338.711 262.64C337.884 264.016 336.794 265.216 335.503 266.171C334.212 267.126 332.746 267.818 331.188 268.206C329.63 268.595 328.011 268.672 326.423 268.435C324.835 268.198 323.309 267.65 321.933 266.823C324.767 267.453 327.733 267.054 330.3 265.698C332.867 264.341 334.867 262.115 335.943 259.419C337.019 256.722 337.1 253.73 336.171 250.979C335.243 248.229 333.366 245.898 330.876 244.404C332.164 244.69 333.397 245.182 334.528 245.861Z" fill="#231F20"></path><path opacity="0.2" d="M364.347 262.605C360.032 281.497 327.423 302.516 318.117 337.953C316.258 336.197 314.532 334.306 312.952 332.295C323.409 298.985 353.989 278.745 358.158 260.492C361.889 244.155 351.408 228.629 336.368 222.07C354.573 226.647 368.572 244.106 364.347 262.605Z" fill="#231F20"></path><path d="M714.063 664.054H700.638L694.251 612.27L714.066 612.271L714.063 664.054Z" fill="#A0616A"></path><path d="M721.285 689.545H711.759L710.058 680.551L705.703 689.545H680.437C679.226 689.545 678.046 689.158 677.071 688.44C676.095 687.723 675.375 686.712 675.014 685.556C674.654 684.399 674.672 683.158 675.067 682.013C675.462 680.869 676.213 679.88 677.209 679.192L697.386 665.257V656.164L718.609 657.431L721.285 689.545Z" fill="#2F2E41"></path><path d="M662.063 664.054H648.638L642.251 612.27L662.066 612.271L662.063 664.054Z" fill="#A0616A"></path><path d="M669.285 689.545H659.759L658.058 680.551L653.703 689.545H628.437C627.226 689.545 626.046 689.158 625.071 688.44C624.095 687.723 623.375 686.712 623.014 685.556C622.654 684.399 622.672 683.158 623.067 682.013C623.462 680.869 624.213 679.88 625.209 679.192L645.386 665.257V656.164L666.609 657.431L669.285 689.545Z" fill="#2F2E41"></path><path d="M611.058 527.333C613.628 531.186 641.577 637.126 641.577 637.126L666.36 639.952L663.418 613.297L658.922 566.127L651.96 534.642C651.96 534.642 676.547 478.685 678.101 474.228L679.206 471.029L686.888 540.744C687.8 543.233 688.198 545.881 688.057 548.528C687.825 552.883 692.193 618.397 692.193 618.397L694.293 641.892L715.526 644.842L724.141 604.189C731.334 590.984 727.211 544.058 724.269 539.69C721.328 535.323 722.496 504.904 722.496 504.904C726.253 503.582 748.653 427.198 737.449 427.649C738.168 423.576 738.733 419.941 738.733 419.941L719.285 404.256L670.612 391.603L658.332 385.707C658.332 385.707 636.4 426.261 636.619 428.278C636.921 430.833 636.336 433.413 634.962 435.587L612.818 509.695C612.818 509.695 608.464 523.44 611.058 527.333Z" fill="#2F2E41"></path><path d="M733.342 262.147L725.598 245.707L699.244 246.72L690.648 263.823C690.648 263.823 666.081 293.166 665.286 302.707C664.286 314.707 672.597 373.519 664.286 369.707C664.286 369.707 644.691 392.707 656.286 392.707C667.88 392.707 720.328 425.631 723.77 429.334C727.211 433.036 742.574 435.437 741.286 427.707C739.997 419.977 733.342 378.173 733.342 378.173L751.36 312.44C756.546 298.249 758.16 282.33 746.437 272.797L733.342 262.147Z" fill="#CCCCCC"></path><path d="M635.722 213.76C632.197 212.361 628.431 211.67 624.639 211.726C620.847 211.782 617.103 212.585 613.621 214.088C610.139 215.591 606.987 217.765 604.345 220.487C601.703 223.208 599.623 226.423 598.224 229.948C592.339 244.773 591.364 280.176 602.315 297.92C616.396 273.46 644.884 264.429 651.91 251.259C659.418 237.186 650.547 219.645 635.722 213.76Z" fill="#004D78"></path><path d="M623.867 246.709C629.069 246.709 633.286 242.492 633.286 237.29C633.286 232.088 629.069 227.871 623.867 227.871C618.665 227.871 614.448 232.088 614.448 237.29C614.448 242.492 618.665 246.709 623.867 246.709Z" fill="white"></path><path d="M595.528 309.922C598.935 309.922 601.697 307.16 601.697 303.753C601.697 300.346 598.935 297.584 595.528 297.584C592.12 297.584 589.358 300.346 589.358 303.753C589.358 307.16 592.12 309.922 595.528 309.922Z" fill="#004D78"></path><path opacity="0.2" d="M633.158 232.823C634.884 234.627 635.823 237.042 635.768 239.538C635.714 242.034 634.671 244.406 632.869 246.133C631.067 247.861 628.653 248.802 626.157 248.75C623.661 248.699 621.288 247.658 619.559 245.858C621.538 246.899 623.823 247.202 626.005 246.713C628.187 246.223 630.124 244.973 631.469 243.186C632.814 241.399 633.479 239.192 633.345 236.96C633.211 234.727 632.287 232.615 630.738 231.002C631.638 231.475 632.455 232.09 633.158 232.823Z" fill="#231F20"></path><path opacity="0.2" d="M651.937 251.297C644.911 264.467 616.423 273.499 602.343 297.958C601.316 296.277 600.415 294.522 599.647 292.708C614.154 270.063 640.975 261.2 647.764 248.475C653.84 237.086 649.188 223.427 639.336 215.512C651.942 222.594 658.818 238.401 651.937 251.297Z" fill="#231F20"></path><path d="M592.748 301.63C594.182 301.334 595.663 301.357 597.088 301.696C598.512 302.035 599.845 302.682 600.993 303.591C602.14 304.501 603.074 305.651 603.729 306.961C604.383 308.271 604.743 309.708 604.782 311.172L626.151 319.374L624.333 333.575L594.32 321.568C591.856 321.471 589.514 320.474 587.737 318.765C585.96 317.056 584.871 314.755 584.678 312.297C584.484 309.84 585.198 307.396 586.686 305.43C588.173 303.464 590.33 302.112 592.748 301.63L592.748 301.63Z" fill="#A0616A"></path><path d="M742.053 272.365C739.803 270.992 737.304 270.076 734.7 269.67C732.095 269.265 729.436 269.377 726.875 270.001C724.314 270.626 721.902 271.749 719.776 273.308C717.65 274.867 715.853 276.83 714.488 279.084L683.816 329.734L614.47 313.296L608.152 330.64L696.958 372.706L741.935 301.069C748.669 291.606 751.966 278.417 742.053 272.365Z" fill="#CCCCCC"></path><path d="M743.198 210.294C743.2 215.175 742.004 219.983 739.714 224.294C737.424 228.605 734.111 232.288 730.065 235.02C726.019 237.752 721.365 239.449 716.51 239.962C711.656 240.475 706.749 239.789 702.222 237.963C697.695 236.138 693.685 233.228 690.544 229.491C687.403 225.754 685.228 221.303 684.209 216.529C683.191 211.755 683.359 206.803 684.701 202.11C686.042 197.416 688.515 193.123 691.903 189.608L692.046 189.465C692.285 189.215 692.524 188.964 692.774 188.726C692.776 188.726 692.777 188.725 692.779 188.725C692.78 188.724 692.781 188.723 692.783 188.722C692.784 188.721 692.784 188.72 692.785 188.718C692.786 188.717 692.786 188.715 692.786 188.714C693.096 188.427 693.406 188.141 693.728 187.867C698.038 184.089 703.345 181.633 709.014 180.793C714.683 179.953 720.474 180.765 725.694 183.131C730.914 185.497 735.341 189.318 738.445 194.135C741.55 198.952 743.2 204.563 743.198 210.294V210.294Z" fill="#2F2E41"></path><path d="M706.028 242.201C719.84 242.201 731.036 231.005 731.036 217.193C731.036 203.382 719.84 192.186 706.028 192.186C692.217 192.186 681.021 203.382 681.021 217.193C681.021 231.005 692.217 242.201 706.028 242.201Z" fill="#9E616A"></path><path d="M732.584 224.325L728.441 223.593C726.126 223.172 723.994 222.055 722.331 220.39C720.669 218.724 719.554 216.591 719.136 214.276L715.093 221.052L714.916 221.11C705.284 224.308 695.261 223.352 684.283 218.19C681.144 216.701 678.099 215.022 675.164 213.162L674.948 213.027L674.93 212.773C674.371 204.637 676.196 197.841 680.072 193.636C681.56 192.053 683.365 190.803 685.37 189.968C687.375 189.132 689.534 188.729 691.705 188.786C691.86 188.746 692.002 188.667 692.119 188.558C692.174 188.517 692.23 188.476 692.286 188.438V188.396L692.573 188.261C693.19 187.971 693.819 187.693 694.448 187.439C699.396 185.523 704.784 185.043 709.994 186.052C715.203 187.062 720.022 189.521 723.896 193.147C731.599 200.501 735.132 212.842 732.688 223.858L732.584 224.325Z" fill="#2F2E41"></path><path d="M785.331 245.631C776.821 241.239 787.765 225.297 785.566 215.976C783.367 206.655 767.529 203.657 766.52 194.134C765.511 184.61 763.138 174.788 756.853 167.561C752.838 162.943 746.921 159.534 740.828 160.113C738.767 160.309 736.772 160.946 734.98 161.982C733.187 163.019 731.639 164.429 730.44 166.117C729.242 167.806 728.422 169.733 728.035 171.767C727.648 173.801 727.705 175.895 728.2 177.905C726.466 175.447 721.977 175.98 720.866 178.775C719.878 181.261 722.06 184.271 724.628 184.491C727.989 188.641 731.837 193.045 737.101 193.882C737.94 194.075 738.812 194.075 739.651 193.881C740.489 193.687 741.273 193.306 741.942 192.765C743.181 191.576 743.277 189.198 741.808 188.309C748.424 190.937 752.303 198.09 753.285 205.141C754.266 212.192 752.908 219.327 752.013 226.389C751.118 233.452 750.733 240.881 753.502 247.44C756.774 255.189 764.306 260.742 772.527 262.523C780.748 264.304 789.503 262.564 796.944 258.642C804.385 254.72 810.59 248.732 815.659 242.02C806.927 248.22 794.847 250.543 785.331 245.631Z" fill="#2F2E41"></path><path d="M731.52 223.629C731.52 223.629 724.111 195.978 692.356 189.596C692.32 189.584 692.201 189.536 692.046 189.465C691.951 189.405 691.831 189.345 691.712 189.286C692.07 189.083 692.416 188.904 692.774 188.725C692.775 188.725 692.777 188.725 692.778 188.724C692.78 188.723 692.781 188.722 692.782 188.721C692.783 188.72 692.784 188.719 692.785 188.717C692.785 188.716 692.786 188.714 692.786 188.713C693.096 188.427 693.406 188.14 693.728 187.866L694.635 187.902C694.635 187.902 726.497 182.856 731.52 223.629Z" fill="#FD6584"></path><path opacity="0.2" d="M714.934 312.357L696.999 333.136L667.364 324.385L699.671 339.273L714.934 312.357Z" fill="black"></path><path d="M822.586 691.112L546.836 691.419C546.521 691.418 546.219 691.292 545.996 691.069C545.773 690.846 545.648 690.544 545.648 690.228C545.648 689.913 545.773 689.611 545.996 689.388C546.219 689.165 546.521 689.039 546.836 689.038L822.586 688.73C822.901 688.73 823.204 688.856 823.428 689.079C823.651 689.302 823.776 689.605 823.776 689.921C823.776 690.237 823.651 690.54 823.428 690.763C823.204 690.986 822.901 691.112 822.586 691.112V691.112Z" fill="#CACACA"></path><path d="M834.689 506.071C821.777 506.071 807.625 505.583 792.233 504.607C712.619 499.552 609.495 481.975 501.857 455.115C394.219 428.256 294.926 395.321 222.271 362.381C186.879 346.334 159.715 331.145 141.536 317.233C122.289 302.506 113.87 289.669 116.512 279.081C121.66 258.452 167.243 253.938 204.576 253.785L204.589 256.785C153.32 256.996 123.075 265.172 119.423 279.807C114.771 298.447 152.71 327.548 223.51 359.648C296.006 392.517 395.115 425.388 502.583 452.205C610.05 479.021 712.984 496.568 792.423 501.613C870.002 506.541 917.166 498.676 921.818 480.035C925.679 464.559 900.219 441.76 850.128 415.837L851.507 413.173C887.904 432.009 930.152 459.024 924.729 480.762C922.086 491.351 908.623 498.727 884.714 502.685C871.084 504.94 854.343 506.071 834.689 506.071Z" fill="#004D78"></path></g><defs><clipPath id="clip0_80_22029"><rect width="825.202" height="591.419" fill="white" transform="translate(100 100)"></rect></clipPath></defs></svg>