<svg width="4088" height="2295" viewBox="0 0 4088 2295" fill="none" xmlns="http://www.w3.org/2000/svg">
<g clip-path="url(#clip0_517_32896)">
<path d="M0 1278V0H4091V1278H0Z" fill="url(#paint0_linear_517_32896)"/>
<path d="M3483 790.5V761.5L3462 760.5V791.5L3483 790.5Z" fill="#413E45"/>
<path d="M3464 790V760H3443V791L3464 790Z" fill="#6A6A6A"/>
<path d="M1084.5 915.5L1079.5 773.5H1170V763.5L1163 761L1165 746H1170V737.5L1174.5 734L1199.5 732V740H1204V734L1225 732L1230 934.5L1165 940.5L1163 918.5L1135 917L1139 895.5L1106 892V917L1084.5 915.5Z" fill="#B4ACAC"/>
<path d="M3584.5 875H3768H3774L3775 887.5H3756.5L3642.5 886.5L3634 882.5L3584.5 881.5V875Z" fill="#011C2D"/>
<path d="M3656.5 894.5C3656.67 905 3656.9 926.1 3656.5 926.5L3665.5 937.5H3678L3680 926.5C3691.83 925.667 3716.1 924 3718.5 924C3720.9 924 3721.17 934 3721 939H3737.5L3748 930.5L3749.5 886.5L3643.5 885L3645 889.5H3652L3651 894.5H3656.5Z" fill="#414345"/>
<path d="M3747.5 885.5H3767.5C3767.5 902.833 3767.4 937.7 3767 938.5C3766.6 939.3 3744.5 938.167 3733.5 937.5L3745.5 930.5L3747.5 885.5Z" fill="#575757"/>
<path d="M3769 981V929L3759.5 936H3725.5L3723.5 919.5L3677.5 924.5V933H3666.5L3650 919.5H3621V903H3601L3598 911L3585 906L3574.5 903H3510L3514 929L3485 933L3481 984.5L3583 981V958H3650L3663 965.5L3737.5 963L3744.5 977L3769 981Z" fill="#737272"/>
<path d="M3952 751L3946 817V820.5H3891.5L3899.5 751H3952Z" fill="#FEDBB3"/>
<path d="M3892.5 822.5L3900 751H3794L3787.5 839L3892.5 822.5Z" fill="#7E8088"/>
<path d="M3901.5 748L3902.5 750.5L3899.5 751.5L3794 750.5H3844.5L3843.5 745.5L3894.5 744.5V748H3901.5Z" fill="#98999D"/>
<path d="M3900 752L3952 751L3905.5 747.5L3903.5 743L3895 744V748.5L3901.5 747.5L3902.5 750L3900 752Z" fill="#ECD0B0"/>
<path d="M3764.5 941L3770.5 834.5L3786 830H3826.5L3837 817H4037.5L4042.5 753H4066V744.5H4081V736H4095.5V992.5L3979 1007L3831.5 988L3764.5 983.5V941Z" fill="#676266"/>
<path d="M3363.5 664.5L3356.5 897V904.5L3305.5 901L3320.5 662L3363.5 664.5Z" fill="#EDCC9F"/>
<path d="M3306 903L3320 661.5L3219 670.5L3207.5 903H3306Z" fill="#B9B298"/>
<path d="M3592 750.5L3583.5 911L3576 903.5L3514.5 906V932H3504.5L3514.5 747L3592 750.5Z" fill="#FEB585"/>
<path d="M3505.5 933L3514.5 746.5H3483L3476 933H3505.5Z" fill="#AB7F62"/>
<path d="M3086 794L3094.5 798L3096.5 802L3069 800.5L3029 802V773.5L3058 774.5L3061 776.5H3069V783.5L3063 784.5L3064 792.5L3069 788L3073.5 794L3077.5 790.5L3086 794Z" fill="#FFE4C5"/>
<path d="M3121 799.5L3119 890.5L3067.5 895L3070 799.5H3121Z" fill="#FFCC8F"/>
<path d="M3068.5 896L3070 800L3029.5 802V774H3011.5V828.5H2981L2980 895L3068.5 896Z" fill="#C3987C"/>
<path d="M3185 880.5H3193V887.5L3215 890.5L3214.5 913.5H3196.5L3010.5 915.5L3013.5 905L2975.5 907L2978.5 872H3006.5V876.5L3010.5 878.5L3013.5 874L3022 866H3043L3045 859H3056V870L3069 874V878.5H3091L3089.5 887.5L3103 885.5L3116.5 887.5L3128 892H3167.5H3173L3179 887.5L3185 880.5Z" fill="#7F7F7F"/>
<path d="M2990 658.5L2981 826.5L2973.5 837L2888.5 825V821L2894 665L2990 658.5Z" fill="#685652"/>
<path d="M2990 658.5C2998.5 659 3015.8 660.1 3017 660.5L3013 829H2977.5L2990 658.5Z" fill="#BBA09A"/>
<path d="M2228.5 489.5V503.5V505.5L2220.5 501H2212V483H2210.5L2207.5 478L2205.5 479L2199.5 475.5V468.5V438.5H2203.5L2212 441.5V470L2213 472.5L2215.5 475.5L2217 480L2222 478L2225 483V486L2228.5 489.5Z" fill="#FFE0CB"/>
<path d="M2143 491V505V507L2135 502.5H2126.5V484.5H2125L2122 479.5L2120 480.5L2114 477V470V440H2118L2126.5 443L2126 474L2126.5 474.5L2130 477L2131.5 481.5L2136.5 479.5L2139.5 484.5V487.5L2143 491Z" fill="#796661"/>
<path d="M2236 508V654L2220 658L2221.5 500.5L2236 508Z" fill="#FFCEAD"/>
<path d="M2155 493.42L2150.6 726.32L2133 732L2134.65 492L2155 493.42Z" fill="#AC8980"/>
<path d="M2214 500.5H2221.5L2220 658H2212L2214 500.5Z" fill="#8A6F68"/>
<path d="M2126.53 492H2136L2134.11 726H2124L2126.53 492Z" fill="#8A6F68"/>
<path d="M2388 535V659.5C2388.8 659.9 2352.33 660.667 2334 661L2335.5 528L2388 535Z" fill="#A67452"/>
<path d="M2336 659.5V528.5H2273.5V542.5L2256 551L2254.5 645H2237L2236 666.5L2336 659.5Z" fill="#7C563D"/>
<path d="M2168 656.5V739.5L2279 741.5L2278 654.5L2168 656.5Z" fill="#9DA386"/>
<path d="M2151 735.5V778V876.5H2227.5L2227 735.5H2151Z" fill="#D9D9D9"/>
<path d="M2236.5 741L2227 735.5V870L2236.5 852.5V741Z" fill="#BBBBBB"/>
<path d="M2976 843.5H2949.5H2946L2947.5 904.5L2982 903V887V868H2976V843.5Z" fill="#747474"/>
<path d="M2979.5 943V901H2995.5L2994.5 945L2979.5 943Z" fill="#5B373B"/>
<path d="M2938 954.409V900H2954L2953 957L2938 954.409Z" fill="#5B373B"/>
<path d="M2953 956.5L2954 900L2980.5 901V956.5H2953Z" fill="#884C36"/>
<path d="M2994 957.5L2995 901H3015.5V957.5H2994Z" fill="#785042"/>
<path d="M3013.5 1001L3016.5 908.5H3340.5L3338 1004.5L3013.5 1001Z" fill="#48494B"/>
<rect x="2840" y="818" width="25" height="21" fill="#A2A2A2"/>
<rect x="2839" y="831" width="37" height="11" fill="#D9D9D9"/>
<rect x="2862" y="817" width="32" height="26" fill="#B8B8B8"/>
<rect x="2894" y="821" width="26" height="28" fill="#4F4546"/>
<path d="M2919 821L2935.5 819V847.5L2919 849V821Z" fill="#808080"/>
<path d="M2919 821L2935.5 819H2905L2894 821H2919Z" fill="#999999"/>
<path d="M2774.5 776.5V794.5H2696V776.5H2774.5Z" fill="#C4987C"/>
<path d="M2579.5 836V789.5H2768L2787.5 797.5L2791 840.5L2579.5 836Z" fill="#474641"/>
<path d="M2531 1021.5L2539.5 834L2949.5 842V1066.5H2880.5L2835 1034.5L2816 1002.5L2806 1051L2582.5 1043L2531 1021.5Z" fill="#8E6E59"/>
<path d="M2560.5 1029.5L2538.5 1011L2528.5 999L2411 1081H2505.5L2516.5 1067.5H2534L2570 1094.5H2596L2593.5 1032L2560.5 1029.5Z" fill="#2F3307"/>
<path d="M2428 703L2427 691H2441.5L2446.5 694L2444.5 740L2455 738.5C2454.67 744.833 2454 757.7 2454 758.5C2454 759.3 2442 757.5 2436 756.5L2437.5 705L2428 703Z" fill="#B97F57"/>
<path d="M2851 1031L2835 1015.5L2827.5 1012.5L2823.5 1176H2838H2862C2864.5 1164.33 2869.7 1140.7 2870.5 1139.5C2871.5 1138 2888.5 1130.5 2895 1127.5C2900.2 1125.1 2910.83 1128.5 2915.5 1130.5L2924.5 1116L2944.5 1125L2940.5 1100.5L2938 1096.5L2927 1080L2915.5 1077C2906.83 1076.17 2888.7 1074.5 2885.5 1074.5C2882.3 1074.5 2877.17 1068.83 2875 1066C2870.83 1061.5 2861.9 1052.3 2859.5 1051.5C2857.1 1050.7 2852.83 1037.5 2851 1031Z" fill="#403B1D"/>
<path d="M2833.5 1020V1003.5L2856.5 1044H2863L2885 1050H2908.5H2930.5V1036V1018V1005.5L2947.5 1003.5V987.5L2959 982L2966 975H2981.5L2991 987.5L3004.5 977L3010.5 985.5L3008.5 999L3020.5 1003.5L3016 1036H3010.5V1044L3004.5 1036L3000 1022H2945.5V1102.5H2937.5L2930.5 1092L2922 1087C2916.83 1084.67 2906 1080 2904 1080H2885C2880.17 1077 2870 1070.7 2868 1069.5C2866 1068.3 2856.5 1060.67 2852 1057V1044L2844.5 1030.5L2833.5 1020Z" fill="#232F3F"/>
<path d="M2095 701V727.5H2085.5V700L2095 701Z" fill="#C1875F"/>
<path d="M2085.5 728.5V700L2023 702V728.5H2085.5Z" fill="#F3A773"/>
<path d="M2985.5 934.5H3005L3007.5 936L3005 981.5L3000.5 983.5L2992.5 992L2989.5 989C2988.7 988.2 2985.5 984.333 2984 982.5L2981 977.5H2972L2963 979.5L2957.5 985L2955 982.5C2954.5 980.333 2953.2 975.6 2952 974C2950.5 972 2952 966.5 2952 965C2952 963.5 2958 957.5 2959 956.5C2960 955.5 2964.5 950 2965.5 949C2966.3 948.2 2972.5 943.667 2975.5 941.5L2985.5 934.5Z" fill="#4E4C19"/>
<path d="M2021.5 798.5V726.5H2169.5V736H2151V778L2147.5 776L2146 744.5L2107 741.5L2110 755H2104.5V778H2062L2064 784H2050V798.5H2021.5Z" fill="#AA7550"/>
<path d="M2022 870.5V793.5L2048.5 795V780.5H2060V797V872L2022 870.5Z" fill="#CCCCCC"/>
<path d="M2182.5 1126H2212H2270V1177H2251.5L2188 1180L2156 1164.5L2188 1142L2182.5 1126Z" fill="#232F3F"/>
<path d="M2179.5 1079.5L2059.5 1075H2057L2059.5 1094L2088.5 1087L2084.5 1184C2108.83 1178 2157.8 1166 2159 1166C2160.2 1166 2184.17 1150.33 2196 1142.5V1083.5L2181.5 1087L2179.5 1079.5Z" fill="#292929"/>
<path d="M2057 1181V1090.5L2089.5 1083.5V1181H2057Z" fill="#666666"/>
<path d="M1607 979.448V674L1680 677.552V983L1607 979.448Z" fill="#363636"/>
<path d="M915 910L930.5 917V870H792L773.5 868L747 865L732.5 868H585L587.5 910L612.5 893.5L631.5 908L655.5 900.5L675 919L685.5 910L703 917L717 912.5L760 908C769 912.667 787.4 922.3 789 923.5C790.6 924.7 808.667 915 817.5 910H915Z" fill="#156200"/>
<path d="M936.5 1039V1020H1010.5L971.5 1033L947 1039H936.5Z" fill="#807E7E"/>
<path d="M937.5 1021L938 1039H921.5L921 1007L937.5 1021Z" fill="#4A5C73"/>
<path d="M937 1021L1010 1020V1004.5L920 1006.5L937 1021Z" fill="#777777"/>
<path d="M674.5 1011.5L633.5 970.5L942.5 954L934.5 1046L760.5 1042L674.5 1011.5Z" fill="#393939"/>
<path d="M152.5 982C171.5 985.5 209.8 992.6 211 993H213L209.5 960.5C207.833 961.333 204 963 202 963C200 963 193.5 969 190.5 972L174 970.5C166.833 968.333 152.1 963.8 150.5 963C148.9 962.2 135.5 962.667 129 963L121 956H105L75 955H55.5L46 963L35 966L26 956L13.5 955L-0.5 956L1 1018.5L17 1015.5C61.8333 1009.17 151.7 996.5 152.5 996.5C153.3 996.5 152.833 986.833 152.5 982Z" fill="#104A00"/>
<path d="M598.5 1052.5L594 973.5L636.5 971.5L657 985H642.5L652 992.5L665 990.5L683 1009.5L674.5 1013L689.5 1031L680 1036L608 1052.5H598.5Z" fill="#232416"/>
<path d="M194 972.5L208 963.5H215L210 933L204.5 929L185 923.5L176.5 933C177 939.667 177.7 953 176.5 953C175.3 953 166.333 950 162 948.5L136 953L124.5 943.5L110.5 933H89.5L83 941.5H66H50L24.5 937.5H-0.5V961.5L17.5 959L45 969C50.1667 965.667 60.9 959 62.5 959H113C120 962.333 134.4 969 136 969H160L194 972.5Z" fill="#156200"/>
<path d="M3325 1480.5C3333 1481.5 3349.7 1483.4 3352.5 1483H3359L3294.5 1385.5L3379.5 1355.5L3393.5 1366L3424 1361L3429 1341L3402.5 1336.5L3386.5 1326L3161 1308L3152 1316L3277.5 1385.5L3325 1480.5Z" fill="#3A481F"/>
<path d="M3714 1471L3761.5 1487L3774 1475.5L3761.5 1463.5L3758.5 1436.5C3758.83 1426.67 3759.9 1406.6 3761.5 1405C3763.1 1403.4 3754.5 1402.33 3750 1402L3739 1385.5C3735.67 1395.17 3728.2 1416 3725 1422C3721.8 1428 3718 1405.83 3716.5 1394L3699.5 1361.5L3695.5 1342.5C3696.5 1338.33 3698.7 1329.3 3699.5 1326.5C3700.3 1323.7 3690.5 1311.67 3685.5 1306C3678.17 1304.83 3662.8 1302.5 3660 1302.5C3656.5 1302.5 3646 1302.5 3641 1306C3637 1308.8 3642.67 1320.83 3646 1326.5L3628 1323C3623.67 1316.17 3613.7 1302.5 3608.5 1302.5C3603.3 1302.5 3593.67 1309.5 3589.5 1313V1336.5H3583L3570.5 1355L3566.5 1347L3539 1319.5V1340L3517.5 1313L3511.5 1334L3494.5 1302.5L3482.5 1330H3476L3464.5 1342.5L3454.5 1361.5L3413.5 1358.5L3419 1369L3442.5 1397C3424.5 1399.33 3388.5 1404.2 3388.5 1405V1428L3402.5 1445L3445 1487L3517.5 1475.5L3556 1467.5L3589.5 1463.5L3714 1471Z" fill="#293211"/>
<path d="M3972 1615.55L4009.37 1601.5L4025 1590.15L4018.21 1573.94H3996.46L3948.9 1570.7L3939.39 1566.37L3918.33 1561.51L3892.51 1548L3886.4 1561.51V1570.7L3892.51 1577.72L3883 1601.5L3918.33 1608.53L3910.18 1623.66L3902.7 1646.89L3939.39 1655L3948.9 1633.92L3972 1615.55Z" fill="#AF9100"/>
<path d="M3862 2007.38L3847.93 2014L3710.24 1770.55L3558.48 1685.88L3534 1584L3580.51 1623.69L3616 1632.95H3648.43C3666.18 1650.59 3702.28 1685.88 3704.73 1685.88H3728.6L3736.55 1710.35L3755.52 1713.66L3802.64 1757.98L3797.13 1791.72L3827.12 1836.05C3828.96 1847.07 3832.63 1871.24 3832.63 1879.71C3832.63 1890.29 3838.75 1879.05 3841.81 1879.71C3844.25 1880.24 3846.91 1896.69 3847.93 1904.85L3862 1917.42V2007.38Z" fill="#22292F"/>
<path d="M-0.5 941L-1 914L0 882.5L4 885.5L10 898.5H18L31.5 892C32.8333 895 35.8 901.5 37 903.5C38.2 905.5 43.8333 898.667 46.5 895L75 892L82.5 898.5L102 895L120.5 898.5L132.5 885.5L146 882.5L155.5 890L160.5 901H177L183.5 895L199.5 887.5L212 890L215 937L203.5 932C199.333 930.667 190.2 927.9 187 927.5C183.8 927.1 181.333 931.667 180.5 934V958.5L160.5 953L138 958.5L108 934H92.5L82.5 943L-0.5 941Z" fill="#1B7C00"/>
<path d="M3858 1391.5L4096.5 1501.5V1266.5L3878 1316L3824.5 1327L3858 1391.5Z" fill="#293211"/>
<path d="M4095 973.5V1011.5L4087 1072L4049 1076.5L4046.5 1065H3979.5C3977.9 1065 3977.17 1069.67 3977 1072L3922 1065L3945 1057L3917.5 1052L3844 1049.5L3847.5 985.5L3809 977H3777V962L3781 947L3799 942.5L3825.5 949L3847.5 962L3869 954L3890 962L3899 973.5V991L3939.5 996.5H3961L3977 982H3996L4010.5 973.5H4032L4042.5 977L4060 969L4070 965H4080L4095 973.5Z" fill="#293211"/>
<path d="M4025.5 1100.5L4095.5 1109V1012H4090.5L4087.5 1066L4050 1070V1062L3998.5 1061H3975.5L3974 1066L3928.5 1062L3949.5 1058V1053.5L3918.5 1048L3842.5 1045L3838 1109L3903 1111.5L3921.5 1100.5L3931.5 1097L4022 1109L4025.5 1100.5Z" fill="#EEEEEE"/>
<path d="M832 993.5L861 986L863 984L892 981.5C890.5 983.833 887.4 988.7 887 989.5C886.6 990.3 878.833 994.833 875 997L858 1006L840.5 1009.5L835 1015L839 1022.5L860 1040.5L779 1038L775 1035L766.5 1026.5L764.5 1018.5L766.5 1011.5L779 1004L808 997L832 993.5Z" fill="#1B2027"/>
<path d="M752 1027.5C800 1027.33 896.6 1027.1 899 1027.5L923.5 1013.5H716L718.5 1021.5L752 1027.5Z" fill="#777777"/>
<path d="M718.5 1009L768.5 1010C813.5 1010 904.2 1010.2 907 1011C909.8 1011.8 899.167 1000.33 893.5 994.5L718.5 1002V1009Z" fill="#777777"/>
<path d="M593 966V929L587 907L596.5 902L604.5 893L619.5 891L632 907L646 900L660 898.5C664.5 903.833 673.8 914.5 675 914.5C676.2 914.5 683.833 909.5 687.5 907L705 914.5L717.5 907H741.5C747.833 906.333 761.1 904.7 763.5 903.5C765.9 902.3 783.5 913.667 792 919.5L812 905H827L829 936H840.5L843.5 919.5L883 907C888.333 911.833 899.3 921.6 900.5 922C901.7 922.4 903 917.167 903.5 914.5L918 910.5L936 914.5V950L593 966Z" fill="#104A00"/>
<path d="M941.5 1037.5L951 1033.5L1015.5 1014L1019 1076L962.5 1077.5V1044H946.5L941.5 1037.5Z" fill="#121D0F"/>
<path d="M1172 1041C1188.83 1040 1228 1037.5 1228 1037.5V1087L1237.5 1091.5L1238.5 1116.5L1260.5 1128V1144L1289 1150L1224 1160L1211 1150L1077.5 1174.5L965 1130.5L963 1074L1034.5 1072C1058.67 1073.17 1108 1075.7 1112 1076.5C1116 1077.3 1113.67 1063.5 1112 1056.5C1130.5 1056.33 1172 1056.5 1172 1056.5V1041Z" fill="#232F3F"/>
<path d="M1169 1048L1166 930.5L1229.5 925.5V1048H1169Z" fill="#D9D9D9"/>
<path d="M1012.5 1085.5L1003 909.5H1100.5C1102.5 909.5 1101.33 894.5 1100.5 887L1141.5 890V912H1170L1174 1059L1116.5 1061L1120 1082L1035.5 1074L1028 1085.5H1012.5Z" fill="#664F3D"/>
<path d="M933 1007L924 794H976V787H986.5H990.5V782.5H1003V787L1030 788V799.5H1082L1086 910L1005 912.5L1010 1007H933Z" fill="#C1C1C1"/>
<path d="M1720 1174L1504 1151.5L1687 1087C1712.17 1088 1763.1 1090 1765.5 1090C1767.9 1090 1794.5 1082 1807.5 1078L2021 1087L2018 1194.5L1994 1221L1957.5 1229.5V1191.5L1895.5 1186L1839.5 1179.5L1790 1190L1729.5 1167.5L1720 1174Z" fill="#BA967E"/>
<path d="M2015 1208L2018.5 1089C2030.67 1083.17 2055.5 1071.4 2057.5 1071C2060 1070.5 2057.5 1185 2057.5 1185C2057.5 1185 2028.83 1201.67 2015 1208Z" fill="#554941"/>
<path d="M3830.5 1237L3852.5 981.5H3769.5L3751 1234.5L3830.5 1237Z" fill="#C9BAB3"/>
<path d="M3106.5 961.5H3090V968.5L3116.5 965V982.5H3853L3812.5 975H3746.5L3742.5 961.5H3667.5L3653.5 955.5H3578.5V975L3222 965L3218 955.5L3116.5 952L3106.5 961.5Z" fill="#EDDBD1"/>
<path d="M3752 1269L3770 975.5H3687.5L3666.5 1281H3697.5V1264.5L3752 1269Z" fill="#3A2F2D"/>
<path d="M3633.5 1254.5C3640.17 1164.33 3653.5 983.3 3653.5 980.5H3687.5L3668 1254.5H3633.5Z" fill="#A7AAAF"/>
<path d="M3523.5 1255L3540 977.5H3654L3634 1255H3523.5Z" fill="#776565"/>
<path d="M3487 1246.5L3501 980.5H3541L3523.5 1248.5L3487 1246.5Z" fill="#918C90"/>
<path d="M3489 1253L3501 981L3339 978.5L3324.5 1247L3489 1253Z" fill="#D9D9D9"/>
<path d="M3292 1241H3326L3339.5 977H3296.5V1000H3305L3292 1241Z" fill="#C7C7C7"/>
<path d="M3187 1243L3197.5 995L3307 997.5L3292 1246.5L3187 1243Z" fill="#D5C6C3"/>
<path d="M3063.5 1308L3088 963L3117.5 959L3124 978.5L3302.5 974.5V1001.5H3199.5L3194 1233L3750 1248V1233H3816V1241.5V1259.5L3839.5 1269.5V1312.5H3816L3762.5 1287.5L3623 1283L3598.5 1266.5L3553.5 1287.5H3499.5L3493.5 1298.5L3455.5 1279.5L3362 1298.5L3389.5 1335.5L3063.5 1308Z" fill="#011C2D"/>
<path d="M1942 1346L2622.5 1317L2651.5 1321L2690.5 1295.5V1289.5L2633.5 1260.5C2610.17 1255.67 2560.9 1245.9 2550.5 1245.5C2537.5 1245 2447 1236.5 2436.5 1236.5H2365.5C2357 1236.5 2282 1239.5 2275 1241C2268 1242.5 2160.5 1250 2154.5 1250.5C2149.7 1250.9 2079.5 1265.67 2045 1273L1889 1338.5L1942 1346Z" fill="#4E4C19"/>
<path d="M4094.5 2299.5V2129.5L3998.5 2027L3915.5 2014L3884.5 2027C3909.83 2055 3962.1 2112.1 3968.5 2116.5C3974.9 2120.9 4000.83 2240.33 4013 2299.5H4094.5Z" fill="#2A2B09" stroke="#232A01"/>
<path d="M1680.19 1303.48C1682.2 1303.48 1789.67 1319.83 1843.15 1328L2030.68 1264.95L2167.56 1240.94L2355.59 1230.93L2364.11 1199.41C2364.78 1197.57 2365.72 1193.2 2364.11 1190.4C2362.11 1186.9 2359.1 1185.9 2355.59 1182.39C2352.08 1178.89 2345.06 1174.39 2341.05 1174.39C2337.04 1174.39 2325.51 1168.88 2316.98 1168.88H2265.84C2251 1168.88 2235.25 1172.55 2229.23 1174.39H2192.63C2184.11 1174.39 2171.07 1163.38 2164.55 1163.38C2158.03 1163.38 2154.52 1145.87 2151.52 1142.36C2148.51 1138.86 2145 1142.86 2141.49 1145.87C2137.98 1148.87 2121.43 1158.88 2117.42 1158.88H2106.39C2103.55 1162.21 2096.76 1169.98 2092.35 1174.39C2086.83 1179.89 2073.8 1168.88 2071.29 1163.38C2068.78 1157.88 2062.77 1168.88 2060.26 1174.39C2057.75 1179.89 2050.23 1168.88 2044.21 1163.38C2038.2 1157.88 2034.19 1158.88 2030.68 1163.38C2027.17 1167.88 2022.15 1178.39 2018.64 1182.39C2015.13 1186.4 1996.08 1198.4 1996.08 1199.41V1214.42C1986.72 1218.25 1966.9 1226.03 1962.49 1226.43C1958.07 1226.83 1966.33 1213.92 1971.01 1207.41L1962.49 1185.9L1949.95 1168.88L1935.41 1158.88L1923.88 1163.38L1905.83 1168.88C1899.64 1172.05 1886.37 1179.19 1882.76 1182.39C1878.25 1186.4 1867.72 1174.39 1861.7 1174.39C1855.68 1174.39 1845.16 1176.89 1843.15 1178.39C1841.55 1179.59 1826.44 1172.55 1819.08 1168.88H1790C1792.01 1174.55 1796.22 1185.9 1797.02 1185.9H1783.48L1771.95 1174.39L1728.33 1163.38L1716.79 1174.39L1692.23 1240.94C1701.75 1243.27 1721.41 1248.24 1723.81 1249.44C1726.22 1250.64 1727.83 1260.28 1728.33 1264.95L1612 1270.96L1616.01 1276.96C1636.57 1285.8 1678.19 1303.48 1680.19 1303.48Z" fill="#4E4C19"/>
<path d="M2851 1232L2860 1189V1187H2828V1208L2810 1241L2363.5 1199L2351.5 1232H2411L2522.5 1241C2555.33 1245 2621.5 1253 2623.5 1253C2625.5 1253 2677 1267 2702.5 1274L2725.5 1290V1314L2785 1282L2833.5 1253L2851 1232Z" fill="#473C0B"/>
<path d="M956.5 1321C959 1321 1162 1295 1166 1295L1142.5 1270L1089.5 1243L886 1285.5L896 1314C915.333 1316.33 954.5 1321 956.5 1321Z" fill="#C28801" stroke="#836A14"/>
<path d="M3006.5 1496L2985 1207.5L3119.5 1294.5L3205 1337L3283.5 1381.5L3328 1473H3380.5L3460.5 1519L3541 1597.5L3557.5 1660L3683.5 1729L3760.5 1832L3803.5 1932H3854L3974 2119L4019.5 2299.5H3610L3046 1540.5L3006.5 1496Z" fill="#2F3307"/>
<path d="M2079 1548L2559.5 1389L2571.5 1366.5L2450 1406L2190 1440.5L2162 1433L1969 1425L1810 1412.5L1780.5 1425L2079 1548Z" fill="#414112"/>
<path d="M1248 1528.5L1391 1484L1370 1435L1194.5 1292L1096.5 1303L1092 1319.5L1194.5 1484L1248 1528.5Z" fill="#232416" stroke="#836A14"/>
<path d="M0.5 2122V2028L314.5 1883.5V1828L368.5 1814L482 1837.5L922.5 1642V1518.5H885.5L874.5 1432.5L834.5 1411L800.5 1377C788.333 1378 762.4 1381.9 756 1389.5C749.6 1397.1 693 1378.33 665.5 1368L642 1389.5L522 1420L368.5 1432.5C347.833 1419.17 308.1 1391.9 314.5 1389.5C320.9 1387.1 681.5 1315.5 861 1280L896 1311L947 1328L1045.5 1348L1078 1420L1150 1566.5L1059.5 1651L0.5 2122Z" fill="#836A14" stroke="#836A14"/>
<path d="M0 2297V2264.1L875.811 1829.97L1340.98 1727.33L1407 1718L1393.5 1814.75L898.819 2297H0Z" fill="#414321"/>
<path d="M664 1082V1069.31L698 1066V1079.79L664 1082Z" fill="#D9D9D9"/>
<path d="M1759.5 1605.5L1672 1496.5L1703 1481.5L1879 1562.5L2129 1702L2236.5 1799.5L2193.5 1923.5L2172 2131L2163.5 2298H2057.5L2033 2179L1935 1841L1759.5 1605.5Z" fill="#121D0F" stroke="#836A14"/>
<path d="M1291.5 2296.5L1481 1621.5L1559.5 1701.5L1590.5 1972L1552.5 2296.5H1291.5Z" fill="#162416" stroke="#836A14"/>
<path d="M2465 2032.5C2479.33 2113.83 2508 2278.2 2508 2285V2299H2651.5L2508 2075.5L2465 2032.5Z" fill="#1E2516" stroke="#836A14"/>
<path d="M3308.5 2299.5H3278L2528 1741.5L2513 1677.5L2927 1296V1434.5C2927 1443.5 2948 1575 2953.5 1589.5C2957.9 1601.1 3192 2067.67 3308.5 2299.5Z" fill="#131E10"/>
<path d="M2623.27 1708.33C2593.18 1705.33 2563.1 1702.04 2533.03 1698.84H2531.48C2531.48 1697.05 2531.01 1696.15 2530.66 1694.59C2530.24 1692.67 2530.69 1692.26 2531.65 1690.34C2532.95 1687.75 2533.03 1686.52 2533.03 1683.39C2533.03 1680.19 2535.42 1677.25 2536.12 1674.11C2536.85 1670.84 2540.19 1667.16 2542.3 1664.67C2547.1 1658.98 2552.81 1655.04 2556.98 1648.61C2559.45 1644.81 2562.07 1640.98 2565.48 1637.96C2568.17 1635.58 2571.32 1633.81 2573.21 1630.66C2577.04 1624.31 2581.61 1620.16 2587.12 1615.21C2598.79 1604.73 2610.26 1593.34 2623.02 1584.12C2626.3 1581.75 2628.78 1578.8 2632.33 1576.74C2634.72 1575.35 2636.94 1574.06 2638.9 1572.1C2642.33 1568.68 2644.02 1564.19 2647.79 1560.98C2655.48 1554.43 2661.43 1564.3 2671 1561.62C2677.13 1559.91 2682.93 1560.27 2687.25 1555.87C2688.82 1554.27 2692.71 1551.35 2693 1548.92C2693.63 1543.59 2696.71 1538.27 2696.86 1532.69C2697.07 1524.97 2694.19 1516.15 2697.98 1509.11C2701.63 1502.35 2708.92 1501.54 2713.87 1495.98C2716.01 1493.57 2720.47 1491.48 2723.31 1489.75C2726.94 1487.55 2726.97 1485.42 2731 1484L2731.17 1483.94C2734.05 1482.93 2739.49 1481.01 2742.12 1479.83C2744.49 1478.77 2743.26 1474.39 2745.5 1473C2749.46 1470.55 2756.09 1467.73 2758.69 1463.9C2759.74 1462.36 2760.92 1458.12 2762.17 1457.12C2762.72 1456.68 2763.48 1457.69 2764.19 1457.77C2768.21 1458.21 2772.71 1457.99 2776.42 1459.61C2778.76 1460.63 2781.64 1461.55 2784.11 1462.19C2786.37 1462.77 2788.41 1464.57 2790.38 1464.68C2794.26 1464.89 2799.8 1472.93 2796.9 1476.66C2795.27 1478.76 2795.2 1482.17 2793.47 1484C2791.87 1485.69 2789.75 1486.23 2788.49 1488.21C2786.36 1491.55 2787.94 1495.25 2788.06 1498.85C2788.23 1504.26 2789.97 1509.32 2791.92 1514.31C2795.87 1524.39 2800.67 1537 2808.58 1544.71C2815.93 1551.86 2825.87 1554.05 2835.11 1556.99C2840 1558.54 2847.01 1557.92 2852.2 1558.19C2857 1558.44 2860.85 1559.9 2865.25 1561.62C2870.18 1563.56 2876.19 1566.99 2880.02 1570.55C2884.58 1574.79 2890.79 1576.82 2896.25 1579.66C2901.54 1582.4 2905.9 1584.66 2909.31 1589.92C2912.56 1594.96 2914.8 1600.87 2914.8 1606.88C2914.8 1612.42 2913.26 1617.57 2913.26 1623.06C2913.26 1627.9 2912.8 1633.19 2911.32 1637.79C2907.04 1651.11 2893.39 1656.93 2881.96 1662.52C2869.07 1668.82 2854.52 1676.43 2840.01 1676.43C2831.77 1676.43 2823.62 1676.1 2815.49 1677.59L2815.34 1677.62C2806.38 1679.27 2797.35 1680.92 2788.23 1681.07C2773.52 1681.3 2758.32 1681.3 2743.66 1683C2736.97 1683.78 2730.04 1683.46 2723.31 1683.39C2717.28 1683.32 2711.53 1681.07 2705.62 1681.07C2701.2 1681.07 2697.04 1680.05 2692.66 1679.69C2686.38 1679.18 2679.97 1679.52 2673.68 1679.52C2663.41 1679.52 2653.3 1679.47 2643.11 1678.15C2640.57 1677.82 2637.83 1681.36 2637.4 1683.73C2637.02 1685.82 2640.14 1684.86 2639.29 1687.25C2637.11 1693.36 2633.72 1699.06 2632.29 1705.46C2631.94 1707.01 2632.3 1708.89 2630.4 1708.89C2627.95 1708.89 2626.04 1708.61 2623.27 1708.33Z" fill="#3B3C3E"/>
<path d="M2174.5 1581.5L2830 1295.5H2847.5L2805.5 1327L2670 1409L2319.5 1650L2174.5 1581.5Z" fill="#3E4B2C"/>
<path d="M2424 1403.5L2596.5 1346.5L2623.5 1336.5L2582.5 1329L2549.5 1325L2018.5 1358L2174.5 1444.5C2223.67 1438.17 2322.5 1425.5 2324.5 1425.5C2326.5 1425.5 2391.67 1410.83 2424 1403.5Z" fill="#3B4121"/>
<path d="M1664 1374.5L1834 1327L1838 1324L1629.5 1278L1610 1267.5L1603.5 1298L1452 1311.5L1664 1374.5Z" fill="#1C1C1C"/>
<path d="M1357.5 1277C1479.83 1270.33 1725.1 1257 1727.5 1257L1730 1250.5L1700 1237.5L1730 1173.5L1494 1149.5L1398 1176.5L1198 1218L1357.5 1277Z" fill="#121D0F"/>
<path d="M3077 2127.5L3289.5 2297H2637.5L2622.5 2276.5L2555.5 2170.5L2510 2103.5L2464.5 2045.5L2187.5 1794L2134.5 1750L2066.5 1710.5L1746.5 1528.5L1568.5 1431.5L1287 1314L1079.5 1172.5L1448.5 1307.5L1637 1360.5L1961.5 1494.5L2203 1585.5L2535 1726L2738.5 1819.5L3001.5 2010L2954.5 2019L3077 2127.5Z" fill="#232F3F"/>
<path d="M969 2213C934.5 2240.17 864.8 2294.9 862 2296.5L1283 2299.5L1332 2219.5L1399.5 2050.5L1467 1886.5L1497 1786L1508 1697L1497 1639L1531.5 1736.5L1555 1851V2026L1525 2184.5L1508 2299.5H2091L2072.5 2184.5L2067 2145.5L2016 1996.5L1917 1768.5L1799.5 1618L1735 1541.5L1696 1500L1538.5 1415L1416.5 1366L1314 1323L1078 1170.5L987 1139.5L751.5 1023.5L721.5 1019.5V1004L776.5 998.5V992H728.5L687 998.5L670 1011.5L681 1028L709.5 1063.5L856.5 1160.5L905.5 1181L968 1202.5L1016.5 1222.5L1107 1259.5L1210 1318L1264.5 1358L1322 1410.5L1360 1453L1378.5 1536.5V1633.5L1372.5 1736.5L1318.5 1830L1231 1957L1116 2082L969 2213Z" fill="#232F3F"/>
<path d="M2038.5 1364L2185 1437.5L2115 1442L2027.5 1440L1979.5 1437.5L1903 1432.5L1864 1428.5L1822 1421.5L1836 1418L1858.5 1412L1906.5 1401.5L1944 1394.5L1977.5 1388H1994L2009.5 1394.5L2011.5 1361.5L2038.5 1364Z" fill="#5A5A5A"/>
<path d="M-1 2291V2228.5L927 1770.5L972.5 1749L1010.5 1729L1050.5 1710L1084.5 1693L1123.5 1673.5L1154.5 1658.5L1190 1641L1232.5 1620.5L1272.5 1602.5L1308 1585.5L1339.5 1570.5L1376.5 1552L1412.5 1538L1452.5 1520.5L1486.5 1505L1525.5 1488L1559 1474L1593.5 1461L1629 1446L1656.5 1436L1682.5 1425L1716.5 1413L1742 1404.5L1773 1394.5L1806.5 1384.5L1838 1376L1869 1369.5L1909 1359.5L1936 1355L1956.5 1351.5L1976.5 1349.5L2000 1346H2004.5L2009 1349.5L2012 1354L2010.5 1361V1373L2009 1394L1995 1387.5H1981.5L1958.5 1392L1925 1398L1888 1405.5L1857 1412.5L1817 1423L1775.5 1436L1736 1449L1696 1465L1655.5 1481.5L1609 1501.5L1568 1518L1527 1538L1481 1558L1376.5 1609L1379 1702L1372.5 1740.5L1359.5 1748L1343 1752.5L1318 1757.5L1285.5 1763L1260.5 1767L1231.5 1774.5L1193.5 1784L1165.5 1791.5L1141 1800L1076 1808L1054.5 1811H1042.5L1034.5 1815L1015 1818L1005.5 1820.5L995 1822L992 1826H980L979 1828H970L963.5 1832L949.5 1833L912.5 1848L851.5 1859.5L-1 2291Z" fill="#C1B4B1"/>
<path d="M1976.5 1349.5L2000 1346L2007.5 1347.5L2014.5 1351.5L2012 1362.5H2038L2073.5 1359.5L2183 1349.5L2356.5 1340.5L2475.5 1337.5H2582L2596.5 1334L2626.5 1317H2615H2558.5L2501.5 1318L2395.5 1317L2316 1321L2187.5 1323.5L2079.5 1326.5L1986.5 1334H1914L1932 1321L2038 1283L2113.5 1260L2180 1250.5L2240.5 1245L2299 1243L2359.5 1240L2416.5 1241.5L2487 1246.5L2544 1252.5L2600 1262L2663.5 1274L2675.5 1282L2680 1286.5V1292.5L2658 1307.5L2590 1340L2526 1367H2503L2435.5 1391.5L2345.5 1417L2271 1429.5L2183 1436.5L2117.5 1439.5H2061.5L2010 1438L1965 1436L1907 1431L1864 1428.5L1824 1421L1803 1428.5L1843 1436L1911 1442.5L2005.5 1451H2130.5L2288.5 1440.5L2399 1424.5L2484 1407.5L2566.5 1382L2626.5 1357.5L2709.5 1314L2730.5 1302.5L2729 1286.5L2713 1274L2677 1260L2640 1249.5L2576.5 1243L2508 1234.5L2419 1229H2378.5H2325.5L2268.5 1232C2242 1233.67 2188.7 1237 2187.5 1237C2186 1237 2146.5 1238.5 2144.5 1238.5C2142.9 1238.5 2118.5 1242.83 2106.5 1245L2067.5 1251.5L1806.5 1334L1733 1355L1674 1369.5L1610.5 1390.5L1521 1419L1292.5 1505L1272.5 1510.5H1256H1235.5L1231 1506.5L1133.5 1333L1119 1324.5L1109 1322L1111.5 1312.5L1199.5 1302L1337 1289.5L1487.5 1277.5L1598.5 1273.5L1669 1268L1968 1245L1991 1241.5V1228L1738 1251.5L1691.5 1257L1619 1260.5L1564 1263H1496L1431 1268L1342 1273.5L1256 1280.5L1119 1298L1082 1302L1029.5 1310L986.5 1312.5H956L925 1310L905 1304.5L895.5 1292.5L891.5 1274L895.5 1264L842.5 1277L852 1286.5L863 1302.5L887.5 1318.5L942 1342.5L966 1345.5L995 1343L1001 1362.5L1004 1364.5L1008 1366L1009 1363.5L1013 1362L1014 1366L1013.5 1375L1017.5 1377L1027.5 1382L1038 1388L1084 1513.5L1099 1552V1564L1094 1575.5L1088 1586C1085.5 1588.83 1080.4 1594.6 1080 1595C1079.5 1595.5 1071 1604.5 1070.5 1605.5C1070 1606.5 1059 1615 1058.5 1615.5C1058.1 1615.9 1040.67 1628.33 1032 1634.5L1009 1648L939 1680L681 1796L-1 2093V2228.5L927 1770.5L972.5 1749L1010.5 1729L1050.5 1710L1084.5 1693L1123.5 1673.5L1154.5 1658.5L1190 1641L1232.5 1620.5L1272.5 1602.5L1308 1585.5L1339.5 1570.5L1376.5 1552L1412.5 1538L1452.5 1520.5L1486.5 1505L1525.5 1488L1559 1474L1593.5 1461L1629 1446L1656.5 1436L1682.5 1425L1716.5 1413L1742 1404.5L1773 1394.5L1806.5 1384.5L1838 1376L1869 1369.5L1909 1359.5L1936 1355L1956.5 1351.5L1976.5 1349.5Z" fill="#939393"/>
<path d="M1175 2189L1107.5 2298.5L1106.5 2300.5H1334.5L1348 2269L1376.5 2211L1404.5 2161L1431 2116L1464.5 2065.5L1494.5 2021.5L1526.5 1980.5L1558.5 1943.5L1660 1836L1721.5 1787L1772.5 1746L1842 1700L1878.5 1678.5L1918.5 1658L1972.5 1632.5L2031 1607L2123.5 1572.5L2245.5 1528L2336 1496L2422.5 1465L2495 1440L2540 1423.5L2654 1377.5L2701.5 1360L2738.5 1344.5L2808 1314L2830.5 1303.5L2837 1293L2848.5 1270L2855 1261L2862.5 1243.5L2862 1238L2848.5 1226.5L2846.5 1231.5L2841.5 1238C2841.5 1238 2831 1249.5 2830.5 1249.5C2830.1 1249.5 2819.5 1255 2819.5 1255L2806 1263.5L2788.5 1273L2752.5 1290.5L2707.5 1314L2659 1342L2610.5 1362L2495 1407L2370 1447L2367.5 1446.5L2362 1448.5L2142.5 1517.5L2102 1530.5L2061 1544L2028 1555.5L1988 1568L1948.5 1580.5L1914.5 1594L1877 1608.5L1829 1629L1788.5 1648L1731 1677L1652.5 1723L1600 1759.5L1535.5 1802L1469 1859L1410.5 1913L1368 1956L1315 2012L1266.5 2068L1221.5 2127L1175 2189Z" fill="#4D4D4D"/>
<path d="M2423 1465L2495.5 1440L2430.5 1474L2394.5 1533H2386V1519.5L2379 1513L2070.5 1632.5L1992 1665L1965 1678.5L1898.5 1713L1842.5 1746L1820.5 1759.5L1791.5 1779.5L1764.5 1797.5L1727 1826.5L1679.5 1866.5L1649.5 1894L1605 1936.5L1569.5 1974L1539 2011L1514.5 2042L1481 2085.5L1448 2133L1417 2179.5L1388 2229L1348.5 2300.5H1335L1348.5 2269L1377 2211L1405 2161L1431.5 2116L1465 2065.5L1495 2021.5L1527 1980.5L1559 1943.5L1660.5 1836L1722 1787L1773 1746L1842.5 1700L1879 1678.5L1919 1658L1973 1632.5L2031.5 1607L2124 1572.5L2246 1528L2336.5 1496L2423 1465Z" fill="#A3A3A3"/>
<path d="M2791.5 1328.5L2829.5 1303.5H2830.5L2837 1293L2848.5 1270L2855 1261L2862.5 1243.5L2903.5 1233.5H2931.5L2930 1271L2929.5 1281L2928 1292.5L2925 1302L2915.5 1322.5L2889.5 1347.5L2843.5 1386.5L2793.5 1428L2760.5 1462.5L2704 1514.5V1538L2685.5 1568.5H2677V1562.5H2664.5L2644 1583.5L2616 1611L2585 1644L2560 1670.5L2538.5 1697.5L2519.5 1730.5L2503 1763L2490.5 1797.5L2479.5 1842.5L2472.5 1883L2470 1924.5L2471 1975.5L2475.5 2020.5L2480.5 2059.5L2493 2123L2508.5 2196.5L2515.5 2243.5L2523.5 2300.5H2327.5H2138.5L2142 2144.5L2143.5 2077L2145.5 2036L2149 1994L2152 1962.5L2161 1915L2170 1879.5L2177.5 1851.5L2189.5 1817L2204 1786.5L2219 1756.5L2237.5 1725.5L2251.5 1705.5L2270 1680.5L2305 1642.5L2341 1608L2383 1576L2509 1488.5L2568 1458L2673 1391L2758.5 1347.5L2791.5 1328.5Z" fill="#777777"/>
<path d="M2321.5 2238L2327.5 2300.5H2523.5L2515.5 2243.5L2508.5 2196.5L2493 2123L2480.5 2059.5L2475.5 2020.5L2471 1975.5L2470 1924.5L2472.5 1883L2479.5 1842.5L2490.5 1797.5L2503 1763L2519.5 1730.5L2538.5 1697.5L2560 1670.5L2585 1644L2616 1611L2644 1583.5L2664.5 1562.5H2677V1568.5H2685.5L2687 1567.5L2704 1538V1514.5L2760.5 1462.5L2793.5 1428L2843.5 1386.5L2889.5 1347.5L2915.5 1322.5L2925 1302L2928 1292.5L2929.5 1281L2930 1271L2931.5 1233.5H2903.5L2898 1276L2885.5 1292L2806.5 1351.5L2770 1377L2732.5 1402.5L2697.5 1427L2654 1458L2624 1482L2592 1508.5C2590 1508.33 2585.9 1508 2585.5 1508H2580L2565 1520.5L2538.5 1542.5L2485 1585L2445.5 1627.5L2410.5 1666.5L2378.5 1713L2355 1758L2334 1811L2321 1851.5L2308 1927.5L2305.5 1970.5L2308 2048L2314 2135.5L2321.5 2238Z" fill="#5F5F5F"/>
<path d="M3130 1998.5L3294.5 2301.5H3522L3434.5 2172L3381.5 2093.5L3311 1989L3233 1876L3182 1803.5L3134 1734.5L3102 1686L3057 1606.5L3024.5 1529L3013.5 1500L2998 1370L2990 1244L2985.5 1239.5L2985 1233.5H2982.5H2931.5L2931 1248.5L2930 1274.5L2927.5 1294L2922 1308L2914.5 1325L2913 1403.5V1471L2938 1590.5L2998 1718L3130 1998.5Z" fill="#5F5F5F"/>
<path d="M3024.5 1529L3013.5 1500L3026.5 1506L3038 1507.5L3068.5 1556L3116 1623L3182 1705L3281 1823.5L3356.5 1926L3409.5 1994.5L3534 2163.5L3622 2301.5H3522L3434.5 2172L3381.5 2093.5L3311 1989L3233 1876L3182 1803.5L3134 1734.5L3102 1686L3057 1606.5L3024.5 1529Z" fill="#4C4C4C"/>
<path d="M2863.5 1244L2987 1239.5L2980.5 1204L2987 1201H3015.5L3018 1181H3009.5H2980.5H2971L2963.5 1175V1169L2959.5 1139H2984V1112.5L2987 1041H3009.5L3004 1019.5H2944.5V1043L2937.5 1116L2936 1112.5L2928 1109.5H2920.5L2918 1117H2899L2875.5 1121.5L2866 1135L2857.5 1169H2828.5V1188H2857.5L2847.5 1229L2863.5 1244Z" fill="#5F5F5F"/>
<path d="M0 1144L508 1098.62L520 1097.11L515.5 1032.06L594 1027.02L532 1025L479.5 1030.04L474 1055.25L460 1060.3L456.5 1038.11H421.5L391 1044.16V1055.25L365 1060.3V1067.36L297.5 1074.92L264.5 1082.99H238L158 1095.09L48 1090.55L0 1095.09V1144Z" fill="#4A4A4A"/>
<path d="M321.5 1680.5L9.5 1779L0 1790.5V1619.5L321.5 1655.5V1680.5Z" fill="#D9D9D9"/>
<path d="M330 1728L322.454 1664L0 1773V1837L330 1728Z" fill="#232F3F"/>
<path d="M0 1744L439 1841L479.5 1854.5L561 1818.5L937.5 1648.5L927.5 1486.5L896 1498L890 1420L832 1429.5V1400.5L792.5 1367.5L762.5 1420L545.5 1476L498 1449H486.5L439 1486.5L0 1441V1744Z" fill="#D9D9D9"/>
<path d="M416 1844L398.458 1579.64V1563.29L0 1512V1747.05L357.86 1835.54L416 1844Z" fill="#232F3F"/>
<path d="M549.618 1555.05L889 1456.79V1420.38L832.937 1431.85V1402.92L792.391 1369L763.359 1420.38L543.111 1475.25L494.556 1448.31H487.048L436.491 1485.72L0 1441.33V1540.59H16.5186L50.0563 1532.11V1550.07H78.0878L90.6019 1540.59H122.638V1555.05H161.181L197.222 1550.07L189.213 1566.53H223.251L239.77 1555.05H267.801V1566.53L395.945 1578V1566.53L452.008 1550.07L494.556 1555.05L535.102 1540.59L549.618 1555.05Z" fill="#4C4C4C"/>
<path d="M833.093 1432.5L888 1419.5L860.047 1414.5L817.12 1360L794.158 1366.5L642.914 1352L624.445 1382L485.679 1410L68.8821 1372L-1 1419.5V1444L436.761 1491L491.669 1451C507.975 1460.33 541.585 1479 545.578 1479C549.571 1479 694.992 1441.67 767.204 1423L794.158 1372L830.098 1403.5L833.093 1432.5Z" fill="#1E1516"/>
<path d="M358 1838L352.5 1721H333L-1 1821.5V2048.5L339.5 1893V1838H358Z" fill="#464E57"/>
<path d="M-0.000685435 1142.5L519.999 1096L515.999 1032.5L594.999 1027.5L597.999 1076.5L609.999 1312.5L-1.50068 1425L-0.000685435 1142.5Z" fill="#D9D9D9"/>
<rect x="64.9043" y="1151.22" width="87" height="14.4827" transform="rotate(-5.5 64.9043 1151.22)" fill="#232F3F"/>
<rect x="264.904" y="1131.22" width="87" height="14.4827" transform="rotate(-5.5 264.904 1131.22)" fill="#232F3F"/>
<rect x="66.9043" y="1180.22" width="87" height="14.4827" transform="rotate(-5.5 66.9043 1180.22)" fill="#232F3F"/>
<rect x="266.904" y="1160.22" width="87" height="14.4827" transform="rotate(-5.5 266.904 1160.22)" fill="#232F3F"/>
<rect x="68.8398" y="1210.37" width="87" height="14.4827" transform="rotate(-7 68.8398 1210.37)" fill="#232F3F"/>
<rect x="268.84" y="1190.37" width="87" height="14.4827" transform="rotate(-7 268.84 1190.37)" fill="#232F3F"/>
<rect x="70.8135" y="1240.14" width="87" height="14.4827" transform="rotate(-8 70.8135 1240.14)" fill="#232F3F"/>
<rect x="270.813" y="1220.14" width="87" height="14.4827" transform="rotate(-8 270.813 1220.14)" fill="#232F3F"/>
<rect x="72.8135" y="1269.14" width="87" height="14.4827" transform="rotate(-8 72.8135 1269.14)" fill="#232F3F"/>
<rect x="272.813" y="1249.14" width="87" height="14.4827" transform="rotate(-8 272.813 1249.14)" fill="#232F3F"/>
<rect x="74.8135" y="1298.14" width="87" height="14.4827" transform="rotate(-8 74.8135 1298.14)" fill="#232F3F"/>
<rect x="274.813" y="1278.14" width="87" height="14.4827" transform="rotate(-8 274.813 1278.14)" fill="#232F3F"/>
<rect x="76.8135" y="1327.14" width="87" height="14.4827" transform="rotate(-8 76.8135 1327.14)" fill="#232F3F"/>
<rect x="276.813" y="1307.14" width="87" height="14.4827" transform="rotate(-8 276.813 1307.14)" fill="#232F3F"/>
<g clip-path="url(#clip1_517_32896)">
<rect x="-11.4951" y="1162.34" width="87" height="14.4827" transform="rotate(-5.5 -11.4951 1162.34)" fill="#232F3F"/>
<rect x="-11.4951" y="1189.09" width="87" height="14.4827" transform="rotate(-5.5 -11.4951 1189.09)" fill="#232F3F"/>
<rect x="-13.001" y="1221.6" width="87" height="14.4827" transform="rotate(-7 -13.001 1221.6)" fill="#232F3F"/>
<rect x="-13.001" y="1253.11" width="87" height="14.4827" transform="rotate(-8 -13.001 1253.11)" fill="#232F3F"/>
<rect x="-13.001" y="1281.11" width="87" height="14.4827" transform="rotate(-8 -13.001 1281.11)" fill="#232F3F"/>
<rect x="-13.001" y="1310.11" width="87" height="14.4827" transform="rotate(-8 -13.001 1310.11)" fill="#232F3F"/>
<rect x="-12.001" y="1340.11" width="87" height="14.4827" transform="rotate(-8 -12.001 1340.11)" fill="#232F3F"/>
</g>
<rect x="156.902" y="1143.2" width="81.545" height="14.4827" transform="rotate(-5.5 156.902 1143.2)" fill="#232F3F"/>
<rect x="356.902" y="1123.2" width="81.545" height="14.4827" transform="rotate(-5.5 356.902 1123.2)" fill="#232F3F"/>
<rect x="157.969" y="1172.47" width="81.545" height="14.4827" transform="rotate(-5.5 157.969 1172.47)" fill="#232F3F"/>
<rect x="357.969" y="1152.47" width="81.545" height="14.4827" transform="rotate(-5.5 357.969 1152.47)" fill="#232F3F"/>
<rect x="159.963" y="1198.82" width="81.545" height="14.4827" transform="rotate(-7 159.963 1198.82)" fill="#232F3F"/>
<rect x="359.963" y="1178.82" width="81.545" height="14.4827" transform="rotate(-7 359.963 1178.82)" fill="#232F3F"/>
<rect x="161.997" y="1226.81" width="81.545" height="14.4827" transform="rotate(-8 161.997 1226.81)" fill="#232F3F"/>
<rect x="361.997" y="1206.81" width="81.545" height="14.4827" transform="rotate(-8 361.997 1206.81)" fill="#232F3F"/>
<rect x="164.063" y="1256.08" width="81.545" height="14.4827" transform="rotate(-8 164.063 1256.08)" fill="#232F3F"/>
<rect x="364.063" y="1236.08" width="81.545" height="14.4827" transform="rotate(-8 364.063 1236.08)" fill="#232F3F"/>
<rect x="166.13" y="1285.36" width="81.545" height="14.4827" transform="rotate(-8 166.13 1285.36)" fill="#232F3F"/>
<rect x="366.13" y="1265.36" width="81.545" height="14.4827" transform="rotate(-8 366.13 1265.36)" fill="#232F3F"/>
<rect x="168.196" y="1314.63" width="81.545" height="14.4827" transform="rotate(-8 168.196 1314.63)" fill="#232F3F"/>
<rect x="368.196" y="1294.63" width="81.545" height="14.4827" transform="rotate(-8 368.196 1294.63)" fill="#232F3F"/>
<rect x="458.104" y="1113.82" width="81.545" height="14.4827" transform="rotate(-5.5 458.104 1113.82)" fill="#232F3F"/>
<rect x="458.104" y="1139.55" width="81.545" height="14.4827" transform="rotate(-5.5 458.104 1139.55)" fill="#232F3F"/>
<rect x="458.031" y="1167.4" width="81.545" height="14.4827" transform="rotate(-7 458.031 1167.4)" fill="#232F3F"/>
<rect x="457.999" y="1193.35" width="81.545" height="14.4827" transform="rotate(-8 457.999 1193.35)" fill="#232F3F"/>
<rect x="459.999" y="1221.35" width="81.545" height="14.4827" transform="rotate(-8 459.999 1221.35)" fill="#232F3F"/>
<rect x="459.999" y="1252.35" width="81.545" height="14.4827" transform="rotate(-8 459.999 1252.35)" fill="#232F3F"/>
<rect x="457.999" y="1281.35" width="81.545" height="14.4827" transform="rotate(-8 457.999 1281.35)" fill="#232F3F"/>
<path d="M624 1043.5C626.4 1043.9 662.667 1034.33 680.5 1029.5L686 1031L687.5 1050L700 1057L712 1276L603.5 1272.5L593 1047C602.333 1045.67 621.6 1043.1 624 1043.5Z" fill="#555555"/>
<path d="M665 1105V1092.31L699 1089V1102.79L665 1105Z" fill="#D9D9D9"/>
<path d="M664 1082V1069.31L698 1066V1079.79L664 1082Z" fill="#D9D9D9"/>
<path d="M665 1127V1114.31L699 1111V1124.79L665 1127Z" fill="#D9D9D9"/>
<path d="M667 1148V1135.31L701 1132V1145.79L667 1148Z" fill="#D9D9D9"/>
<path d="M669 1169V1156.31L703 1153V1166.79L669 1169Z" fill="#D9D9D9"/>
<path d="M671 1190V1177.31L705 1174V1187.79L671 1190Z" fill="#D9D9D9"/>
<path d="M671 1212V1199.31L705 1196V1209.79L671 1212Z" fill="#D9D9D9"/>
<path d="M671 1234V1221.31L705 1218L707 1231.5L671 1234Z" fill="#D9D9D9"/>
<path d="M671 1255V1242.31L709.5 1239.5L709 1252.5L671 1255Z" fill="#D9D9D9"/>
<path d="M664 1082V1069L596 1067.5L598 1079.5L664 1082Z" fill="#D9D9D9"/>
<path d="M665 1105V1092L597 1090.5L599 1102.5L665 1105Z" fill="#D9D9D9"/>
<path d="M666 1127V1114L598 1112.5L600 1124.5L666 1127Z" fill="#D9D9D9"/>
<path d="M667 1148V1135L599 1133.5L601 1145.5L667 1148Z" fill="#D9D9D9"/>
<path d="M669 1169V1156L601 1154.5L603 1166.5L669 1169Z" fill="#D9D9D9"/>
<path d="M671 1190V1177L603 1175.5V1187.5L671 1190Z" fill="#D9D9D9"/>
<path d="M671 1213V1200L603 1198.5V1210.5L671 1213Z" fill="#D9D9D9"/>
<path d="M671 1234V1221L603 1219.5V1231.5L671 1234Z" fill="#D9D9D9"/>
<path d="M671 1255V1242L603 1240.5V1252.5L671 1255Z" fill="#D9D9D9"/>
<path d="M694 1261L683 1066.5H691L701.5 1261H694Z" fill="#D9D9D9"/>
<path d="M762 1035.5C762.167 1046.5 762.8 1068.9 764 1070.5L964.5 1047.5L965.5 1039L865.5 1035.5L795.5 1034L762 1035.5Z" fill="#555555"/>
<rect x="769" y="1069.35" width="31" height="17" transform="rotate(-2.5 769 1069.35)" fill="#232F3F"/>
<rect width="26.6186" height="16.9957" transform="matrix(0.998709 -0.0507991 0.0374511 0.999298 876 1054.3)" fill="#232F3F"/>
<rect x="804" y="1066.35" width="31" height="17" transform="rotate(-2.5 804 1066.35)" fill="#232F3F"/>
<rect width="26.6186" height="19.1954" transform="matrix(0.998709 -0.0507991 0.0374511 0.999298 906.043 1051.3)" fill="#232F3F"/>
<rect x="837.83" y="1060.45" width="30.5538" height="20.9064" transform="rotate(-2.5 837.83 1060.45)" fill="#232F3F"/>
<rect width="25.554" height="19.3185" transform="matrix(0.998709 -0.0507991 0.0374511 0.999298 935.228 1049.3)" fill="#232F3F"/>
<rect x="769" y="1089.35" width="31" height="17" transform="rotate(-2.5 769 1089.35)" fill="#232F3F"/>
<rect width="26.6186" height="16.9957" transform="matrix(0.998709 -0.0507991 0.0374511 0.999298 876 1074.3)" fill="#232F3F"/>
<rect x="804" y="1086.35" width="31" height="17" transform="rotate(-2.5 804 1086.35)" fill="#232F3F"/>
<rect width="26.6186" height="18.5319" transform="matrix(0.998709 -0.0507991 0.0374511 0.999298 906.043 1071.3)" fill="#232F3F"/>
<rect x="838.817" y="1080.17" width="30.2011" height="21.1911" transform="rotate(-2.5 838.817 1080.17)" fill="#232F3F"/>
<rect width="25.9327" height="18.838" transform="matrix(0.998709 -0.0507991 0.0374511 0.999298 936.086 1069.3)" fill="#232F3F"/>
<rect x="771" y="1109.35" width="31" height="17" transform="rotate(-2.5 771 1109.35)" fill="#232F3F"/>
<rect width="26.6186" height="16.9957" transform="matrix(0.998709 -0.0507991 0.0374511 0.999298 877.717 1094.3)" fill="#232F3F"/>
<rect x="806" y="1106.35" width="31" height="17" transform="rotate(-2.5 806 1106.35)" fill="#232F3F"/>
<rect width="26.6186" height="20.4729" transform="matrix(0.998709 -0.0507991 0.0374511 0.999298 907 1089.35)" fill="#232F3F"/>
<rect x="840.861" y="1100.17" width="28.5758" height="20.1825" transform="rotate(-2.5 840.861 1100.17)" fill="#232F3F"/>
<rect width="24.5371" height="18.4982" transform="matrix(0.998709 -0.0507991 0.0374511 0.999298 937.803 1088.3)" fill="#232F3F"/>
<rect x="771.891" y="1128.84" width="32.4198" height="19.5159" transform="rotate(-2.5 771.891 1128.84)" fill="#232F3F"/>
<rect width="25.8226" height="16.9957" transform="matrix(0.998709 -0.0507991 0.0374511 0.999298 878 1113.31)" fill="#232F3F"/>
<path d="M807 1127.35L837.5 1124.5L838.712 1142.98L807.741 1144.34L807 1127.35Z" fill="#232F3F"/>
<rect width="27.3171" height="18.6254" transform="matrix(0.998709 -0.0507991 0.0374511 0.999298 908.303 1110.39)" fill="#232F3F"/>
<rect x="842" y="1121.24" width="28.5273" height="17" transform="rotate(-2.5 842 1121.24)" fill="#232F3F"/>
<rect width="24.4954" height="16.9957" transform="matrix(0.998709 -0.0507991 0.0374511 0.999298 938.661 1109.3)" fill="#232F3F"/>
<rect x="773" y="1152.35" width="30.4074" height="17" transform="rotate(-2.5 773 1152.35)" fill="#232F3F"/>
<rect width="13.7296" height="18.0254" transform="matrix(0.998709 -0.0507991 0.0374511 0.999298 891.613 1131.68)" fill="#232F3F"/>
<path d="M807.5 1147L839 1144.5L839.712 1164.98L808.742 1166.34L807.5 1147Z" fill="#232F3F"/>
<rect width="26.6186" height="19.6081" transform="matrix(0.998709 -0.0507991 0.0374511 0.999298 909 1129.35)" fill="#232F3F"/>
<path d="M842.931 1141.66L872 1139L872.073 1157.91L842.999 1158.97L842.931 1141.66Z" fill="#232F3F"/>
<path d="M939.542 1129.51L963.339 1126.91L963.432 1145.84L939.628 1146.84L939.542 1129.51Z" fill="#232F3F"/>
<rect x="774.913" y="1170.37" width="29.227" height="18.985" transform="rotate(-2.5 774.913 1170.37)" fill="#232F3F"/>
<path d="M892 1153L905.5 1150.5L907.5 1169L892 1169L892 1153Z" fill="#232F3F"/>
<path d="M808 1167.35L839 1165L839.755 1183.97L808.784 1185.32L808 1167.35Z" fill="#232F3F"/>
<rect width="26.6186" height="21.6865" transform="matrix(0.998709 -0.0507991 0.0374511 0.999298 910 1147.35)" fill="#232F3F"/>
<path d="M844.02 1162.08L873.541 1160.23L873.555 1176.95L844.036 1180.83L844.02 1162.08Z" fill="#232F3F"/>
<path d="M940.382 1148.21L963.554 1146.45L963.647 1163.9L940.485 1167.79L940.382 1148.21Z" fill="#232F3F"/>
<path d="M776 1194.07L805.874 1190.95L806.847 1207.5L776.741 1208.63L776 1194.07Z" fill="#232F3F"/>
<path d="M890 1172L906.658 1171L907.294 1185.56L888 1189.5L890 1172Z" fill="#232F3F"/>
<path d="M809.5 1186.5L840 1184.5L839.5 1202L810.5 1207L809.5 1186.5Z" fill="#232F3F"/>
<path d="M910 1170.5L938.072 1167L937 1186.51L911.892 1188.01L910 1170.5Z" fill="#232F3F"/>
<path d="M844.9 1181.65L873.468 1177.74L874.07 1197.16L845.5 1200.5L844.9 1181.65Z" fill="#232F3F"/>
<path d="M941.422 1166L964.577 1162L965.156 1182.44L941.998 1185.84L941.422 1166Z" fill="#232F3F"/>
<rect width="30.6881" height="13.1213" transform="matrix(0.999433 -0.0336583 0.0565136 0.998402 776 1211.9)" fill="#232F3F"/>
<rect width="16.1238" height="19.0014" transform="matrix(0.999231 -0.0392038 0.0485302 0.998822 892.967 1189.65)" fill="#232F3F"/>
<path d="M810.5 1207L842 1205L841 1221.5L810.906 1224L810.5 1207Z" fill="#232F3F"/>
<path d="M911.778 1190.5L936.242 1186.5L939 1202L911.778 1206L911.778 1190.5Z" fill="#232F3F"/>
<path d="M844.089 1202.72L875.453 1197.59L876.735 1215.32L844.195 1221.1L844.089 1202.72Z" fill="#232F3F"/>
<path d="M942.871 1186.87L965.665 1182.01L966.706 1199.26L943.06 1204.75L942.871 1186.87Z" fill="#232F3F"/>
<path d="M777 1226.98L806.935 1225.97L807.428 1237.97L777.741 1239.36L777 1226.98Z" fill="#232F3F"/>
<path d="M883.003 1207.98L907.896 1207L908.325 1219L883.64 1220.36L883.003 1207.98Z" fill="#232F3F"/>
<path d="M812.019 1227.81L840.759 1224.13L841.594 1238.06L812.113 1241.88L812.019 1227.81Z" fill="#232F3F"/>
<path d="M912.768 1207.37L937.454 1204L938.09 1216.37L912.768 1219.87L912.768 1207.37Z" fill="#232F3F"/>
<path d="M845.748 1221.82L875.627 1214.88L875.915 1232.4L846.055 1240.59L845.748 1221.82Z" fill="#232F3F"/>
<path d="M941.871 1203L966.127 1198L966.127 1210L941.871 1215.86L941.871 1203Z" fill="#232F3F"/>
<path d="M888.5 1037H867L875.5 1246.5L897 1240L888.5 1037Z" fill="#D9D9D9"/>
<path d="M876.124 1232L876.5 1245L728 1281.5L714 1030.5L768.5 1027L779.5 1245L876.124 1232Z" fill="#D9D9D9"/>
<path d="M905.5 1036.5H899.5L908 1223.5L913.5 1219.5L905.5 1036.5Z" fill="#D9D9D9"/>
<path d="M839 1052H833L841.5 1239L847 1235L839 1052Z" fill="#D9D9D9"/>
<path d="M804.5 1054.5H798.5L807 1241.5H812.5L804.5 1054.5Z" fill="#D9D9D9"/>
<path d="M936 1036H930L938 1221L944 1219L936 1036Z" fill="#D9D9D9"/>
<path d="M964 1035H958L966 1216L971.5 1213.5L964 1035Z" fill="#D9D9D9"/>
<path d="M972 1220.5L971 1208.5L895 1220.5L896.5 1240L972 1220.5Z" fill="#D9D9D9"/>
<path d="M806.5 1224L778 1225V1228L806.5 1226.5V1224Z" fill="#D9D9D9"/>
<path d="M806 1207L777 1208.5V1213L806 1210.75V1207Z" fill="#D9D9D9"/>
<path d="M805 1188L776 1189.5V1194L805 1191.75V1188Z" fill="#D9D9D9"/>
<path d="M804 1167L775 1168.5V1173L804 1170.75V1167Z" fill="#D9D9D9"/>
<path d="M803 1147L774 1148.5V1153L803 1150.75V1147Z" fill="#D9D9D9"/>
<path d="M802 1124L772 1126V1132L802 1129V1124Z" fill="#D9D9D9"/>
<path d="M802 1105L771 1106.5V1111L802 1108.75V1105Z" fill="#D9D9D9"/>
<path d="M801 1085L770 1086.5V1091L801 1088.75V1085Z" fill="#D9D9D9"/>
<path d="M801 1065L769 1066.5V1071L801 1068.75V1065Z" fill="#D9D9D9"/>
<path d="M800 1054L768 1055.5V1060L800 1057.75V1054Z" fill="#D9D9D9"/>
<path d="M728 1281.5L713.5 1030.5L682.5 1028L684 1053.5L695.5 1059L708 1274L728 1281.5Z" fill="#232F3F"/>
<path d="M807 1237L779 1239.25V1246L807 1242.62V1237Z" fill="#D9D9D9"/>
<path d="M805 1067.5C804.833 1066.33 804.5 1063.9 804.5 1063.5L834 1061V1065.5L805 1067.5Z" fill="#D9D9D9"/>
<path d="M837.542 1062C837.362 1060.92 837 1058.68 837 1058.31L869 1056V1060.15L837.542 1062Z" fill="#D9D9D9"/>
<path d="M805.5 1087.5C805.333 1086.33 805 1083.9 805 1083.5L834.5 1081.5V1085.5L805.5 1087.5Z" fill="#D9D9D9"/>
<path d="M838.542 1082C838.362 1080.83 838 1078.4 838 1078L870 1076V1080L838.542 1082Z" fill="#D9D9D9"/>
<path d="M806.5 1107.5C806.333 1106.33 806 1103.9 806 1103.5L835.5 1101.5V1105.5L806.5 1107.5Z" fill="#D9D9D9"/>
<path d="M839.542 1102C839.362 1100.83 839 1098.4 839 1098L871 1096V1100L839.542 1102Z" fill="#D9D9D9"/>
<path d="M807.5 1127.5C807.333 1126.33 807 1123.9 807 1123.5L836.5 1121.5V1125.5L807.5 1127.5Z" fill="#D9D9D9"/>
<path d="M840.542 1122C840.362 1120.83 840 1118.4 840 1118L872 1116V1120L840.542 1122Z" fill="#D9D9D9"/>
<path d="M808.5 1147.5C808.333 1146.33 808 1143.9 808 1143.5L837.5 1141.5V1145.5L808.5 1147.5Z" fill="#D9D9D9"/>
<path d="M841.542 1143C841.362 1141.64 841 1138.8 841 1138.33L873 1136V1140.67L841.542 1143Z" fill="#D9D9D9"/>
<path d="M809.5 1167.5C809.333 1166.33 809 1163.9 809 1163.5L838.5 1161.5V1165.5L809.5 1167.5Z" fill="#D9D9D9"/>
<path d="M842.542 1163C842.362 1161.83 842 1159.4 842 1159L874 1157V1161L842.542 1163Z" fill="#D9D9D9"/>
<path d="M810 1187C809.833 1185.83 810 1183.9 810 1183.5L839.5 1181.5V1185.5L810 1187Z" fill="#D9D9D9"/>
<path d="M843.08 1182C842.9 1180.94 843.08 1179.18 843.08 1178.82L875 1177V1180.64L843.08 1182Z" fill="#D9D9D9"/>
<path d="M811 1207.5C810.833 1206.33 811 1203.9 811 1203.5L840.5 1201.5V1205.5L811 1207.5Z" fill="#D9D9D9"/>
<path d="M844.08 1203C843.9 1201.83 844.08 1199.4 844.08 1199L876 1197V1201L844.08 1203Z" fill="#D9D9D9"/>
<path d="M810.5 1228C810.333 1226.83 810 1224.4 810 1224L841.5 1221V1226L810.5 1228Z" fill="#D9D9D9"/>
<path d="M843.54 1223C843.36 1221.83 843 1219.4 843 1219L877 1216V1221L843.54 1223Z" fill="#D9D9D9"/>
<path d="M872.347 1056.59C872.129 1055.52 871.689 1053.28 871.676 1052.92L903.576 1049.49L903.721 1053.64L872.347 1056.59Z" fill="#D9D9D9"/>
<path d="M873.028 1076.07C872.806 1074.91 872.36 1072.5 872.346 1072.1L904.257 1068.98L904.396 1072.98L873.028 1076.07Z" fill="#D9D9D9"/>
<path d="M873.708 1095.56C873.487 1094.4 873.041 1091.98 873.027 1091.58L904.938 1088.47L905.077 1092.47L873.708 1095.56Z" fill="#D9D9D9"/>
<path d="M874.389 1115.05C874.168 1113.89 873.721 1111.47 873.707 1111.07L905.618 1107.96L905.758 1111.95L874.389 1115.05Z" fill="#D9D9D9"/>
<path d="M875.105 1135.54C874.877 1134.18 874.416 1131.36 874.4 1130.89L906.299 1127.44L906.462 1132.11L875.105 1135.54Z" fill="#D9D9D9"/>
<path d="M875.785 1155.03C875.563 1153.87 875.117 1151.45 875.103 1151.05L907.014 1147.93L907.153 1151.93L875.785 1155.03Z" fill="#D9D9D9"/>
<path d="M875.968 1173.53C875.751 1172.48 875.87 1170.72 875.857 1170.35L907.694 1167.42L907.821 1171.05L875.968 1173.53Z" fill="#D9D9D9"/>
<path d="M876.649 1193.02C876.428 1191.86 876.523 1189.42 876.509 1189.02L908.34 1185.91L908.479 1189.91L876.649 1193.02Z" fill="#D9D9D9"/>
<path d="M876.825 1213.53C876.604 1212.37 876.16 1209.95 876.146 1209.55L910.02 1205.36L910.195 1210.36L876.825 1213.53Z" fill="#D9D9D9"/>
<path d="M902.347 1054.59C902.129 1053.52 901.689 1051.28 901.676 1050.92L933.576 1047.49L933.721 1051.64L902.347 1054.59Z" fill="#D9D9D9"/>
<path d="M903.028 1074.07C902.806 1072.92 902.36 1070.5 902.346 1070.1L934.257 1066.98L934.396 1070.98L903.028 1074.07Z" fill="#D9D9D9"/>
<path d="M933.028 1072.07C932.806 1070.92 932.36 1068.5 932.346 1068.1L964.257 1064.98L964.396 1068.98L933.028 1072.07Z" fill="#D9D9D9"/>
<path d="M903.708 1093.56C903.487 1092.4 903.041 1089.98 903.027 1089.58L934.938 1086.47L935.077 1090.47L903.708 1093.56Z" fill="#D9D9D9"/>
<path d="M933.708 1091.56C933.487 1090.4 933.041 1087.98 933.027 1087.58L964.938 1084.47L965.077 1088.47L933.708 1091.56Z" fill="#D9D9D9"/>
<path d="M904.389 1113.05C904.168 1111.89 903.721 1109.47 903.707 1109.07L935.618 1105.96L935.758 1109.95L904.389 1113.05Z" fill="#D9D9D9"/>
<path d="M934.389 1111.05C934.168 1109.89 933.721 1107.47 933.707 1107.07L965.618 1103.96L965.758 1107.95L934.389 1111.05Z" fill="#D9D9D9"/>
<path d="M905.104 1133.54C904.876 1132.18 904.415 1129.36 904.399 1128.89L936.298 1125.44L936.461 1130.11L905.104 1133.54Z" fill="#D9D9D9"/>
<path d="M935.104 1131.54C934.876 1130.18 934.415 1127.36 934.399 1126.89L966.298 1123.44L966.461 1128.11L935.104 1131.54Z" fill="#D9D9D9"/>
<path d="M905.785 1153.03C905.563 1151.87 905.117 1149.45 905.103 1149.05L937.014 1145.93L937.153 1149.93L905.785 1153.03Z" fill="#D9D9D9"/>
<path d="M935.785 1151.03C935.563 1149.87 935.117 1147.45 935.103 1147.05L967.014 1143.93L967.153 1147.93L935.785 1151.03Z" fill="#D9D9D9"/>
<path d="M905.968 1171.53C905.751 1170.48 905.87 1168.72 905.857 1168.35L937.694 1165.42L937.821 1169.05L905.968 1171.53Z" fill="#D9D9D9"/>
<path d="M935.968 1169.53C935.751 1168.48 935.87 1166.72 935.857 1166.35L967.694 1163.42L967.821 1167.05L935.968 1169.53Z" fill="#D9D9D9"/>
<path d="M906.649 1191.02C906.428 1189.86 906.523 1187.42 906.509 1187.02L938.34 1183.91L938.479 1187.91L906.649 1191.02Z" fill="#D9D9D9"/>
<path d="M936.649 1189.02C936.428 1187.86 936.523 1185.42 936.509 1185.02L968.34 1181.91L968.479 1185.91L936.649 1189.02Z" fill="#D9D9D9"/>
<path d="M908.784 1209.16C908.563 1208 908.119 1205.58 908.105 1205.18L941.979 1201L942.154 1206L908.784 1209.16Z" fill="#D9D9D9"/>
<path d="M938.784 1207.16C938.563 1206 938.119 1203.58 938.105 1203.18L971.979 1199L972.154 1204L938.784 1207.16Z" fill="#D9D9D9"/>
<path d="M1305 1206L1690 1101.5L1703 1059L1377 1151L1365.5 1144L146.5 1399H371L717 1324.5L1305 1206Z" fill="#939393"/>
<path d="M987 1225.5L1366.5 1144L1307.5 1142L1281 1146.5L1249.5 1149.5L1222 1156L1213 1146.5L966 1191.5L971 1218.5L864 1248L987 1225.5Z" fill="white"/>
<path d="M2997 1152.5L3074.5 1143L3081.72 1055.5L2997 1053.5V1152.5Z" fill="#847976"/>
<path d="M2997 1152.5L3074.5 1143L3081.72 1055.5L2997 1053.5V1152.5Z" fill="#736D6B"/>
<path d="M2983 1137.5C2987.17 1142 2997.1 1152 2997.5 1152V1053.5L2986 1037.5L2983 1137.5Z" fill="#827D7D"/>
<path d="M2997.5 1054C3025.33 1054.5 3081.2 1055.6 3082 1056L3083 1043C3070 1042.67 3043.9 1042 3043.5 1042C3043.1 1042 3042.67 1035.67 3042.5 1032.5H3009V1040L2986 1037.5L2997.5 1054Z" fill="#D9D9D9"/>
<path d="M2988 1213.5C3013.67 1230.33 3065.4 1264.2 3067 1265L3080 1139.5L3001.5 1151L2986.5 1135C2977.33 1134.83 2958.4 1134.6 2956 1135C2953.6 1135.4 2957 1162.17 2959 1175.5C2962.17 1178.17 2968.7 1183.5 2969.5 1183.5H3015V1200H2975L2984.5 1245H2992.5L2988 1213.5Z" fill="#403B1D"/>
<path d="M2592 1270L2551 1318H2594.5V1287.5L2654 1302.5L2625 1316.5L2599 1332L2602.5 1334.5L2657 1308L2680.5 1292.5L2654 1287.5L2592 1270Z" fill="#2B2F2E"/>
<path d="M2593 1318V1286.5L2658.5 1302L2622.5 1318H2593Z" fill="#985B01"/>
<path d="M1605.5 1300.5L1611.5 1272.5L1383.5 1284L1459 1311L1605.5 1300.5Z" fill="#393939"/>
<path d="M0.5 1003.5V1056V1069L85.5 1098L294.5 1073.5L290 997L263 1000V1007L107 1015H79L13 1013V1003.5H0.5Z" fill="#727272"/>
<path d="M293 1044.5C301.833 1043.17 335.3 1038.6 398.5 1031L386 995.5H264.5L241.5 993H230L172 984.5L169.5 981.5L143 978.5L152 984.5V993H120.5L10 1009.5V1017.5L293 1044.5Z" fill="#D1C5B9"/>
<path d="M286 1070.5H373.5L375 1072L319.5 1078L263 1087.5H239.5L158 1101L35.5 1094L-0.5 1106V1055H50L184 1058.5L190.5 1050L213 1065.5L233 1062.5V1016H282.5L286 1070.5Z" fill="#412E2A"/>
<path d="M591.5 863.5L599.5 1036.5L602.5 1054L490.5 1036.5L483 863.5H591.5Z" fill="#B8B8B8"/>
<path d="M487.5 863.5C487.5 863.5 492.167 979.833 492 1038L383 1024.5L378 861.5C412.5 862.167 487.5 863.5 487.5 863.5Z" fill="#777777"/>
<path d="M3803 1528.45L3808 1525.85L3805.5 1522.2L3796.5 1519.6L3773.5 1498.79L3753 1503.99L3757 1511.8C3752 1514.05 3741.8 1518.77 3741 1519.6C3740.2 1520.43 3734.67 1516.13 3732 1513.88H3662L3654.5 1507.63L3673.5 1493.58C3657.33 1493.41 3624.5 1493.17 3622.5 1493.58C3620.5 1494 3596.33 1475.37 3584.5 1466L3544.5 1485.78L3529 1473.29L3525 1534.69L3549 1564.88C3557.17 1566.27 3573.8 1569.04 3575 1569.04C3576.2 1569.04 3585.17 1570.08 3589.5 1570.6C3605.83 1571.47 3638.9 1573.52 3640.5 1574.77C3642.1 1576.01 3645.5 1580.14 3647 1582.05L3659 1591.94H3699L3709 1600.79H3713L3725.5 1607.55L3799.5 1619L3803 1528.45Z" fill="#180C0C"/>
<path d="M3803 1505H3787L3777.5 1479.5L3738 1475.5L3715 1460L3701 1463.5L3586.5 1455L3575 1458L3569 1450L3526 1471L3531.5 1479.5H3536L3545.5 1491.5L3572 1479.5L3569 1474L3582 1469.5C3593 1477.83 3615.5 1494.5 3617.5 1494.5C3619.5 1494.5 3650.67 1497.17 3666 1498.5L3649 1505L3660.5 1515C3682.83 1515.17 3728 1515.4 3730 1515C3732 1514.6 3736.17 1519.83 3738 1522.5L3760 1511.5L3756 1505L3771.5 1501L3800.5 1524.5L3808 1522.5L3803 1505Z" fill="#22292F"/>
<path d="M342 997L327.5 759.5L433.5 762L428.5 1006L342 997Z" fill="#282226"/>
<path d="M344.5 996L329 760.5L197 758.5L211 991.5L344.5 996Z" fill="#826957"/>
<path d="M-0.5 898.5L0 866.5H207.5L209.5 898.5L199 894.5L188 898.5L178.5 906.5H157.5L154.5 894.5L147 887.5L133.5 890L119.5 901.5L103 898.5L83 901.5L76 896.5L50 898.5L36 906.5L29 896.5L11.5 901.5L4 892.5L-0.5 898.5Z" fill="#BC8700"/>
<path d="M3824 1935.5L3828.5 1860.5L3835 1855C3847 1869.5 3871 1898.6 3871 1899C3871 1899.4 3899 1886.5 3913 1880C3928 1890.33 3959 1911.3 3963 1912.5C3967 1913.7 4023 1928.33 4050.5 1935.5L4100.5 1988L4096 2137L4064 2125.5L3999 2041L3906 2032.5L3871 1972.5L3850.5 1935.5H3824Z" fill="#180C0C"/>
<path d="M3870.5 1910.5L3822.5 1853.5L3885.5 1814.5L3923 1840C3979 1846.5 4092.2 1859.7 4097 1860.5C4101.8 1861.3 4099 1954.83 4097 2001.5L4050.5 1939.5L3958.5 1918L3910 1884.5L3870.5 1910.5Z" fill="#22292F"/>
<path d="M3466 1462.5L3464 1402H3462.5L3434.5 1396L3398.5 1407L3392.5 1431L3464 1483.5L3466 1462.5Z" fill="#180C0C"/>
<path d="M3462 1524.5L3464 1501L3462 1499L3416 1496.5L3462 1524.5Z" fill="#6F6255"/>
<path d="M3421 1499.5L3467.5 1502.5L3464.5 1475H3451L3447.5 1467L3444.5 1454H3433L3429.5 1443.5V1433H3415.5L3413.5 1419.5H3403L3413.5 1407L3421 1415.5L3429.5 1402.5L3440 1411L3467.5 1400L3417.5 1352L3389.5 1359C3387.9 1359.4 3381.83 1352.5 3379 1349L3364 1355H3351.5L3283 1383L3351.5 1475H3379L3421 1499.5Z" fill="#22292F"/>
<path d="M3902 1600.73C3903.38 1599.78 3909.87 1592.08 3912.94 1588.35H3897.97C3896.58 1588.35 3893.17 1579.7 3891.63 1575.38V1558.87C3891.63 1551.21 3895.66 1547.08 3894.51 1540.01C3893.36 1532.93 3894.51 1534.11 3895.66 1529.98C3896.81 1525.86 3897.97 1519.96 3897.97 1514.66C3897.97 1510.41 3900.65 1507.78 3902 1506.99L3897.97 1489.31C3900.85 1489.11 3907.87 1488.36 3912.94 1486.95C3918.01 1485.53 3913.13 1480.86 3910.06 1478.7C3910.06 1476.34 3912.25 1471.62 3921 1471.62C3931.94 1471.62 3937.13 1474.57 3943.46 1478.7C3949.8 1482.82 3959.59 1476.93 3966.5 1474.57C3972.03 1472.68 3978.01 1470.25 3980.32 1469.26H3994.72H4011.42H4036.18L4050 1471.62L4044.82 1464.55C4042.32 1460.62 4036.64 1452.76 4033.88 1452.76C4030.42 1452.76 4022.93 1453.35 4018.9 1452.76C4014.87 1452.17 4010.26 1448.63 4006.23 1446.27C4002.2 1443.91 3999.9 1440.38 3994.72 1436.25C3989.53 1432.12 3982.62 1428 3976.29 1428C3969.95 1428 3966.5 1430.95 3959.59 1436.25C3952.68 1441.56 3946.34 1430.95 3943.46 1430.95C3941.16 1430.95 3938.28 1424.66 3937.13 1421.51L3946.34 1408.54L3937.13 1403.24L3925.03 1390.27C3921 1385.75 3912.36 1376.24 3910.06 1374.35C3907.18 1371.99 3902 1374.35 3899.69 1376.71C3897.85 1378.6 3883.57 1370.42 3876.66 1366.1L3867.44 1369.05L3843.83 1374.35C3838.65 1371.99 3827.71 1367.04 3825.41 1366.1C3823.1 1365.16 3815.62 1371.21 3812.16 1374.35C3811.2 1382.41 3808.24 1399.47 3804.1 1403.24C3799.95 1407.01 3793.54 1416.99 3790.85 1421.51L3778.76 1430.95C3776.84 1438.41 3773 1454.29 3773 1458.06C3773 1461.84 3781.06 1468.67 3785.09 1471.62L3773 1493.43V1506.99L3785.09 1524.09H3800.07V1530.57V1542.36C3799.11 1544.92 3797.19 1550.85 3797.19 1554.15V1566.53C3797.19 1569.83 3799.11 1578.52 3800.07 1582.45L3817.92 1575.38L3834.62 1582.45L3850.17 1588.35L3861.11 1597.19C3868.4 1604.46 3883.68 1619 3886.45 1619C3889.21 1619 3891.06 1613.1 3891.63 1610.16C3894.51 1607.41 3900.62 1601.67 3902 1600.73Z" fill="#3A481F"/>
<path d="M4095.5 1633.5V1571.5L4087.5 1564.5L4076.5 1531C4067.5 1530.17 4049.2 1528.4 4048 1528C4046.8 1527.6 4044.5 1519.83 4043.5 1516L4055.5 1511.5L4048 1498L4032 1514.5L4018.5 1504L3972 1502L3977.5 1509.5C3962.33 1508.33 3931.4 1506.1 3929 1506.5C3926.6 1506.9 3914.67 1496 3909 1490.5L3890.5 1492L3882.5 1480L3874.5 1553.5L3885 1567.5H3902.5L3922.5 1583.5H3968.5L4015 1576L4043.5 1597.5L4055.5 1600L4095.5 1633.5Z" fill="#180C0C"/>
<path d="M4086 1567.5C4088.5 1568.83 4093.9 1571.5 4095.5 1571.5V1487.5L4093 1478H4055.5L4040.5 1464L3965 1461.5L3923.5 1469L3898.5 1465.5L3892 1469L3896 1478L3882 1480L3887 1494L3906 1492.5L3928 1508L3982 1511.5L3977.5 1505.5H4012.5L4033 1518L4045.5 1503L4050.5 1511.5H4040L4045.5 1532L4073 1533.5L4086 1567.5Z" fill="#22292F"/>
<path d="M3827 1859V1912.5L3793 1920.5C3793.67 1917.83 3795.6 1910.8 3798 1904C3801 1895.5 3798 1894.5 3798 1887V1864C3798 1857.5 3800.5 1852 3798 1845.5C3795.5 1839 3789 1840.5 3787.5 1838.5C3786.3 1836.9 3784.33 1826.83 3783.5 1822L3771 1812.5C3772 1808.33 3773.4 1798.9 3771 1794.5C3768 1789 3763 1790 3759 1787C3755 1784 3761.5 1776 3759 1770C3756.5 1764 3743 1754 3739.5 1754C3736 1754 3746 1742 3746 1737.5C3746 1733 3739 1722 3736.5 1719C3734 1716 3733 1709.5 3733 1703.5C3733 1697.5 3735 1690.5 3733 1686C3731.4 1682.4 3725 1677.17 3722 1675V1657.5L3711.5 1645.5L3698.5 1633.5C3698.83 1629.5 3699.3 1620.6 3698.5 1617C3697.5 1612.5 3700 1609.5 3703 1608.5C3705.4 1607.7 3712.67 1606.17 3716 1605.5L3722 1590C3729 1590.33 3743.6 1590.8 3746 1590C3749 1589 3755 1579 3756 1573.5C3756.8 1569.1 3758.33 1571.67 3759 1573.5L3780 1570.5L3783.5 1558.5C3789.83 1555.5 3803.2 1548.9 3806 1546.5C3808.8 1544.1 3817.83 1547.5 3822 1549.5C3828.5 1551.83 3843 1556.9 3849 1558.5C3856.5 1560.5 3858 1570.5 3861 1573.5C3864 1576.5 3866.5 1586.5 3874 1586.5C3880 1586.5 3881.5 1577.83 3881.5 1573.5C3885.5 1572 3894.2 1569.3 3897 1570.5C3900.5 1572 3897 1584 3893.5 1586.5C3890.7 1588.5 3894.67 1596 3897 1599.5L3916 1605.5C3916.5 1611.17 3917.2 1623 3916 1625C3914.8 1627 3912.83 1631.5 3912 1633.5L3905.5 1642L3925.5 1651C3930.33 1652.5 3940 1655.9 3940 1657.5V1665.5C3940 1666.7 3943.67 1669.67 3945.5 1671L3949 1682L3936 1686L3949 1694.5V1709.5C3951.17 1711.67 3955.5 1716.6 3955.5 1719C3955.5 1721.4 3951.17 1725 3949 1726.5L3940 1737.5L3955.5 1742C3957.83 1741.5 3963 1740.8 3965 1742C3967 1743.2 3968.83 1750.5 3969.5 1754C3967 1757.17 3961.3 1763.7 3958.5 1764.5C3955.7 1765.3 3964.67 1768.5 3969.5 1770L3975 1778L3958.5 1783.5L3969.5 1787L3980.5 1833L3975 1859L3931 1845.5L3887 1822L3827 1859Z" fill="#293211"/>
<path d="M4007.5 1816.5L3997 1844.5V1852L4101.5 1862.5L4094.5 1747.5H4082.5C4073.33 1747.67 4053.9 1748.9 4049.5 1752.5C4044 1757 4024.5 1788.5 4022.5 1793C4020.9 1796.6 4011.83 1810.17 4007.5 1816.5Z" fill="#846D01"/>
<path d="M4024 1814C4023.6 1818.4 4005.67 1851 3996.5 1861H3992H3977L3967 1849.5C3966.17 1843.5 3965 1829.9 3967 1823.5C3969.5 1815.5 3961.5 1794.5 3956.5 1790C3952.5 1786.4 3944.83 1771.17 3941.5 1764L3938 1729.5L3932 1700.5L3941.5 1672.5L3920.5 1651.5V1636.5L3932 1620.5C3938 1616.83 3951.3 1607.9 3956.5 1601.5C3961.7 1595.1 3972.33 1587.83 3977 1585L4017.5 1576.5H4034L4061 1596C4066.83 1599.83 4079.3 1607.9 4082.5 1609.5C4085.7 1611.1 4094.5 1617.5 4098.5 1620.5V1641L4093 1749.5C4082.33 1756.83 4061 1772.3 4061 1775.5C4061 1779.5 4046.5 1794.5 4038.5 1799C4030.5 1803.5 4024.5 1808.5 4024 1814Z" fill="#4C4A11"/>
<path d="M3640.34 1645.55C3670.74 1665.86 3731.93 1706.58 3733.52 1707L3740 1683.89L3725.55 1668.14L3722.56 1642.93L3704.12 1630.85V1611.42L3731.53 1602.49L3725.55 1590.94L3710.1 1582.53L3695.65 1574.65H3657.28L3643.83 1569.93L3604.46 1561L3607.95 1577.28L3619.41 1599.34L3624.89 1615.09L3593 1633.47C3603.63 1633.3 3625.29 1633.05 3626.88 1633.47C3628.48 1633.89 3636.52 1641.7 3640.34 1645.55Z" fill="#585A5B"/>
<path d="M3619.5 1629L3598.5 1632L3564.5 1621L3457 1525.5L3462.5 1503V1475L3489.5 1464L3530.5 1467L3535.5 1477.5L3530.5 1494.5V1530L3556 1557.5L3604 1562L3608 1573.5L3629 1609.5V1624.5L3619.5 1629Z" fill="#585A5B"/>
<path d="M3784.5 1433.5L3798 1422L3791 1396L3854 1378L3834 1357C3827 1357.5 3812.8 1358.8 3812 1360C3811.2 1361.2 3782.67 1372.5 3768.5 1378L3748.5 1374.5L3745.5 1369.5L3726 1366L3717 1357L3702 1352L3666 1304.5L3634 1286L3575.5 1311L3532 1331L3518.5 1315L3510.5 1328.5L3491 1307L3466 1340.5L3416 1337V1357L3454.5 1364.5L3469 1352L3572 1368L3585.5 1340.5L3594.5 1339L3592 1316.5L3610 1307L3627 1326L3646.5 1331L3642 1307H3653.5C3664.33 1322.67 3686.8 1354.6 3690 1357C3693.2 1359.4 3707.67 1398 3714.5 1417L3726 1427.5L3739 1392L3748.5 1404L3759 1405.5L3752.5 1460.5L3766 1473L3759 1483H3780.5L3795.5 1466L3780.5 1453.5L3784.5 1433.5Z" fill="#180C0C"/>
<path d="M3785.5 1410.5L3789.5 1423L3795 1429.5L3934 1439L3953.5 1429.5L3974.5 1443L3993 1441.5L3984 1419H3963.5L3956.5 1392.5L3909.5 1394L3890.5 1380L3874 1371.5V1364L3860 1342.5H3882L3872 1336L3920.5 1339.5L3886 1312L3818.5 1309.5L3760 1283L3625.5 1280L3598.5 1263L3552 1286L3500.5 1283L3491.5 1296L3453.5 1277.5L3358.5 1298.5L3397.5 1343.5L3469 1346.5L3485 1332.5L3495 1313.5C3500.17 1321.67 3510.8 1338.3 3512 1339.5C3513.2 1340.7 3517.17 1328 3519 1321.5L3535.5 1343.5L3544.5 1336L3572 1361L3583 1339.5L3548.5 1324L3578 1326.5L3579.5 1319L3635.5 1291.5L3660 1307L3696 1356.5L3704 1355.5L3726 1372.5L3739.5 1371.5C3741.5 1373.67 3745.7 1378.4 3746.5 1380C3747.3 1381.6 3765.5 1380.67 3774.5 1380L3779 1383.5C3793.5 1376 3822.7 1361 3823.5 1361C3824.3 1361 3836.5 1368.67 3842.5 1372.5L3817 1381.5L3772 1394L3740 1388.5L3757.5 1403H3767.5L3779 1415.5L3785.5 1410.5Z" fill="#22292F"/>
<path d="M3883 1301.5L3891.5 1209.5L3908 1204L3921.5 1220.5L3945.5 1224L3952 1216L3966 1224V1230.5L4096.5 1232.5V1319.5L3952 1313L3910.5 1310.5L3883 1301.5Z" fill="#939393"/>
<path d="M3962.5 1234H4095.5V1210.5L3908 1204L3920 1224.5H3947.5L3953 1219.5L3960.5 1224.5L3962.5 1234Z" fill="#22292F"/>
<path d="M3829 1236L3838 1106H3897C3906.5 1101.83 3925.9 1093.5 3927.5 1093.5C3929.1 1093.5 3989.17 1101.83 4019 1106L4021.5 1093.5L4095.5 1101V1213.5L3909.5 1206.5L3892.5 1213.5L3889 1299.5C3895.83 1301.5 3911.2 1305.6 3918 1306C3924.8 1306.4 3917.5 1316.83 3913 1322L3838 1319.5C3836.83 1305 3834.6 1275.5 3835 1273.5C3835.4 1271.5 3818.17 1264.67 3809.5 1261.5V1229L3829 1236Z" fill="#3A481F"/>
<path d="M930 946L596 963V976.5L931.5 960L930 946Z" fill="#939393"/>
<path d="M931.5 969.5C839 973.833 650.7 982.5 637.5 982.5L651 995L931.5 982.5V969.5Z" fill="#232F3F"/>
<path d="M824.5 939.5L821.5 886.5L868 889.5V879H877.5C879.5 879 881 884 881.5 886.5L900.5 883.5L919 886.5L921.5 915.5H904.5L900.5 925L884.5 912L868 915.5L843 928V939.5H824.5Z" fill="#777777"/>
<path d="M694 899V854.5H698.5L700.5 899H694Z" fill="#F4856A"/>
<path d="M717 896.5V853H721.5L724 896.5H717Z" fill="#F4856A"/>
<path d="M1280 569L1285 1146L1270 1147.5L1258.5 1145V1128.5L1235.5 1118.5V1093L1226 1090L1212.5 596L1280 569Z" fill="#636363"/>
<path d="M1284.5 1146.5L1279.5 569L1408.5 591.5L1424 1140L1372.5 1153L1356.5 1146.5H1284.5Z" fill="#999999"/>
<path d="M1278.5 572.5V565.5L1290 562.5L1396 565.5V592L1278.5 572.5Z" fill="#8E8E8E"/>
<path d="M1416 1142L1396.5 590.5L1508.5 596L1518 1112L1416 1142Z" fill="#CACACA"/>
<path d="M1567 572.5L1394.5 579V593L1509 597L1567 604.5V572.5Z" fill="#C5C5C5"/>
<path d="M1567 604.5V572.5L1609.5 581L1610.5 615.5L1567 604.5Z" fill="#D9D9D9"/>
<path d="M1566 603L1610 614.5L1617.5 1084L1517.5 1112L1507.5 596L1566 603Z" fill="#D9D9D9"/>
<path d="M1749.5 883L1745 540H1787L1792 900.5L1749.5 883Z" fill="#6A6A6A"/>
<path d="M1792 900L1786.5 540L1795 538.5V527.5L1817 520.5L1818 499L1833.5 491.5L1844.5 900H1792Z" fill="#484848"/>
<path d="M1867.5 493.5L1833 492L1840 898.5L1855 911L1861 1064L1994 1068V533.5H1922.5L1921.5 523L1868.5 519L1867.5 493.5Z" fill="#7D7D7D"/>
<path d="M2023.5 544L1993.5 534H1993V1070L2023.5 1071.5V544Z" fill="#C5C5C5"/>
<path d="M1807 268V309.973H1798.1L1797 341.5L1806 344.5V361.5L1813 365L1819.5 500.5L1818 522.5L1806 525L1795.5 528V539.5L1786.5 541H1781L1785 289.5L1791.65 291.718L1791.57 262L1807 268Z" fill="#576D74"/>
<path d="M1817 353C1817.4 353 1820.17 354.667 1821.5 355.5L1820 333L1810.5 333.5V302H1802.5L1801.5 310H1790L1789.5 312.5L1797 315.5V344H1803.5V355H1807C1810.17 354.167 1816.6 353 1817 353Z" fill="#A7A7A7"/>
<path d="M1750 234.214V191L1723 192.179V235L1750 234.214Z" fill="#486067"/>
<path d="M1740 288V233L1710 234.5V289L1740 288Z" fill="#41575E"/>
<path d="M1706 292.5V254L1718.5 258L1719.5 266H1712L1708 271V292.5H1706Z" fill="#313A45"/>
<path d="M1744.5 250V229.5L1757 235V250H1744.5Z" fill="#313A45"/>
<path d="M1750 237V191L1763 198.5V233L1750 237Z" fill="#313A45"/>
<path d="M1792 277V262L1775 264.586V268.207L1792 277Z" fill="#313A45"/>
<path d="M1706 309V254L1679 255.5V310L1706 309Z" fill="#506C74"/>
<path d="M1745 284V229L1715 230.5V285L1745 284Z" fill="#486067"/>
<path d="M1763 268.643V249L1744 249.536V269L1763 268.643Z" fill="#486067"/>
<path d="M1776 289L1775.5 238L1761.5 229.5L1761 289H1776Z" fill="#719099"/>
<path d="M1792 327L1791.43 276.429L1775.57 268L1775 327H1792Z" fill="#5B7177"/>
<path d="M1765 266.357V231L1757 231.964V267L1765 266.357Z" fill="#2B4046"/>
<path d="M1738 319V264L1707 265.5V320L1738 319Z" fill="#506C74"/>
<path d="M1771 320V265L1740 266.5V321L1771 320Z" fill="#506C74"/>
<path d="M1776 343V288L1745 289.5V344L1776 343Z" fill="#506C74"/>
<path d="M1673 338.214V295L1667 296.179V339L1673 338.214Z" fill="#5C7C85"/>
<path d="M1735.5 302.5V340H1732V302.5H1735.5Z" fill="#313A45"/>
<path d="M1741.5 265V302.5H1738V265H1741.5Z" fill="#313A45"/>
<path d="M1707 357.5L1705 302.5L1713.5 304.5V297L1697 289V346L1702 357.5H1707Z" fill="#313A45"/>
<path d="M1732 357V302L1705 303.5V358L1732 357Z" fill="#5C7C85"/>
<path d="M1697 344V289L1670 290.5V345L1697 344Z" fill="#5C7C85"/>
<path d="M1757 339V284L1733 285.5V340L1757 339Z" fill="#5C7C85"/>
<path d="M1773.5 294V309L1770 339.5L1756.5 338.5V285L1773.5 294Z" fill="#313A45"/>
<path d="M1644.5 1000L1635.5 316.5L1663.5 315L1677.5 320.5V343.5L1702.5 344.5V357L1732.5 356V339.5L1758.5 337.5V309H1785.5L1774 1008.5L1644.5 1000Z" fill="#698B95"/>
<path d="M1820 528L1818 351.5L1805.5 353L1807.5 539L1820 528Z" fill="#D9D9D9"/>
<path d="M1820.5 333V308.5L1810.5 302V333C1810.5 334.2 1817.17 333.5 1820.5 333Z" fill="#D9D9D9"/>
<path d="M1835 332.5L1847 337.5L1848.5 497H1835V332.5Z" fill="#EEEEEE"/>
<path d="M1819.5 505.5L1818 351.5L1830 358V501C1830 502.2 1823 504.5 1819.5 505.5Z" fill="#BDBDBD"/>
<path d="M1820 333L1835 332.5L1836 494.5L1828.5 497V358.5L1820.5 353L1820 333Z" fill="#C4C4C4"/>
<path d="M1614 980L1628 975.5H1639.5L1651.5 980L1659.5 995L1670 997L1675.5 1003L1673 1014L1677.5 1028.5L1675.5 1057.5V1069.5L1629.5 1080L1618.5 1083H1616L1611.5 1076L1605 1060L1603 1047.5L1606.5 1036.5L1611.5 1014V992.5L1614 980Z" fill="#4E4C19"/>
<path d="M1769 906.5L1766 1089L1864 1071.5L1857 904L1769 906.5Z" fill="#A27D65"/>
<path d="M2058.82 1071.49C2058.89 1071.49 2058.95 1071.49 2059 1071.5L2058.82 1071.49C2055.26 1071.56 2030.6 1083.45 2018.5 1089.5L1817.5 1078L1855.5 1061L2058.82 1071.49Z" fill="#665A52"/>
<path d="M1674 1091H1764.5L1769 905.5H1670L1674 1091Z" fill="#FED1A8"/>
<path d="M1767.5 908.5L1670.5 904L1710.5 895V879H1782V895H1846.5L1857.5 908.5H1767.5Z" fill="#93715A"/>
<path d="M2368 648L2275.4 652.432L2261 1197.55L2363.37 1201L2368 648Z" fill="#BED2D0"/>
<path d="M2361 1201L2365.47 648L2429.56 671.165V698.766L2439 702.216L2436.02 1157.13L2361 1201Z" fill="#93CCC4"/>
<path d="M2367.5 638.5V647.5L2430 672L2364 648.5L2283 652.5V649L2306.5 648.5L2307.5 640L2282.5 630.5H2373L2389 636L2367.5 638.5Z" fill="#90C0BA"/>
<path d="M2020.5 1073.5V869H2221V839H2273.5L2266 1134.5L2197 1132L2194.5 1087H2087L2053.5 1098V1073.5H2020.5Z" fill="#302A2E"/>
<path d="M2101 777V752.5H2103.5V739.5H2125.5V753L2122 752.5V776.5L2101 777Z" fill="#F3A773"/>
<path d="M2149 742.5V776.5H2122V752.5H2125V739.5L2149 742.5Z" fill="#C1875F"/>
<path d="M2057.5 870.5V775.5H2185.5V872L2057.5 870.5Z" fill="#E8975F"/>
<path d="M2212 869.5L2186 872H2184.5L2186 775.5C2194 777 2210.4 780 2212 780C2213.6 780 2212.67 839.667 2212 869.5Z" fill="#B97F57"/>
<path d="M2590 1110V1091V1087.5L2395.5 1083L2357.5 1103L2590 1110Z" fill="#595E71"/>
<path d="M2393 1103.5V1086L2417 1073.5L2523 1075.5V1095L2508 1106L2393 1103.5Z" fill="#505769"/>
<path d="M2576.5 1095.5V1076V1074.5H2546L2542.5 1076V1098.5H2574.5L2576.5 1095.5Z" fill="#505769"/>
<path d="M2552.5 1094.5V1062V1060H2513.5L2511 1061.5L2510.5 1073L2509 1074V1094.5H2552.5Z" fill="#505769"/>
<path d="M2356 1201.4L2358 1102L2588 1110.03V1225L2356 1201.4Z" fill="#B0ACA9"/>
<path d="M2588.5 1223L2593.5 904L2628.5 901.5L2631 855.5H2788V904H2824L2810 1248.5L2588.5 1223Z" fill="#545253"/>
<path d="M2810 1248.5L2823.5 903.5L2838 898L2829 1208.5L2810 1248.5Z" fill="#696969"/>
<path d="M2823.5 904.5L2838.5 898H2806L2807 853.5L2788 855.5V904.5H2823.5Z" fill="#7D7777"/>
<path d="M2537 757.5V1011L2432 1075L2437 753.5L2537 757.5Z" fill="#AFA198"/>
<path d="M2534.5 1010.5L2537.5 758.5L2582.5 774.5L2584.5 984L2534.5 1010.5Z" fill="#D7D7D7"/>
<path d="M2558 441V768.5L2504 759L2451.5 754L2459 436L2460 434H2464H2470L2476.5 436V437.5L2476 443.5H2479.5L2485.5 442L2489.5 440.5L2493.5 439L2496 434.5L2500 434L2504 434.5L2513 433.5L2517 326.5L2515 433.5C2516.5 434 2519.6 435 2520 435C2520.4 435 2521.5 434 2522 433.5L2523 431L2529 433L2533 437L2536.5 437.5H2543.5L2550.5 438.5L2558 441Z" fill="#9D9C9A"/>
<path d="M2544 513L2541 751.5H2537L2530 746.5L2525.5 691L2530 643.5C2531.33 620.167 2534 572.9 2534 570.5C2534 568.1 2537.67 516.167 2539.5 490.5L2544 442.5V479.5V513Z" fill="#EEEEEE"/>
<path d="M2463.5 742L2470 434L2477 435.5L2470.5 742H2463.5Z" fill="#D9D9D9"/>
<path d="M2550.5 472.5L2557 477L2558 451L2550.5 448L2538 445.5H2523H2505.5L2490.5 447L2477 450L2476 479.5L2483 475.5L2495.5 473.5L2526 472.5H2545H2550.5Z" fill="#5E5D62"/>
<path d="M2567.5 772.5L2570.5 672.5L2555.5 674.5V769L2567.5 772.5Z" fill="#FBBF78"/>
<path d="M2566.5 771.5L2570.5 673L2656.5 675.5L2653 805.5H2581V775.5L2566.5 771.5Z" fill="#DDA35F"/>
<path d="M2837.5 728L2838.5 744.5L2795.5 745L2796 728H2837.5Z" fill="#DFDFDF"/>
<path d="M2796 743.5L2793.5 838.5V843L2763 841V745L2796 743.5Z" fill="#9AA1AB"/>
<path d="M2796 743.5H2843.5L2839 842L2793 843L2796 743.5Z" fill="#E9E9E9"/>
<path d="M3014 1004.5L3004 997.5L3006 904L3017 909L3014 1004.5Z" fill="#3A3A3A"/>
<path d="M3240.5 892C3247.17 891.833 3262 892 3262 892L3262.5 906L3334.5 905.5L3340.5 909H3016.5L3006 904L3106.5 904.5V900.5H3112V894.5H3123V900.5L3150 901L3149.5 897L3160.5 897.5L3161 901.5L3164 902L3164.5 904.5H3166.5L3167 902L3170.5 903.5H3178L3178.5 906.5H3202V893.5H3191.5L3193 881H3208V878.5H3225.5V881H3232V878.5H3240.5V892Z" fill="#A9A9A9"/>
<path d="M2216 503L2213.5 657.5H2174.5L2173 726.5H2150V503L2154.5 485L2156.5 480L2160.5 474H2167.5L2172 469V439L2202.5 440.5V472L2207.5 474L2216 482.5L2213.5 497.5H2216V503Z" fill="#715D58"/>
<path d="M2129 502.5L2126.5 657L2126 727H2086H2057L2059 507.5L2063 502.5L2067.5 484.5L2069.5 479.5L2073.5 473.5H2080.5L2085 468.5V438.5L2115.5 440V471.5L2120.5 473.5L2129 482L2126.5 497H2129V502.5Z" fill="#62504C"/>
<path d="M2942 823H2935V845.5H2952.5H2974.5L2976.5 872.5H2984V825H2960V828H2942V823Z" fill="#FEEDD5"/>
<path d="M3187.5 875H3208L3209.5 882H3186L3173 893.5L3127 892.5L3118.5 890.5V858.5L3123 856.5L3130 855.5L3138 853.5V858.5H3145.5L3154.5 859.5L3158 853.5H3167L3171 851L3180.5 852.5V863.5L3184 865L3187.5 875Z" fill="#6D5E54"/>
<path d="M3325 895L3331 784.5H3345.5V772.5H3364V777.5H3372V775L3394 772.5V777.5H3405.5V761.5L3415 759H3443.5V789.5L3501.5 787.5L3494.5 977L3333 975V909.5H3260.5V893L3325 895Z" fill="#776565"/>
<path d="M3658 894L3657 926L3649.5 920C3639.83 919.833 3620.5 919.6 3620.5 920V903.5H3601L3598 912.5L3583 905.5L3584 888.5L3653.5 887.5L3652 893.5L3658 894Z" fill="#949198"/>
<path d="M3635 881.5C3640.83 883.5 3652.7 887.5 3653.5 887.5L3584 888.5L3585 881.5H3635Z" fill="#3A3C3E"/>
</g>
<defs>
<linearGradient id="paint0_linear_517_32896" x1="2045.5" y1="0" x2="2045" y2="713.5" gradientUnits="userSpaceOnUse">
<stop stop-color="#AEC4D4"/>
<stop offset="1" stop-color="#EFD0B5"/>
</linearGradient>
<clipPath id="clip0_517_32896">
<rect width="4088" height="2295" fill="white"/>
</clipPath>
<clipPath id="clip1_517_32896">
<rect width="63" height="230.735" fill="white" transform="translate(0.999023 1154)"/>
</clipPath>
</defs>
</svg>
