<svg width="140" height="140" viewBox="0 0 140 140" fill="none" xmlns="http://www.w3.org/2000/svg">
<path d="M56.3394 55.4686C56.3394 48.8647 51.8465 48.8647 51.8465 48.8647H33.3623V63.0351H50.7008C53.697 63.0337 56.3394 62.0755 56.3394 55.4686Z" fill="primary"/>
<path d="M51.848 72.8229H33.3623V89.7948H50.9944C53.6469 89.7189 58.5422 88.8882 58.5422 81.5452C58.5422 72.7341 51.848 72.8229 51.848 72.8229Z" fill="primary"/>
<path d="M99.1716 63.0337C89.3623 63.0337 87.9945 72.8229 87.9945 72.8229H108.855C108.855 72.8229 108.981 63.0337 99.1716 63.0337Z" fill="primary"/>
<path d="M70 0C31.34 0 0 31.3414 0 70C0 108.659 31.34 140 70 140C108.66 140 140 108.659 140 70C140 31.3414 108.66 0 70 0ZM85.2618 41.3168H111.463V49.1368H85.2618V41.3168ZM72.0194 82.3329C72.0194 101.715 51.848 101.078 51.848 101.078H18.8023V37.5759H51.8465C61.8893 37.5759 69.8167 43.12 69.8167 54.4833C69.8167 65.848 60.1262 66.5684 60.1262 66.5684C72.9003 66.5684 72.0194 82.3329 72.0194 82.3329ZM99.2962 92.3484C109.852 92.3484 109.478 85.5167 109.478 85.5167H120.654C120.654 103.647 98.9238 102.406 98.9238 102.406C72.8473 102.406 74.5244 78.1293 74.5244 78.1293C74.5244 78.1293 74.5043 53.7328 98.9209 53.7328C124.625 53.7328 121.026 81.296 121.026 81.296H88.1205C88.1205 93.0961 99.2962 92.3484 99.2962 92.3484Z" fill="white"/>
</svg>
