<svg width="607" height="451" viewBox="0 0 607 451" fill="none" xmlns="http://www.w3.org/2000/svg"><g clipPath="url(#clip0_212_44131)"><path d="M77.335 425.349C81.201 425.349 84.335 422.215 84.335 418.349C84.335 414.483 81.201 411.349 77.335 411.349C73.469 411.349 70.335 414.483 70.335 418.349C70.335 422.215 73.469 425.349 77.335 425.349Z" fill="#3F3D56"></path><path d="M61.536 216.666C62.1224 214.683 63.108 212.997 64.2726 211.799L68.6656 192.557L77.7606 194.916L72.3251 214.181C72.6511 215.819 72.5611 217.77 71.9748 219.753C70.6352 224.283 67.2124 227.264 64.3298 226.411C61.4472 225.559 60.1964 221.196 61.536 216.666V216.666Z" fill="#FFB6B6"></path><path d="M149.072 403.758L140.464 403.962L135.666 365.291L148.369 364.99L149.072 403.758Z" fill="#FFB6B6"></path><path d="M119.54 421.716C119.54 423.171 120.572 424.349 121.845 424.349H138.93C138.93 424.349 140.612 417.591 147.467 414.682L147.94 424.349H156.753L155.685 408.805C155.685 408.805 158.043 400.489 153.147 396.238C148.25 391.987 152.216 392.579 152.216 392.579L150.29 382.958L136.972 384.524L136.874 399.626L130.41 414.617L120.93 419.3C120.086 419.717 119.54 420.666 119.54 421.716L119.54 421.716H119.54Z" fill="#2F2E41"></path><path d="M92.4661 393.65L83.8585 393.853L79.0605 355.183L91.7631 354.882L92.4661 393.65Z" fill="#FFB6B6"></path><path d="M62.9346 411.608C62.9346 413.062 63.9665 414.241 65.2394 414.241H82.3247C82.3247 414.241 84.006 407.483 90.8611 404.574L91.3342 414.241H100.148L99.08 398.697C99.08 398.697 101.438 390.381 96.5413 386.13C91.6448 381.879 95.6107 382.471 95.6107 382.471L93.6846 372.85L80.3661 374.416L80.2682 389.518L73.8048 404.509L64.3247 409.192C63.4809 409.608 62.9347 410.558 62.9347 411.608L62.9346 411.608H62.9346Z" fill="#2F2E41"></path><path d="M146.406 95.4975L115.408 100.888C113.272 95.4227 98.9347 58.3397 98.0492 52.9881C95.747 39.0751 106.12 26.2482 120.183 25.1987H120.183C133.672 24.1921 141.889 26.7181 143.037 39.5657C143.439 44.0689 147.303 56.1323 148.484 60.4964C155 84.5734 147.964 90.3668 146.406 95.4975H146.406Z" fill="#2F2E41"></path><path d="M95.8653 174.341L93.8437 205.339L74.6382 300.693L75.9859 367.407L93.5067 364.711L98.8977 303.389L129.32 234.316L133.265 377.515L152.134 378.189L165.395 210.021C166.408 197.171 163.04 184.358 155.84 173.667V173.667L95.8653 174.341V174.341Z" fill="#2F2E41"></path><path d="M134.95 74.6072H110.218L104.625 83.3676L85.083 91.4541L95.865 168.276L93.1695 201.296C108.405 206.466 143.762 214.467 169.335 193.349L146.406 152.103L151.797 94.1496L141.352 84.6463L134.95 74.6072L134.95 74.6072Z" fill="#16274C"></path><path d="M100.245 89.0957C100.245 89.0957 88.7894 84.3785 83.3984 93.1389C80.4647 97.9062 74.9367 130.612 70.5067 159.437C66.7961 183.581 63.856 205.002 63.856 205.002L75.6488 206.687L88.823 159.527L98.8976 123.463L100.245 89.0957V89.0957Z" fill="#16274C"></path><path d="M121.267 70.2511C131.587 70.2511 139.953 61.8852 139.953 51.5654C139.953 41.2455 131.587 32.8796 121.267 32.8796C110.947 32.8796 102.582 41.2455 102.582 51.5654C102.582 61.8852 110.947 70.2511 121.267 70.2511Z" fill="#FFB6B6"></path><path d="M422.601 401.966L431.892 407.063L455.976 373.653L442.264 366.13L422.601 401.966Z" fill="#FFB6B6"></path><path d="M454.547 419.222C454.569 419.868 453.858 421.524 453.547 422.091C452.592 423.832 450.405 424.469 448.664 423.514L419.892 407.725C418.704 407.073 418.27 405.581 418.922 404.393L419.579 403.195C419.579 403.195 420.131 398.814 425.497 395.985C425.497 395.985 427.232 401.458 435.661 399.002L438.861 396.976L445.815 411.846L451.819 416.172C453.133 417.119 454.492 417.604 454.546 419.222L454.547 419.222V419.222Z" fill="#2F2E41"></path><path d="M441.664 417.751L452.262 417.75L457.303 376.874L441.662 376.875L441.664 417.751Z" fill="#FFB6B6"></path><path d="M477.972 417.51C478.302 418.066 478.477 419.86 478.477 420.506C478.477 422.492 476.866 424.103 474.88 424.103H442.061C440.706 424.103 439.607 423.004 439.607 421.649V420.282C439.607 420.282 437.984 416.176 441.326 411.114C441.326 411.114 445.48 415.078 451.688 408.87L453.519 405.554L466.769 415.245L474.114 416.149C475.721 416.347 477.146 416.118 477.972 417.51H477.972V417.51Z" fill="#2F2E41"></path><path d="M449.426 194.862L445.032 225.523L439.318 392.982H459.396L481.098 238.664V319.725L435.274 369.396L449.803 379.504L511.016 322.061L522.205 211.709L513.444 195.536L449.426 194.862Z" fill="#2F2E41"></path><path d="M496.26 73.2054L477.335 72.3494L471.327 81.9658L446.335 94.3494L449.763 168.222L443.024 201.916C443.024 201.916 506.162 224.827 522.335 211.349L517.824 163.505L521.335 95.3494L505.021 87.3568L496.26 73.2054Z" fill="#16274C"></path><path d="M488.493 68.143C499.302 68.143 508.064 59.3805 508.064 48.5714C508.064 37.7623 499.302 28.9998 488.493 28.9998C477.683 28.9998 468.921 37.7623 468.921 48.5714C468.921 59.3805 477.683 68.143 488.493 68.143Z" fill="#FFB6B6"></path><path d="M473.021 64.5609C474.443 64.6999 474.523 67.4504 475.874 67.864C477.11 68.2422 479.265 66.6221 479.477 64.8612C479.647 63.4579 478.458 62.9859 476.775 60.0567C475.785 58.3347 477.392 58.7971 477.335 56.3493C477.318 55.6203 474.635 51.1886 476.024 49.2467C476.484 48.6039 477.135 47.6931 478.276 47.2949C479.993 46.6957 480.915 47.9216 483.081 48.0456C485.151 48.1641 481.742 50.124 484.141 48.5872C486.594 47.0163 487.525 42.935 487.511 41.1746C487.496 39.3635 487.093 42.7784 487.511 41.1746C487.721 40.3661 495.934 47.5932 496.335 47.3493C498.921 45.7783 500.221 42.8329 503.01 44.544C506.036 46.4006 507.406 45.6604 508.401 45.2179C509.218 44.8544 508.545 37.9114 508.304 36.7851C507.642 33.6871 504.216 32.2385 503.95 32.1308C502.178 31.4113 501.529 31.9368 500.497 31.0798C499.031 29.8627 499.864 28.4082 498.695 27.1762C497.408 25.8192 495.895 28.3042 490.335 28.3493C486.761 28.3783 486.618 26.3146 484.732 26.4255C483.168 26.5174 477.976 26.8228 473.322 30.4792C468.283 34.4374 466.95 39.9063 466.565 41.5895C465.667 45.5232 465.3 52.5354 468.667 56.3032C469.475 57.2066 470.71 58.1623 471.22 60.0567C471.794 62.1931 471.13 64.3488 471.97 64.711C472.323 64.8629 472.499 64.5098 473.021 64.5609H473.021Z" fill="#2F2E41"></path><path d="M25 424.778C25 425.438 25.53 425.968 26.1901 425.968H580.48C581.14 425.968 581.67 425.438 581.67 424.778C581.67 424.118 581.14 423.588 580.48 423.588H26.1901C25.53 423.588 25 424.118 25 424.778Z" fill="#CCCCCC"></path><path d="M446.315 212.349H160.355C149.865 212.349 141.335 220.879 141.335 231.369V405.329C141.335 415.819 149.865 424.349 160.355 424.349H446.315C456.805 424.349 465.335 415.819 465.335 405.329V231.369C465.335 220.879 456.805 212.349 446.315 212.349Z" fill="white"></path><path d="M446.315 212.349H160.355C149.865 212.349 141.335 220.879 141.335 231.369V405.329C141.335 415.819 149.865 424.349 160.355 424.349H446.315C456.805 424.349 465.335 415.819 465.335 405.329V231.369C465.335 220.879 456.805 212.349 446.315 212.349ZM463.335 347.653C463.335 388.907 429.892 422.349 388.639 422.349H160.355C150.955 422.349 143.335 414.729 143.335 405.329V231.369C143.335 221.969 150.955 214.349 160.355 214.349H446.315C455.715 214.349 463.335 221.969 463.335 231.369V347.653Z" fill="#3F3D56"></path><path d="M167.395 219.221C166.994 217.192 167.083 215.241 167.559 213.64L162.512 194.559L171.662 192.423L175.796 212.009C176.846 213.308 177.672 215.078 178.074 217.106C178.991 221.74 177.344 225.97 174.396 226.554C171.447 227.137 168.313 223.854 167.395 219.221V219.221Z" fill="#FFB6B6"></path><path d="M139.33 89.7695C139.33 89.7695 150.786 85.0523 156.177 93.8127C161.568 102.573 175.719 205.676 175.719 205.676L163.927 207.361L140.678 124.137L139.33 89.7695V89.7695Z" fill="#16274C"></path><path d="M421.743 222.26C422.019 220.195 422.736 218.363 423.706 216.988L421.504 172.285L438.24 170.05L432.043 218.102C432.617 219.683 432.828 221.639 432.551 223.704C431.919 228.423 428.988 231.925 426.003 231.526C423.019 231.127 421.111 226.979 421.743 222.26V222.26Z" fill="#FFB6B6"></path><path d="M464.689 96.1289C464.689 96.1289 448.829 90.1389 443.555 95.5683C438.28 100.998 420.77 161.521 420.77 161.521L422.41 206.597L434.904 204.441L464.689 96.1289V96.1289Z" fill="#16274C"></path><path d="M270.365 383.036H242.305C240.895 383.036 239.745 384.186 239.745 385.596C239.745 387.016 240.895 388.166 242.305 388.166H270.365C271.775 388.166 272.925 387.016 272.925 385.596C272.925 384.186 271.775 383.036 270.365 383.036Z" fill="#E6E6E6"></path><path d="M317.365 383.036H289.305C287.895 383.036 286.745 384.186 286.745 385.596C286.745 387.016 287.895 388.166 289.305 388.166H317.365C318.775 388.166 319.925 387.016 319.925 385.596C319.925 384.186 318.775 383.036 317.365 383.036Z" fill="#E6E6E6"></path><path d="M364.365 383.036H336.305C334.895 383.036 333.745 384.186 333.745 385.596C333.745 387.016 334.895 388.166 336.305 388.166H364.365C365.775 388.166 366.925 387.016 366.925 385.596C366.925 384.186 365.775 383.036 364.365 383.036Z" fill="#E6E6E6"></path><path d="M477.835 119.349C477.835 114.111 482.097 109.849 487.335 109.849C492.573 109.849 496.835 114.111 496.835 119.349C496.835 124.588 492.573 128.849 487.335 128.849C482.097 128.849 477.835 124.588 477.835 119.349ZM478.835 119.349C478.835 124.036 482.648 127.849 487.335 127.849C492.022 127.849 495.835 124.036 495.835 119.349C495.835 114.663 492.022 110.849 487.335 110.849C482.648 110.849 478.835 114.663 478.835 119.349Z" fill="#3F3D56"></path><path d="M487.335 124.349C490.096 124.349 492.335 122.111 492.335 119.349C492.335 116.588 490.096 114.349 487.335 114.349C484.574 114.349 482.335 116.588 482.335 119.349C482.335 122.111 484.574 124.349 487.335 124.349Z" fill="#3F3D56"></path><path d="M498.644 127.078C499.953 128.679 500.791 130.442 501.125 132.079L535.037 160.771L525.228 174.467L494.624 137.393C493.086 136.74 491.524 135.568 490.216 133.967C487.226 130.309 486.69 125.802 489.017 123.9C491.345 121.997 495.655 123.42 498.644 127.078H498.644Z" fill="#FFB6B6"></path><path d="M512.096 95.7803C512.096 95.7803 521.531 91.0631 526.922 99.1497C532.313 107.236 537.799 149.042 537.799 149.042C537.799 149.042 544.442 177.993 531.639 177.319C518.835 176.646 495.335 140.484 495.335 140.484L504.335 132.484L505.358 122.735L512.096 95.7803L512.096 95.7803Z" fill="#16274C"></path><path d="M118.977 28.1726C111.376 29.51 104.011 33.6252 100.068 40.2591C96.1244 46.8931 88.8995 56.1363 94.1376 61.8038C95.948 63.7627 98.2545 65.2455 99.8831 67.358C102.654 70.9528 103.055 76.0035 101.673 80.327C100.291 84.6505 97.3271 88.3166 93.9364 91.3342C101.194 90.5855 107.818 85.4294 110.324 78.5771C111.484 75.4062 111.72 71.6027 109.735 68.8712C108.692 67.4347 107.154 66.4527 105.829 65.2714C102.409 62.2248 104.605 57.6229 104.625 53.0431C104.646 48.4634 105.222 45.2772 108.669 42.2611C111.042 44.158 118.912 43.7001 121.912 43.2134C124.911 42.7268 133.298 54.2455 134.95 51.6954C138.184 55.8521 135.971 47.2865 135.364 52.5178C134.93 56.2604 132.472 59.4887 131.731 63.1828C131.087 66.3974 131.791 69.7426 132.924 72.8194C135.478 79.76 140.268 85.8581 146.406 89.9845C142.862 84.9724 139.168 79.4951 139.284 73.3579C139.371 68.8058 147.069 59.4104 148.427 55.0648C151.026 46.7494 145.874 37.5347 140.341 30.8052C135.482 24.8954 126.089 26.7215 118.641 28.4712" fill="#2F2E41"></path><path opacity="0.7" d="M362.929 302.751C367.474 306.739 361.969 314.621 360.195 320.076C357.43 328.576 348.702 333.632 339.9 332.077C333.083 330.872 326.222 330.02 319.319 329.531C311.96 329.011 304.559 328.901 297.099 329.201C289.349 329.511 281.549 330.281 273.679 331.511L273.548 331.531C264.516 332.937 255.861 327.512 253.251 318.752C251.74 313.683 247.044 306.729 250.929 302.751C262.92 290.473 256.548 286.369 255.138 281.419C252.927 273.66 265.79 269.412 273.816 270.23C274.151 270.264 274.485 270.298 274.819 270.331C286.67 271.501 298.519 271.961 310.37 271.711C313.349 271.661 316.339 271.551 319.319 271.401C326.079 271.068 332.834 270.505 339.591 269.709C347.442 268.785 361.22 272.941 358.23 280.259C355.149 287.8 354.81 295.626 362.929 302.751Z" fill="#16274C"></path><path opacity="0.7" d="M319.319 271.401V329.531C311.959 329.011 304.559 328.901 297.099 329.201C289.349 329.511 281.549 330.281 273.679 331.511C274.729 321.781 274.059 311.881 281.569 308.251C290.859 303.751 282.609 285.581 274.819 270.331C286.669 271.501 298.519 271.961 310.369 271.711C313.349 271.661 316.339 271.551 319.319 271.401V271.401Z" fill="#3F3D56"></path><path opacity="0.7" d="M362.929 302.751C367.388 306.835 361.969 314.621 360.194 320.076C357.429 328.576 348.702 333.632 339.9 332.077C333.083 330.872 326.221 330.02 319.319 329.531C311.959 329.011 304.559 328.901 297.099 329.201C290.119 320.191 287.449 311.921 293.869 306.711C301.139 300.821 303.669 286.341 310.369 271.711C313.349 271.661 316.339 271.551 319.319 271.401C326.079 271.068 332.834 270.505 339.591 269.709C347.442 268.785 361.556 273.088 358.229 280.26C354.932 287.368 354.522 295.051 362.929 302.751V302.751Z" fill="#FF6884"></path><path d="M294.609 318.485H266.549C265.139 318.485 263.989 319.635 263.989 321.045C263.989 322.465 265.139 323.615 266.549 323.615H294.609C296.019 323.615 297.169 322.465 297.169 321.045C297.169 319.635 296.019 318.485 294.609 318.485Z" fill="#3F3D56"></path><path d="M344.609 300.485H316.549C315.139 300.485 313.989 301.635 313.989 303.045C313.989 304.465 315.139 305.615 316.549 305.615H344.609C346.019 305.615 347.169 304.465 347.169 303.045C347.169 301.635 346.019 300.485 344.609 300.485Z" fill="#3F3D56"></path><path d="M305.609 283.485H277.549C276.139 283.485 274.989 284.635 274.989 286.045C274.989 287.465 276.139 288.615 277.549 288.615H305.609C307.019 288.615 308.169 287.465 308.169 286.045C308.169 284.635 307.019 283.485 305.609 283.485Z" fill="#3F3D56"></path><path d="M266.725 314.311H162.716V315.311H266.725V314.311Z" fill="#3F3D56"></path><path d="M183.725 324.164C178.487 324.164 174.225 319.903 174.225 314.664C174.225 309.426 178.487 305.164 183.725 305.164C188.963 305.164 193.225 309.426 193.225 314.664C193.225 319.903 188.963 324.164 183.725 324.164ZM183.725 306.164C179.038 306.164 175.225 309.978 175.225 314.664C175.225 319.351 179.038 323.164 183.725 323.164C188.412 323.164 192.225 319.351 192.225 314.664C192.225 309.978 188.412 306.164 183.725 306.164Z" fill="#3F3D56"></path><path d="M183.725 319.664C186.487 319.664 188.725 317.426 188.725 314.664C188.725 311.903 186.487 309.664 183.725 309.664C180.964 309.664 178.725 311.903 178.725 314.664C178.725 317.426 180.964 319.664 183.725 319.664Z" fill="#16274C"></path><path d="M435.954 309.311H331.945V310.311H435.954V309.311Z" fill="#3F3D56"></path><path d="M405.445 309.664C405.445 304.426 409.707 300.164 414.945 300.164C420.183 300.164 424.445 304.426 424.445 309.664C424.445 314.903 420.183 319.164 414.945 319.164C409.707 319.164 405.445 314.903 405.445 309.664ZM406.445 309.664C406.445 314.351 410.258 318.164 414.945 318.164C419.632 318.164 423.445 314.351 423.445 309.664C423.445 304.978 419.632 301.164 414.945 301.164C410.258 301.164 406.445 304.978 406.445 309.664Z" fill="#3F3D56"></path><path d="M414.945 314.664C417.706 314.664 419.945 312.426 419.945 309.664C419.945 306.903 417.706 304.664 414.945 304.664C412.183 304.664 409.945 306.903 409.945 309.664C409.945 312.426 412.183 314.664 414.945 314.664Z" fill="#FF6884"></path><path d="M295.725 278.311H191.716V279.311H295.725V278.311Z" fill="#3F3D56"></path><path d="M212.725 288.164C207.487 288.164 203.225 283.903 203.225 278.664C203.225 273.426 207.487 269.164 212.725 269.164C217.963 269.164 222.225 273.426 222.225 278.664C222.225 283.903 217.963 288.164 212.725 288.164ZM212.725 270.164C208.038 270.164 204.225 273.978 204.225 278.664C204.225 283.351 208.038 287.164 212.725 287.164C217.412 287.164 221.225 283.351 221.225 278.664C221.225 273.978 217.412 270.164 212.725 270.164Z" fill="#3F3D56"></path><path d="M212.725 283.664C215.487 283.664 217.725 281.426 217.725 278.664C217.725 275.903 215.487 273.664 212.725 273.664C209.964 273.664 207.725 275.903 207.725 278.664C207.725 281.426 209.964 283.664 212.725 283.664Z" fill="#3F3D56"></path></g><defs><clipPath id="clip0_212_44131"><rect width="556.67" height="400.968" fill="white" transform="translate(25 25)"></rect></clipPath></defs></svg>