<svg width="100%" max-height="773" min-height="200" viewBox="0 0 987 773" fill="none" xmlns="http://www.w3.org/2000/svg"><g clip-path="url(#clip0_91_22552)"><path d="M558.321 200.882C573.068 200.882 585.022 188.928 585.022 174.182C585.022 159.435 573.068 147.481 558.321 147.481C543.575 147.481 531.621 159.435 531.621 174.182C531.621 188.928 543.575 200.882 558.321 200.882Z" fill="#F2F2F2"></path><path d="M765.448 597.152C805.135 566.923 824.091 516.126 812.224 467.67C811.929 466.466 811.618 465.264 811.29 464.066C803.423 435.302 783.959 407.965 755.59 398.774C731.771 391.058 705.771 396.992 680.921 393.923C632.139 387.899 594.32 348.429 567.71 307.104C541.099 265.778 520.648 219.52 485.288 185.38C427.003 129.104 331.926 116.988 259.661 153.619C187.397 190.25 141.365 271.519 143.328 352.514C145.291 433.509 193.374 510.946 263.203 552.031C288.855 567.124 318.524 577.817 348.051 574.075C373.671 570.829 396.95 557.063 422.45 552.976C462.541 546.55 502.377 564.676 537.052 585.799C571.728 606.922 605.223 631.959 644.627 641.752C682.888 651.26 730.29 623.93 765.448 597.152Z" fill="#F2F2F2"></path><path d="M708.426 155.32C707.556 154.74 706.676 154.19 705.806 153.63C680.657 137.546 653.701 124.479 625.496 114.7L618.956 204.92H577.496V101.53C574.886 100.99 572.256 100.48 569.626 100V204.92H520.356C493.232 204.92 467.219 194.145 448.04 174.966C428.861 155.787 418.086 129.774 418.086 102.65V102.65C415.446 103.22 412.826 103.83 410.206 104.48V204.92H370.076L363.846 118.89C334.861 130.006 307.343 144.625 281.906 162.42C281.466 162.72 281.026 163.03 280.596 163.33C278.386 164.88 276.206 166.46 274.036 168.06V512.25H392.306L390.216 483.3L378.716 324.35H610.306L598.806 483.3L596.716 512.25H713.676V158.8C711.936 157.62 710.186 156.46 708.426 155.32ZM410.206 298.1H376.816L370.646 212.8H410.206V298.1ZM569.626 298.1H513.546V296.41C513.546 295.598 513.386 294.793 513.075 294.043C512.763 293.292 512.307 292.61 511.732 292.036C511.157 291.462 510.475 291.007 509.724 290.697C508.973 290.388 508.168 290.229 507.356 290.23H482.976C482.164 290.23 481.361 290.389 480.611 290.7C479.861 291.01 479.179 291.465 478.605 292.039C478.031 292.613 477.576 293.295 477.266 294.045C476.955 294.795 476.796 295.598 476.796 296.41V298.1H418.086V212.8H569.626V298.1ZM577.496 298.1V212.8H618.386L612.216 298.1H577.496Z" fill="#3F3D56"></path><path d="M99.9999 534.291C108.687 544.584 118.083 554.258 128.12 563.241L858.7 564.241C868.736 555.258 878.133 545.584 886.82 535.291L99.9999 534.291Z" fill="#3F3D56"></path><path d="M595.43 441.591V527.295C595.431 528.387 595.865 529.435 596.637 530.207C597.41 530.979 598.457 531.414 599.549 531.414H726.553C727.646 531.414 728.693 530.979 729.465 530.207C730.237 529.435 730.672 528.387 730.673 527.295V441.591C730.67 440.5 730.235 439.454 729.463 438.683C728.691 437.912 727.645 437.478 726.553 437.477H599.549C598.458 437.478 597.412 437.912 596.639 438.683C595.867 439.454 595.433 440.5 595.43 441.591V441.591Z" fill="#3F3D56"></path><path d="M598.409 442.658V526.238C598.41 526.822 598.643 527.381 599.055 527.794C599.468 528.206 600.027 528.438 600.611 528.439H725.496C726.08 528.438 726.639 528.206 727.052 527.794C727.464 527.381 727.697 526.822 727.698 526.238V442.658C727.698 442.073 727.466 441.513 727.053 441.099C726.64 440.686 726.08 440.453 725.496 440.452H600.611C600.027 440.453 599.467 440.686 599.054 441.099C598.641 441.513 598.409 442.073 598.409 442.658V442.658Z" fill="#004D78"></path><path d="M592.774 544.01C593.006 544.302 593.302 544.537 593.639 544.698C593.975 544.859 594.344 544.942 594.717 544.94H730.709C731.081 544.939 731.448 544.856 731.784 544.696C732.119 544.536 732.415 544.303 732.649 544.014C732.884 543.725 733.051 543.387 733.138 543.026C733.226 542.664 733.232 542.288 733.155 541.924L731.044 531.897C730.957 531.488 730.768 531.107 730.496 530.79C730.224 530.472 729.877 530.228 729.486 530.079C729.203 529.968 728.902 529.911 728.598 529.912H596.82C596.516 529.911 596.215 529.968 595.932 530.079C595.541 530.228 595.194 530.472 594.922 530.79C594.65 531.107 594.461 531.488 594.374 531.897L592.263 541.924C592.188 542.288 592.195 542.664 592.283 543.025C592.371 543.385 592.539 543.722 592.774 544.01V544.01Z" fill="#2F2E41"></path><path d="M723.932 534.23H727.144C727.414 534.23 727.632 534.012 727.632 533.742V532.205C727.632 531.936 727.414 531.717 727.144 531.717H723.932C723.662 531.717 723.444 531.936 723.444 532.205V533.742C723.444 534.012 723.662 534.23 723.932 534.23Z" fill="#3F3D56"></path><path d="M715.555 534.23H718.767C719.037 534.23 719.255 534.012 719.255 533.742V532.205C719.255 531.936 719.037 531.717 718.767 531.717H715.555C715.285 531.717 715.067 531.936 715.067 532.205V533.742C715.067 534.012 715.285 534.23 715.555 534.23Z" fill="#3F3D56"></path><path d="M707.178 534.23H710.39C710.66 534.23 710.878 534.012 710.878 533.742V532.205C710.878 531.936 710.66 531.717 710.39 531.717H707.178C706.908 531.717 706.69 531.936 706.69 532.205V533.742C706.69 534.012 706.908 534.23 707.178 534.23Z" fill="#3F3D56"></path><path d="M698.801 534.23H702.013C702.283 534.23 702.501 534.012 702.501 533.742V532.205C702.501 531.936 702.283 531.717 702.013 531.717H698.801C698.531 531.717 698.313 531.936 698.313 532.205V533.742C698.313 534.012 698.531 534.23 698.801 534.23Z" fill="#3F3D56"></path><path d="M690.424 534.23H693.636C693.906 534.23 694.124 534.012 694.124 533.742V532.205C694.124 531.936 693.906 531.717 693.636 531.717H690.424C690.154 531.717 689.936 531.936 689.936 532.205V533.742C689.936 534.012 690.154 534.23 690.424 534.23Z" fill="#3F3D56"></path><path d="M682.047 534.23H685.259C685.529 534.23 685.747 534.012 685.747 533.742V532.205C685.747 531.936 685.529 531.717 685.259 531.717H682.047C681.777 531.717 681.559 531.936 681.559 532.205V533.742C681.559 534.012 681.777 534.23 682.047 534.23Z" fill="#3F3D56"></path><path d="M673.67 534.23H676.882C677.152 534.23 677.37 534.012 677.37 533.742V532.205C677.37 531.936 677.152 531.717 676.882 531.717H673.67C673.4 531.717 673.182 531.936 673.182 532.205V533.742C673.182 534.012 673.4 534.23 673.67 534.23Z" fill="#3F3D56"></path><path d="M665.293 534.23H668.505C668.775 534.23 668.993 534.012 668.993 533.742V532.205C668.993 531.936 668.775 531.717 668.505 531.717H665.293C665.023 531.717 664.805 531.936 664.805 532.205V533.742C664.805 534.012 665.023 534.23 665.293 534.23Z" fill="#3F3D56"></path><path d="M656.916 534.23H660.128C660.398 534.23 660.616 534.012 660.616 533.742V532.205C660.616 531.936 660.398 531.717 660.128 531.717H656.916C656.647 531.717 656.428 531.936 656.428 532.205V533.742C656.428 534.012 656.647 534.23 656.916 534.23Z" fill="#3F3D56"></path><path d="M648.539 534.23H651.751C652.021 534.23 652.24 534.012 652.24 533.742V532.205C652.24 531.936 652.021 531.717 651.751 531.717H648.539C648.27 531.717 648.051 531.936 648.051 532.205V533.742C648.051 534.012 648.27 534.23 648.539 534.23Z" fill="#3F3D56"></path><path d="M640.162 534.23H643.374C643.644 534.23 643.862 534.012 643.862 533.742V532.205C643.862 531.936 643.644 531.717 643.374 531.717H640.162C639.892 531.717 639.674 531.936 639.674 532.205V533.742C639.674 534.012 639.892 534.23 640.162 534.23Z" fill="#3F3D56"></path><path d="M631.785 534.23H634.997C635.267 534.23 635.485 534.012 635.485 533.742V532.205C635.485 531.936 635.267 531.717 634.997 531.717H631.785C631.516 531.717 631.297 531.936 631.297 532.205V533.742C631.297 534.012 631.516 534.23 631.785 534.23Z" fill="#3F3D56"></path><path d="M623.408 534.23H626.62C626.89 534.23 627.108 534.012 627.108 533.742V532.205C627.108 531.936 626.89 531.717 626.62 531.717H623.408C623.138 531.717 622.92 531.936 622.92 532.205V533.742C622.92 534.012 623.138 534.23 623.408 534.23Z" fill="#3F3D56"></path><path d="M615.031 534.23H618.243C618.513 534.23 618.731 534.012 618.731 533.742V532.205C618.731 531.936 618.513 531.717 618.243 531.717H615.031C614.762 531.717 614.543 531.936 614.543 532.205V533.742C614.543 534.012 614.762 534.23 615.031 534.23Z" fill="#3F3D56"></path><path d="M606.654 534.23H609.866C610.136 534.23 610.354 534.012 610.354 533.742V532.205C610.354 531.936 610.136 531.717 609.866 531.717H606.654C606.385 531.717 606.166 531.936 606.166 532.205V533.742C606.166 534.012 606.385 534.23 606.654 534.23Z" fill="#3F3D56"></path><path d="M598.277 534.23H601.489C601.759 534.23 601.977 534.012 601.977 533.742V532.205C601.977 531.936 601.759 531.717 601.489 531.717H598.277C598.008 531.717 597.789 531.936 597.789 532.205V533.742C597.789 534.012 598.008 534.23 598.277 534.23Z" fill="#3F3D56"></path><path d="M724.031 538.419H727.243C727.513 538.419 727.731 538.2 727.731 537.931V536.394C727.731 536.124 727.513 535.906 727.243 535.906H724.031C723.761 535.906 723.543 536.124 723.543 536.394V537.931C723.543 538.2 723.761 538.419 724.031 538.419Z" fill="#3F3D56"></path><path d="M715.654 538.419H718.866C719.136 538.419 719.354 538.2 719.354 537.931V536.394C719.354 536.124 719.136 535.906 718.866 535.906H715.654C715.384 535.906 715.166 536.124 715.166 536.394V537.931C715.166 538.2 715.384 538.419 715.654 538.419Z" fill="#3F3D56"></path><path d="M707.277 538.419H710.489C710.759 538.419 710.977 538.2 710.977 537.931V536.394C710.977 536.124 710.759 535.906 710.489 535.906H707.277C707.007 535.906 706.789 536.124 706.789 536.394V537.931C706.789 538.2 707.007 538.419 707.277 538.419Z" fill="#3F3D56"></path><path d="M698.9 538.419H702.112C702.382 538.419 702.6 538.2 702.6 537.931V536.394C702.6 536.124 702.382 535.906 702.112 535.906H698.9C698.63 535.906 698.412 536.124 698.412 536.394V537.931C698.412 538.2 698.63 538.419 698.9 538.419Z" fill="#3F3D56"></path><path d="M690.523 538.419H693.735C694.005 538.419 694.223 538.2 694.223 537.931V536.394C694.223 536.124 694.005 535.906 693.735 535.906H690.523C690.253 535.906 690.035 536.124 690.035 536.394V537.931C690.035 538.2 690.253 538.419 690.523 538.419Z" fill="#3F3D56"></path><path d="M682.146 538.419H685.358C685.628 538.419 685.846 538.2 685.846 537.931V536.394C685.846 536.124 685.628 535.906 685.358 535.906H682.146C681.876 535.906 681.658 536.124 681.658 536.394V537.931C681.658 538.2 681.876 538.419 682.146 538.419Z" fill="#3F3D56"></path><path d="M673.769 538.419H676.981C677.251 538.419 677.469 538.2 677.469 537.931V536.394C677.469 536.124 677.251 535.906 676.981 535.906H673.769C673.499 535.906 673.281 536.124 673.281 536.394V537.931C673.281 538.2 673.499 538.419 673.769 538.419Z" fill="#3F3D56"></path><path d="M665.392 538.419H668.604C668.874 538.419 669.092 538.2 669.092 537.931V536.394C669.092 536.124 668.874 535.906 668.604 535.906H665.392C665.122 535.906 664.904 536.124 664.904 536.394V537.931C664.904 538.2 665.122 538.419 665.392 538.419Z" fill="#3F3D56"></path><path d="M657.015 538.419H660.227C660.497 538.419 660.715 538.2 660.715 537.931V536.394C660.715 536.124 660.497 535.906 660.227 535.906H657.015C656.745 535.906 656.527 536.124 656.527 536.394V537.931C656.527 538.2 656.745 538.419 657.015 538.419Z" fill="#3F3D56"></path><path d="M648.638 538.419H651.85C652.12 538.419 652.338 538.2 652.338 537.931V536.394C652.338 536.124 652.12 535.906 651.85 535.906H648.638C648.368 535.906 648.15 536.124 648.15 536.394V537.931C648.15 538.2 648.368 538.419 648.638 538.419Z" fill="#3F3D56"></path><path d="M640.261 538.419H643.473C643.743 538.419 643.961 538.2 643.961 537.931V536.394C643.961 536.124 643.743 535.906 643.473 535.906H640.261C639.992 535.906 639.773 536.124 639.773 536.394V537.931C639.773 538.2 639.992 538.419 640.261 538.419Z" fill="#3F3D56"></path><path d="M631.884 538.419H635.096C635.366 538.419 635.584 538.2 635.584 537.931V536.394C635.584 536.124 635.366 535.906 635.096 535.906H631.884C631.615 535.906 631.396 536.124 631.396 536.394V537.931C631.396 538.2 631.615 538.419 631.884 538.419Z" fill="#3F3D56"></path><path d="M623.507 538.419H626.719C626.989 538.419 627.208 538.2 627.208 537.931V536.394C627.208 536.124 626.989 535.906 626.719 535.906H623.507C623.238 535.906 623.019 536.124 623.019 536.394V537.931C623.019 538.2 623.238 538.419 623.507 538.419Z" fill="#3F3D56"></path><path d="M615.13 538.419H618.342C618.612 538.419 618.831 538.2 618.831 537.931V536.394C618.831 536.124 618.612 535.906 618.342 535.906H615.13C614.861 535.906 614.642 536.124 614.642 536.394V537.931C614.642 538.2 614.861 538.419 615.13 538.419Z" fill="#3F3D56"></path><path d="M606.753 538.419H609.965C610.235 538.419 610.453 538.2 610.453 537.931V536.394C610.453 536.124 610.235 535.906 609.965 535.906H606.753C606.484 535.906 606.265 536.124 606.265 536.394V537.931C606.265 538.2 606.484 538.419 606.753 538.419Z" fill="#3F3D56"></path><path d="M598.376 538.419H601.588C601.858 538.419 602.077 538.2 602.077 537.931V536.394C602.077 536.124 601.858 535.906 601.588 535.906H598.376C598.107 535.906 597.888 536.124 597.888 536.394V537.931C597.888 538.2 598.107 538.419 598.376 538.419Z" fill="#3F3D56"></path><path d="M654.502 543.445H687.034C687.303 543.445 687.522 543.226 687.522 542.957V541.42C687.522 541.151 687.303 540.932 687.034 540.932H654.502C654.232 540.932 654.014 541.151 654.014 541.42V542.957C654.014 543.226 654.232 543.445 654.502 543.445Z" fill="#3F3D56"></path><path d="M620.036 458.737H617.192C616.33 458.737 615.631 459.436 615.631 460.298C615.631 461.16 616.33 461.859 617.192 461.859H620.036C620.898 461.859 621.597 461.16 621.597 460.298C621.597 459.436 620.898 458.737 620.036 458.737Z" fill="white"></path><path d="M652.559 458.737H649.715C648.853 458.737 648.154 459.436 648.154 460.298C648.154 461.16 648.853 461.859 649.715 461.859H652.559C653.421 461.859 654.12 461.16 654.12 460.298C654.12 459.436 653.421 458.737 652.559 458.737Z" fill="white"></path><path d="M661.774 458.737H658.93C658.068 458.737 657.369 459.436 657.369 460.298C657.369 461.16 658.068 461.859 658.93 461.859H661.774C662.636 461.859 663.335 461.16 663.335 460.298C663.335 459.436 662.636 458.737 661.774 458.737Z" fill="white"></path><path d="M643.712 458.477H626.039C625.176 458.477 624.477 459.176 624.477 460.038C624.477 460.9 625.176 461.599 626.039 461.599H643.712C644.575 461.599 645.274 460.9 645.274 460.038C645.274 459.176 644.575 458.477 643.712 458.477Z" fill="white"></path><path d="M687.076 458.477H669.403C668.54 458.477 667.841 459.176 667.841 460.038C667.841 460.9 668.54 461.599 669.403 461.599H687.076C687.939 461.599 688.638 460.9 688.638 460.038C688.638 459.176 687.939 458.477 687.076 458.477Z" fill="white"></path><path d="M628.709 465.784H625.865C625.003 465.784 624.304 466.483 624.304 467.345C624.304 468.207 625.003 468.906 625.865 468.906H628.709C629.571 468.906 630.27 468.207 630.27 467.345C630.27 466.483 629.571 465.784 628.709 465.784Z" fill="white"></path><path d="M661.232 465.784H658.388C657.526 465.784 656.827 466.483 656.827 467.345C656.827 468.207 657.526 468.906 658.388 468.906H661.232C662.094 468.906 662.793 468.207 662.793 467.345C662.793 466.483 662.094 465.784 661.232 465.784Z" fill="white"></path><path d="M670.446 465.784H667.603C666.741 465.784 666.042 466.483 666.042 467.345C666.042 468.207 666.741 468.906 667.603 468.906H670.446C671.309 468.906 672.008 468.207 672.008 467.345C672.008 466.483 671.309 465.784 670.446 465.784Z" fill="white"></path><path d="M652.385 465.523H634.711C633.849 465.523 633.15 466.222 633.15 467.085C633.15 467.947 633.849 468.646 634.711 468.646H652.385C653.247 468.646 653.946 467.947 653.946 467.085C653.946 466.222 653.247 465.523 652.385 465.523Z" fill="white"></path><path d="M695.749 465.523H678.075C677.213 465.523 676.514 466.222 676.514 467.085C676.514 467.947 677.213 468.646 678.075 468.646H695.749C696.611 468.646 697.31 467.947 697.31 467.085C697.31 466.222 696.611 465.523 695.749 465.523Z" fill="white"></path><path d="M637.381 472.83H634.538C633.676 472.83 632.977 473.529 632.977 474.391C632.977 475.254 633.676 475.952 634.538 475.952H637.381C638.244 475.952 638.943 475.254 638.943 474.391C638.943 473.529 638.244 472.83 637.381 472.83Z" fill="white"></path><path d="M669.904 472.83H667.061C666.199 472.83 665.5 473.529 665.5 474.391C665.5 475.254 666.199 475.952 667.061 475.952H669.904C670.767 475.952 671.466 475.254 671.466 474.391C671.466 473.529 670.767 472.83 669.904 472.83Z" fill="white"></path><path d="M679.119 472.83H676.276C675.414 472.83 674.715 473.529 674.715 474.391C674.715 475.254 675.414 475.952 676.276 475.952H679.119C679.982 475.952 680.68 475.254 680.68 474.391C680.68 473.529 679.982 472.83 679.119 472.83Z" fill="white"></path><path d="M661.058 472.57H643.384C642.522 472.57 641.823 473.269 641.823 474.131C641.823 474.993 642.522 475.692 643.384 475.692H661.058C661.92 475.692 662.619 474.993 662.619 474.131C662.619 473.269 661.92 472.57 661.058 472.57Z" fill="white"></path><path d="M704.422 472.57H686.748C685.886 472.57 685.187 473.269 685.187 474.131C685.187 474.993 685.886 475.692 686.748 475.692H704.422C705.284 475.692 705.983 474.993 705.983 474.131C705.983 473.269 705.284 472.57 704.422 472.57Z" fill="white"></path><path d="M646.054 479.877H643.211C642.348 479.877 641.649 480.576 641.649 481.438C641.649 482.3 642.348 482.999 643.211 482.999H646.054C646.916 482.999 647.615 482.3 647.615 481.438C647.615 480.576 646.916 479.877 646.054 479.877Z" fill="white"></path><path d="M678.577 479.877H675.734C674.871 479.877 674.172 480.576 674.172 481.438C674.172 482.3 674.871 482.999 675.734 482.999H678.577C679.439 482.999 680.138 482.3 680.138 481.438C680.138 480.576 679.439 479.877 678.577 479.877Z" fill="white"></path><path d="M687.792 479.877H684.948C684.086 479.877 683.387 480.576 683.387 481.438C683.387 482.3 684.086 482.999 684.948 482.999H687.792C688.654 482.999 689.353 482.3 689.353 481.438C689.353 480.576 688.654 479.877 687.792 479.877Z" fill="white"></path><path d="M669.731 479.617H652.057C651.195 479.617 650.496 480.316 650.496 481.178C650.496 482.04 651.195 482.739 652.057 482.739H669.731C670.593 482.739 671.292 482.04 671.292 481.178C671.292 480.316 670.593 479.617 669.731 479.617Z" fill="white"></path><path d="M652.559 507.897H649.715C648.853 507.897 648.154 508.596 648.154 509.459C648.154 510.321 648.853 511.02 649.715 511.02H652.559C653.421 511.02 654.12 510.321 654.12 509.459C654.12 508.596 653.421 507.897 652.559 507.897Z" fill="white"></path><path d="M661.774 507.897H658.93C658.068 507.897 657.369 508.596 657.369 509.459C657.369 510.321 658.068 511.02 658.93 511.02H661.774C662.636 511.02 663.335 510.321 663.335 509.459C663.335 508.596 662.636 507.897 661.774 507.897Z" fill="white"></path><path d="M687.076 508.158H669.403C668.54 508.158 667.841 508.857 667.841 509.719C667.841 510.581 668.54 511.28 669.403 511.28H687.076C687.939 511.28 688.638 510.581 688.638 509.719C688.638 508.857 687.939 508.158 687.076 508.158Z" fill="white"></path><path d="M620.036 507.897H617.192C616.33 507.897 615.631 508.596 615.631 509.459C615.631 510.321 616.33 511.02 617.192 511.02H620.036C620.898 511.02 621.597 510.321 621.597 509.459C621.597 508.596 620.898 507.897 620.036 507.897Z" fill="white"></path><path d="M643.712 508.158H626.039C625.176 508.158 624.477 508.857 624.477 509.719C624.477 510.581 625.176 511.28 626.039 511.28H643.712C644.575 511.28 645.274 510.581 645.274 509.719C645.274 508.857 644.575 508.158 643.712 508.158Z" fill="white"></path><path d="M628.709 500.851H625.865C625.003 500.851 624.304 501.55 624.304 502.412C624.304 503.274 625.003 503.973 625.865 503.973H628.709C629.571 503.973 630.27 503.274 630.27 502.412C630.27 501.55 629.571 500.851 628.709 500.851Z" fill="white"></path><path d="M661.232 500.851H658.388C657.526 500.851 656.827 501.55 656.827 502.412C656.827 503.274 657.526 503.973 658.388 503.973H661.232C662.094 503.973 662.793 503.274 662.793 502.412C662.793 501.55 662.094 500.851 661.232 500.851Z" fill="white"></path><path d="M670.446 500.851H667.603C666.741 500.851 666.042 501.55 666.042 502.412C666.042 503.274 666.741 503.973 667.603 503.973H670.446C671.309 503.973 672.008 503.274 672.008 502.412C672.008 501.55 671.309 500.851 670.446 500.851Z" fill="white"></path><path d="M652.385 501.111H634.711C633.849 501.111 633.15 501.81 633.15 502.672C633.15 503.534 633.849 504.233 634.711 504.233H652.385C653.247 504.233 653.946 503.534 653.946 502.672C653.946 501.81 653.247 501.111 652.385 501.111Z" fill="white"></path><path d="M637.381 493.804H634.538C633.676 493.804 632.977 494.503 632.977 495.365C632.977 496.227 633.676 496.926 634.538 496.926H637.381C638.244 496.926 638.943 496.227 638.943 495.365C638.943 494.503 638.244 493.804 637.381 493.804Z" fill="white"></path><path d="M669.904 493.804H667.061C666.199 493.804 665.5 494.503 665.5 495.365C665.5 496.227 666.199 496.926 667.061 496.926H669.904C670.767 496.926 671.466 496.227 671.466 495.365C671.466 494.503 670.767 493.804 669.904 493.804Z" fill="white"></path><path d="M679.119 493.804H676.276C675.414 493.804 674.715 494.503 674.715 495.365C674.715 496.227 675.414 496.926 676.276 496.926H679.119C679.982 496.926 680.68 496.227 680.68 495.365C680.68 494.503 679.982 493.804 679.119 493.804Z" fill="white"></path><path d="M661.058 494.064H643.384C642.522 494.064 641.823 494.763 641.823 495.626C641.823 496.488 642.522 497.187 643.384 497.187H661.058C661.92 497.187 662.619 496.488 662.619 495.626C662.619 494.763 661.92 494.064 661.058 494.064Z" fill="white"></path><path d="M646.054 486.758H643.211C642.348 486.758 641.649 487.457 641.649 488.319C641.649 489.181 642.348 489.88 643.211 489.88H646.054C646.916 489.88 647.615 489.181 647.615 488.319C647.615 487.457 646.916 486.758 646.054 486.758Z" fill="white"></path><path d="M678.577 486.758H675.734C674.871 486.758 674.172 487.457 674.172 488.319C674.172 489.181 674.871 489.88 675.734 489.88H678.577C679.439 489.88 680.138 489.181 680.138 488.319C680.138 487.457 679.439 486.758 678.577 486.758Z" fill="white"></path><path d="M687.792 486.758H684.948C684.086 486.758 683.387 487.457 683.387 488.319C683.387 489.181 684.086 489.88 684.948 489.88H687.792C688.654 489.88 689.353 489.181 689.353 488.319C689.353 487.457 688.654 486.758 687.792 486.758Z" fill="white"></path><path d="M669.731 487.018H652.057C651.195 487.018 650.496 487.717 650.496 488.579C650.496 489.441 651.195 490.14 652.057 490.14H669.731C670.593 490.14 671.292 489.441 671.292 488.579C671.292 487.717 670.593 487.018 669.731 487.018Z" fill="white"></path><path d="M604.917 590.482L591.568 569.38L633.47 535.977L650.765 516.816C653.012 514.327 655.873 512.471 659.062 511.433C662.251 510.396 665.657 510.214 668.938 510.905C672.22 511.596 675.262 513.136 677.762 515.372C680.262 517.607 682.131 520.46 683.183 523.644C684.742 528.363 684.407 533.502 682.248 537.979C680.089 542.455 676.276 545.917 671.613 547.635L644.264 557.71L604.917 590.482Z" fill="#FFB6B6"></path><path d="M291.69 437.481V540.041H363.54V437.481C363.541 436.743 363.306 436.025 362.868 435.431C362.431 434.837 361.815 434.399 361.11 434.181C360.778 434.071 360.43 434.017 360.08 434.021H295.16C294.705 434.02 294.254 434.109 293.833 434.282C293.413 434.456 293.03 434.71 292.708 435.032C292.386 435.353 292.13 435.735 291.955 436.155C291.78 436.575 291.69 437.026 291.69 437.481V437.481ZM319.73 472.721C319.749 470.699 320.565 468.766 322.001 467.343C323.438 465.92 325.378 465.122 327.4 465.122C329.422 465.122 331.362 465.92 332.798 467.343C334.235 468.766 335.051 470.699 335.07 472.721V484.621C335.06 486.648 334.247 488.589 332.81 490.019C331.372 491.449 329.427 492.252 327.4 492.252C325.372 492.252 323.428 491.449 321.99 490.019C320.553 488.589 319.74 486.648 319.73 484.621V472.721Z" fill="#2F2E41"></path><path d="M291.47 536.761V546.651C291.472 547.163 291.675 547.654 292.036 548.017C292.398 548.381 292.888 548.587 293.4 548.591H361.83C362.343 548.588 362.834 548.383 363.195 548.019C363.557 547.656 363.76 547.164 363.76 546.651V536.761H291.47Z" fill="#3F3D56"></path><path d="M178.66 282.961V470.221C178.662 472.607 179.611 474.895 181.298 476.583C182.986 478.27 185.274 479.219 187.66 479.221H465.16C467.546 479.219 469.834 478.27 471.522 476.583C473.209 474.895 474.158 472.607 474.16 470.221V282.961C474.154 280.577 473.204 278.292 471.517 276.607C469.83 274.922 467.544 273.974 465.16 273.971H187.66C185.276 273.974 182.99 274.922 181.303 276.607C179.616 278.292 178.666 280.577 178.66 282.961Z" fill="#3F3D56"></path><path d="M185.17 285.291V467.911C185.172 469.186 185.68 470.408 186.581 471.31C187.483 472.211 188.705 472.719 189.98 472.721H462.85C464.125 472.719 465.347 472.211 466.249 471.31C467.15 470.408 467.658 469.186 467.66 467.911V285.291C467.66 284.014 467.153 282.79 466.252 281.886C465.35 280.983 464.127 280.474 462.85 280.471H189.98C188.703 280.474 187.48 280.983 186.578 281.886C185.677 282.79 185.17 284.014 185.17 285.291Z" fill="white"></path><path d="M235.81 547.921C236.088 548.269 236.441 548.55 236.843 548.742C237.244 548.934 237.685 549.033 238.13 549.031H400.47C400.914 549.03 401.352 548.931 401.753 548.74C402.154 548.548 402.507 548.27 402.786 547.925C403.066 547.581 403.265 547.178 403.37 546.746C403.474 546.315 403.481 545.865 403.39 545.431L400.87 533.461C400.765 532.973 400.541 532.518 400.216 532.139C399.891 531.76 399.476 531.469 399.01 531.291C398.672 531.158 398.313 531.09 397.95 531.091H240.64C240.277 531.09 239.918 531.158 239.58 531.291C239.114 531.469 238.699 531.76 238.374 532.139C238.049 532.518 237.824 532.973 237.72 533.461L235.2 545.431C235.11 545.865 235.119 546.314 235.224 546.745C235.33 547.175 235.53 547.577 235.81 547.921Z" fill="#2F2E41"></path><path d="M453.995 305.628H198.671C198.406 305.622 198.153 305.512 197.968 305.322C197.782 305.133 197.678 304.878 197.678 304.612C197.678 304.347 197.782 304.092 197.968 303.902C198.153 303.712 198.406 303.603 198.671 303.597H453.995C454.26 303.603 454.512 303.712 454.698 303.902C454.884 304.092 454.988 304.347 454.988 304.612C454.988 304.878 454.884 305.133 454.698 305.322C454.512 305.512 454.26 305.622 453.995 305.628V305.628Z" fill="#3F3D56"></path><path d="M216.051 298.413C219.338 298.413 222.002 295.689 222.002 292.33C222.002 288.97 219.338 286.247 216.051 286.247C212.765 286.247 210.101 288.97 210.101 292.33C210.101 295.689 212.765 298.413 216.051 298.413Z" fill="#3F3D56"></path><path d="M236.607 298.413C239.894 298.413 242.558 295.689 242.558 292.33C242.558 288.97 239.894 286.247 236.607 286.247C233.321 286.247 230.657 288.97 230.657 292.33C230.657 295.689 233.321 298.413 236.607 298.413Z" fill="#3F3D56"></path><path d="M257.163 298.413C260.45 298.413 263.114 295.689 263.114 292.33C263.114 288.97 260.45 286.247 257.163 286.247C253.877 286.247 251.213 288.97 251.213 292.33C251.213 295.689 253.877 298.413 257.163 298.413Z" fill="#3F3D56"></path><path d="M441.616 287.751H427.016C426.728 287.758 426.453 287.877 426.251 288.083C426.05 288.29 425.937 288.567 425.937 288.856C425.937 289.145 426.05 289.422 426.251 289.628C426.453 289.835 426.728 289.954 427.016 289.961H441.616C441.907 289.957 442.184 289.839 442.388 289.632C442.592 289.425 442.706 289.146 442.706 288.856C442.706 288.565 442.592 288.287 442.388 288.08C442.184 287.873 441.907 287.755 441.616 287.751Z" fill="#3F3D56"></path><path d="M441.616 291.901H427.016C426.728 291.907 426.453 292.027 426.251 292.233C426.049 292.44 425.935 292.717 425.935 293.006C425.935 293.295 426.049 293.572 426.251 293.779C426.453 293.985 426.728 294.104 427.016 294.111H441.616C441.907 294.107 442.185 293.989 442.389 293.783C442.594 293.576 442.708 293.297 442.708 293.006C442.708 292.715 442.594 292.436 442.389 292.229C442.185 292.022 441.907 291.904 441.616 291.901V291.901Z" fill="#3F3D56"></path><path d="M441.616 296.051H427.016C426.728 296.058 426.453 296.177 426.251 296.383C426.05 296.59 425.937 296.867 425.937 297.156C425.937 297.444 426.05 297.722 426.251 297.928C426.453 298.135 426.728 298.254 427.016 298.261H441.616C441.907 298.257 442.184 298.138 442.388 297.932C442.592 297.725 442.706 297.446 442.706 297.156C442.706 296.865 442.592 296.587 442.388 296.38C442.184 296.173 441.907 296.055 441.616 296.051V296.051Z" fill="#3F3D56"></path><path d="M793.596 541.101C794.036 542.384 794.872 543.494 795.983 544.272C797.094 545.05 798.423 545.457 799.779 545.432L826.271 544.75C827.637 544.724 828.957 544.256 830.035 543.416C831.113 542.577 831.891 541.411 832.251 540.093L836 500.006C837.33 500.609 838.778 500.906 840.238 500.877C841.507 500.845 842.756 500.564 843.916 500.049C845.076 499.534 846.122 498.796 846.997 497.877C847.871 496.957 848.556 495.875 849.012 494.691C849.468 493.507 849.686 492.245 849.654 490.976C849.622 489.708 849.341 488.458 848.826 487.299C848.311 486.139 847.573 485.092 846.654 484.218C845.734 483.344 844.652 482.659 843.468 482.203C842.284 481.747 841.022 481.529 839.753 481.56C839.17 481.559 838.588 481.619 838.017 481.741C837.397 481.07 836.642 480.536 835.803 480.173C834.963 479.811 834.057 479.629 833.143 479.638L792.393 480.69C792.055 480.703 791.718 480.745 791.387 480.815C790.494 480.982 789.646 481.338 788.902 481.859C788.157 482.381 787.533 483.056 787.071 483.839C786.61 484.622 786.321 485.495 786.225 486.399C786.129 487.303 786.227 488.217 786.514 489.08L793.596 541.101ZM836.769 497.284L839.437 487.732C839.74 486.628 839.747 485.464 839.457 484.357C839.587 484.357 839.701 484.295 839.83 484.295C841.659 484.257 843.429 484.946 844.751 486.211C846.072 487.476 846.839 489.213 846.882 491.042C846.924 492.871 846.24 494.643 844.979 495.968C843.718 497.293 841.983 498.064 840.154 498.112C838.971 498.149 837.801 497.863 836.769 497.284Z" fill="#2F2E41"></path><path d="M791.387 480.815C792.256 485.779 802.017 489.269 813.753 488.662C824.546 488.165 833.371 484.375 834.987 479.884C834.389 479.707 833.767 479.624 833.143 479.638L792.393 480.69C792.055 480.703 791.718 480.744 791.387 480.815V480.815Z" fill="#3F3D56"></path><path d="M815.904 519.073C815.958 519.059 816.009 519.037 816.055 519.007L821.808 515.241C821.878 515.196 821.935 515.134 821.975 515.061C822.014 514.988 822.035 514.906 822.035 514.823C822.035 514.74 822.014 514.658 821.975 514.585C821.935 514.512 821.878 514.45 821.809 514.405L815.829 510.488C815.774 510.452 815.713 510.427 815.648 510.414C815.583 510.402 815.517 510.402 815.452 510.415C815.388 510.429 815.327 510.454 815.272 510.491C815.218 510.528 815.171 510.576 815.135 510.631C815.099 510.686 815.074 510.747 815.062 510.812C815.05 510.877 815.051 510.943 815.064 511.008C815.078 511.072 815.104 511.133 815.141 511.187C815.178 511.242 815.226 511.288 815.281 511.324L820.622 514.822L815.508 518.17C815.409 518.235 815.336 518.333 815.302 518.446C815.269 518.559 815.276 518.681 815.324 518.789C815.371 518.898 815.456 518.986 815.562 519.038C815.668 519.089 815.79 519.102 815.904 519.073H815.904Z" fill="#004D78"></path><path d="M806.818 519.492C806.914 519.468 807.001 519.415 807.068 519.341C807.134 519.266 807.177 519.174 807.19 519.075C807.204 518.977 807.188 518.876 807.144 518.787C807.1 518.698 807.03 518.623 806.944 518.574L801.641 515.533L806.766 511.726C806.819 511.687 806.863 511.638 806.897 511.582C806.931 511.525 806.953 511.463 806.963 511.398C806.972 511.333 806.969 511.267 806.953 511.203C806.937 511.14 806.908 511.08 806.869 511.027C806.83 510.974 806.781 510.93 806.725 510.896C806.668 510.863 806.606 510.84 806.541 510.831C806.476 510.821 806.41 510.825 806.346 510.841C806.283 510.857 806.223 510.885 806.17 510.924L800.432 515.187C800.365 515.236 800.312 515.301 800.276 515.377C800.241 515.452 800.225 515.535 800.23 515.617C800.235 515.7 800.261 515.781 800.304 515.851C800.348 515.922 800.409 515.98 800.481 516.021L806.446 519.441C806.559 519.506 806.692 519.524 806.818 519.492V519.492Z" fill="#004D78"></path><path d="M815.332 522.373C815.381 522.361 815.427 522.341 815.469 522.315C815.525 522.281 815.574 522.236 815.613 522.183C815.652 522.13 815.68 522.07 815.695 522.006C815.711 521.942 815.714 521.876 815.704 521.811C815.694 521.746 815.671 521.684 815.637 521.628L807.481 508.22C807.412 508.107 807.301 508.026 807.172 507.994C807.043 507.963 806.907 507.985 806.794 508.054C806.681 508.123 806.6 508.234 806.568 508.362C806.537 508.491 806.558 508.627 806.627 508.74L814.782 522.149C814.838 522.24 814.921 522.311 815.02 522.351C815.119 522.392 815.229 522.399 815.332 522.373Z" fill="#004D78"></path><path d="M356.84 360.827H312.649C310.846 360.827 309.385 362.289 309.385 364.091V368.409C309.385 370.211 310.846 371.673 312.649 371.673H356.84C358.642 371.673 360.104 370.211 360.104 368.409V364.091C360.104 362.289 358.642 360.827 356.84 360.827Z" fill="#004D78"></path><path d="M382.598 382.519H286.89C285.087 382.519 283.626 383.98 283.626 385.783V390.1C283.626 391.903 285.087 393.364 286.89 393.364H382.598C384.401 393.364 385.862 391.903 385.862 390.1V385.783C385.862 383.98 384.401 382.519 382.598 382.519Z" fill="#E6E6E6"></path><path d="M382.598 404.21H286.89C285.087 404.21 283.626 405.671 283.626 407.474V411.792C283.626 413.594 285.087 415.056 286.89 415.056H382.598C384.401 415.056 385.862 413.594 385.862 411.792V407.474C385.862 405.671 384.401 404.21 382.598 404.21Z" fill="#E6E6E6"></path><path d="M390.711 476.846L390.928 477.53L390.939 477.553L397.464 497.391L404.971 520.252L419.093 563.213L419.23 569.887V569.91L420.28 623.594L417.371 630.872L420.645 642.805C420.645 642.805 419.139 624.768 411.062 635.126C406.488 641.012 401.138 647.035 396.746 652.682C403.146 655.272 409.648 657.614 416.253 659.709C417.679 660.166 419.116 660.599 420.554 661.033C420.862 661.124 421.17 661.215 421.478 661.306C443.372 667.781 466.008 671.42 488.829 672.132C490.015 672.167 491.179 672.189 492.308 672.212C492.707 672.224 493.095 672.235 493.483 672.235C494.761 672.246 496.027 672.258 497.304 672.258C499.883 672.258 502.449 672.22 505.005 672.144C523.918 671.611 542.721 669.068 561.096 664.558C560.971 656.971 560.628 648.108 560.138 638.639C559.91 633.996 554.788 628.966 554.48 624.106C554.263 620.456 558.86 617.022 558.621 613.314C557.069 590.488 555.13 599.25 553.693 583.085C553.544 581.5 553.407 579.983 553.282 578.534C552.358 568.153 551.719 561.662 551.719 561.662L557.856 522.979L567.496 462.244L566.754 461.023L565.922 460.613L515.078 435.447L512.317 428.375C511.513 426.337 510.117 424.587 508.31 423.349C506.502 422.111 504.366 421.441 502.176 421.427L468.683 421.291C466.944 421.283 465.229 421.689 463.68 422.477C462.13 423.265 460.791 424.411 459.773 425.819L450.704 438.379L390.711 476.846Z" fill="#3F3D56"></path><path d="M426.816 553.654L419.23 569.887L414.051 580.975L405.142 627.621L400.682 632.355L396.86 615.596L356.862 624.477C355.55 617.187 356.511 624.723 355.701 616.727C355.929 616.499 356.169 616.27 356.408 616.042C357.047 615.449 357.583 614.89 357.572 614.354C357.116 586.77 358.485 539.828 369.915 511.388C371.705 506.745 374.066 502.342 376.942 498.281C377.17 497.973 377.387 497.665 377.604 497.357C382.874 489.976 386.205 482.709 390.928 477.542V477.53C390.957 477.507 390.984 477.48 391.008 477.451C391.025 477.442 391.04 477.43 391.053 477.416L423.497 460.214L424.889 499.319L425.881 527.427L426.816 553.654Z" fill="#3F3D56"></path><path d="M543.801 558.264L553.277 578.539L556.585 585.6L565.492 632.242L569.937 636.965L573.768 620.209L575.568 619.84L608.026 613.118L617.487 643.164C619.619 639.611 620.459 635.431 619.865 631.33C619.271 627.23 617.278 623.46 614.225 620.658C613.579 620.074 613.041 619.505 613.056 618.966C613.595 586.523 611.61 527.283 593.689 502.9C587.997 495.163 584.582 487.456 579.613 482.072C579.598 482.056 579.598 482.041 579.583 482.041L567.491 462.243L566.753 461.027L565.922 460.612L543.801 558.264Z" fill="#3F3D56"></path><path d="M486.397 411.759C511.005 411.759 530.955 391.809 530.955 367.2C530.955 342.592 511.005 322.642 486.397 322.642C461.788 322.642 441.838 342.592 441.838 367.2C441.838 391.809 461.788 411.759 486.397 411.759Z" fill="#FFB6B6"></path><path d="M546.622 336.077C546.277 335.708 545.861 335.412 545.398 335.208C544.936 335.003 544.438 334.894 543.932 334.887L544.602 333.027C544.821 332.441 544.88 331.807 544.773 331.191C544.667 330.575 544.398 329.998 543.995 329.52C543.592 329.042 543.069 328.679 542.48 328.47C541.891 328.26 541.257 328.211 540.642 328.327L538.202 328.797L538.432 327.167C538.52 326.56 538.449 325.94 538.225 325.369C538.001 324.798 537.633 324.295 537.155 323.909C536.678 323.524 536.109 323.269 535.503 323.171C534.898 323.072 534.277 323.133 533.702 323.347C533.179 323.553 532.617 323.639 532.056 323.599C531.496 323.559 530.951 323.395 530.462 323.117C529.972 322.848 529.546 322.475 529.214 322.024C528.882 321.573 528.653 321.055 528.542 320.507L527.692 316.407L527.602 316.187C523.462 309.287 515.502 304.267 505.762 302.427C497.092 300.777 488.202 301.617 479.632 302.407C476.232 302.727 472.392 303.087 469.192 305.047C466.472 306.727 464.172 310.087 464.642 313.477C456.192 310.887 447.132 316.057 442.642 322.577C437.322 330.337 436.452 340.057 436.312 347.657C435.932 365.637 439.642 380.347 447.312 391.387C447.872 392.187 448.012 393.857 449.122 394.417L448.892 394.047C450.132 394.667 451.392 395.667 450.922 396.737C449.572 399.817 458.542 406.627 464.862 408.877C476.392 412.987 491.722 412.637 502.502 411.157L502.882 408.607C506.772 408.077 509.512 407.067 510.282 405.487C511.642 404.327 512.802 403.287 513.812 402.327L513.822 402.317C513.842 402.297 513.882 402.267 513.902 402.247C518.772 397.577 519.902 394.917 520.412 390.867C520.902 386.897 520.032 382.867 519.142 379.237C537.882 382.137 511.762 359.277 529.222 354.857C529.422 354.795 529.626 354.745 529.832 354.707C530.342 354.587 530.852 354.467 531.342 354.327C533.704 353.686 535.966 352.72 538.062 351.457C542.942 348.487 544.552 344.547 547.072 340.107C547.436 339.475 547.588 338.743 547.507 338.018C547.426 337.293 547.116 336.613 546.622 336.077V336.077Z" fill="#2F2E41"></path><path d="M643.992 561.437C643.982 563.187 643.962 565.637 643.882 568.667C643.872 569.087 643.862 569.517 643.852 569.957C643.722 575.527 643.592 580.197 643.382 585.387C643.372 585.747 643.362 586.097 643.342 586.457C643.062 593.697 642.622 602.127 641.862 615.477C640.452 640.137 637.992 618.867 635.522 627.517C635.402 627.947 635.272 628.457 635.152 629.057C634.778 631.234 634.147 633.359 633.272 635.387C631.962 636.167 630.612 636.917 629.282 637.667C625.492 639.777 621.642 641.807 617.762 643.737C615.582 644.817 613.392 645.877 611.192 646.897C610.842 647.057 610.502 647.217 610.162 647.367C598.896 652.578 587.286 657.008 575.412 660.627C573.092 661.327 570.782 662.007 568.442 662.637C566.002 663.317 563.562 663.957 561.092 664.557C542.717 669.068 523.915 671.612 505.002 672.147C502.452 672.227 499.882 672.257 497.302 672.257C496.022 672.257 494.762 672.247 493.482 672.237C493.092 672.237 492.702 672.227 492.312 672.217C491.182 672.187 490.012 672.167 488.832 672.137C466.011 671.425 443.376 667.785 421.482 661.307L420.552 661.037C419.112 660.597 417.682 660.167 416.252 659.707C409.652 657.617 403.149 655.277 396.742 652.687C391.852 650.717 387.019 648.603 382.242 646.347C382.199 646.335 382.158 646.315 382.122 646.287C381.122 645.827 380.112 645.347 379.112 644.857C378.982 644.787 378.842 644.717 378.702 644.647C374.972 642.827 371.282 640.92 367.632 638.927C364.562 631.877 360.242 630.527 357.562 624.327C356.782 622.485 356.218 620.559 355.882 618.587C355.882 618.567 355.872 618.547 355.872 618.517C356.152 622.237 354.682 611.917 355.862 618.477C355.852 618.357 355.842 618.227 355.832 618.077C355.802 617.717 355.762 617.277 355.702 616.727C352.272 583.237 352.492 544.937 351.002 513.377C350.902 511.337 350.799 509.383 350.692 507.517C350.662 506.897 350.622 506.287 350.582 505.687C350.652 505.507 350.732 505.317 350.822 505.137C350.841 505.085 350.865 505.035 350.892 504.987C350.922 504.925 350.955 504.865 350.992 504.807C351.012 504.777 351.042 504.737 351.062 504.707C351.077 504.672 351.094 504.639 351.112 504.607C351.202 504.467 351.302 504.317 351.412 504.177C351.462 504.117 351.502 504.067 351.552 504.017C351.587 503.966 351.627 503.919 351.672 503.877C351.703 503.829 351.74 503.785 351.782 503.747C351.822 503.707 351.862 503.657 351.912 503.607C351.934 503.575 351.961 503.548 351.992 503.527C352.071 503.436 352.158 503.352 352.252 503.277C352.609 502.949 352.99 502.648 353.392 502.377C353.532 502.287 353.682 502.197 353.822 502.097C354.83 501.494 355.891 500.985 356.992 500.577C357.372 500.437 357.752 500.307 358.162 500.167C358.312 500.127 358.452 500.077 358.602 500.027C358.822 499.957 359.042 499.887 359.272 499.837C360.412 499.497 361.642 499.207 362.972 498.937C363.132 498.907 363.302 498.877 363.472 498.837C363.712 498.787 363.962 498.747 364.212 498.707C364.552 498.647 364.902 498.587 365.252 498.527C368.222 498.057 371.592 497.707 375.312 497.477C375.662 497.457 376.012 497.437 376.362 497.417C376.772 497.397 377.182 497.377 377.602 497.357C377.952 497.337 378.312 497.327 378.672 497.317C379.022 497.297 379.382 497.287 379.752 497.277C380.762 497.247 381.802 497.217 382.862 497.197C385.882 497.137 389.062 497.157 392.402 497.227C393.952 497.267 395.532 497.307 397.152 497.377C397.262 497.377 397.362 497.387 397.462 497.387C398.872 497.437 400.292 497.497 401.752 497.577C402.772 497.627 403.802 497.677 404.832 497.737C405.802 497.797 406.782 497.857 407.772 497.927C408.542 497.967 409.312 498.027 410.092 498.077C410.752 498.127 411.412 498.177 412.072 498.217L412.972 498.277C413.462 498.317 413.952 498.347 414.452 498.397C415.552 498.487 416.652 498.577 417.772 498.667C418.882 498.767 420.012 498.867 421.142 498.967C422.272 499.067 423.412 499.177 424.552 499.287C424.672 499.297 424.782 499.307 424.892 499.317C425.932 499.427 426.972 499.527 428.022 499.637C428.262 499.657 428.512 499.677 428.752 499.707C429.753 499.807 430.774 499.925 431.784 500.032C432.094 500.066 432.403 500.098 432.714 500.132C433.505 500.218 434.285 500.293 435.082 500.387C436.132 500.507 437.202 500.617 438.242 500.757C439.052 500.847 439.862 500.937 440.672 501.037C441.942 501.187 443.232 501.347 444.522 501.517C445.012 501.577 445.502 501.637 445.992 501.707C449.672 502.167 453.392 502.677 457.172 503.207C462.902 504.017 468.722 504.897 474.582 505.847C480.452 506.797 486.356 507.8 492.292 508.857C493.792 509.127 495.292 509.397 496.802 509.677C497.482 509.807 498.162 509.937 498.842 510.067C500.002 510.277 501.162 510.497 502.322 510.717C503.482 510.937 504.642 511.157 505.802 511.387C507.182 511.657 508.572 511.927 509.952 512.197C519.042 513.997 528.082 515.917 536.902 517.927C538.352 518.257 539.802 518.597 541.242 518.927C544.122 519.597 546.975 520.277 549.802 520.967C550.582 521.147 551.352 521.337 552.122 521.527C554.042 522.007 555.962 522.487 557.852 522.977L558.182 523.067C559.572 523.407 560.932 523.757 562.292 524.117C565.502 524.957 568.659 525.807 571.762 526.667C573.822 527.237 575.859 527.813 577.872 528.397C580.882 529.267 583.832 530.147 586.702 531.037C587.412 531.257 588.122 531.477 588.822 531.687C590.922 532.337 592.992 532.997 595.002 533.657C596.602 534.177 598.162 534.707 599.702 535.237C601.242 535.767 602.752 536.297 604.232 536.827C605.182 537.167 606.122 537.527 607.062 537.867C608.412 538.367 609.742 538.867 611.042 539.367C611.442 539.517 611.832 539.677 612.222 539.827C612.472 539.937 612.712 540.027 612.952 540.127C613.422 540.317 613.902 540.497 614.362 540.687C614.832 540.867 615.292 541.057 615.752 541.257C616.202 541.437 616.662 541.627 617.102 541.817C617.552 541.997 617.992 542.187 618.432 542.387C618.802 542.537 619.162 542.697 619.512 542.857C620.222 543.167 620.932 543.477 621.622 543.797C621.962 543.957 622.302 544.107 622.642 544.267L623.422 544.627C623.532 544.687 623.642 544.737 623.752 544.787C624.002 544.907 624.262 545.037 624.512 545.157C625.092 545.427 625.662 545.717 626.222 545.987C626.972 546.367 627.702 546.747 628.402 547.117C629.112 547.497 629.802 547.877 630.462 548.247C630.572 548.307 630.672 548.367 630.782 548.427C630.932 548.507 631.082 548.597 631.232 548.677C631.742 548.967 632.232 549.267 632.722 549.557C633.682 550.147 634.592 550.727 635.442 551.307C635.632 551.437 635.812 551.567 636.002 551.687C636.632 552.137 637.232 552.577 637.792 553.027C637.792 553.037 637.792 553.037 637.802 553.037C637.992 553.177 638.172 553.327 638.352 553.467C638.502 553.607 638.662 553.727 638.812 553.867C639.332 554.317 639.812 554.747 640.252 555.187C640.4 555.322 640.54 555.466 640.672 555.617C640.73 555.665 640.784 555.718 640.832 555.777C641.032 555.977 641.212 556.177 641.382 556.377C641.408 556.404 641.432 556.434 641.452 556.467C641.692 556.747 641.912 557.027 642.122 557.307C642.222 557.447 642.332 557.587 642.422 557.727C642.542 557.897 642.662 558.077 642.762 558.247C642.852 558.387 642.932 558.537 643.012 558.677C643.224 559.037 643.405 559.415 643.552 559.807C643.665 560.072 643.755 560.346 643.822 560.627C643.898 560.892 643.955 561.163 643.992 561.437V561.437Z" fill="#2F2E41"></path><path opacity="0.2" d="M643.992 561.437C643.982 563.187 643.962 565.637 643.882 568.667C643.872 569.087 643.852 569.517 643.842 569.957C643.742 574.207 643.592 579.457 643.382 585.387C643.372 585.747 643.362 586.097 643.342 586.457C643.062 593.697 642.622 602.127 641.862 615.477C640.452 640.137 637.992 618.867 635.522 627.517C628.662 623.297 621.142 618.877 613.102 614.337C611.652 613.517 610.189 612.693 608.712 611.867C592.632 602.897 574.672 593.497 555.922 584.187C555.182 583.817 554.432 583.447 553.692 583.087C510.742 561.857 463.862 541.207 425.882 527.427C418.552 524.767 411.552 522.367 404.972 520.257C391.112 515.827 379.132 512.727 369.912 511.387C360.312 509.987 353.682 510.487 351.002 513.377C350.902 511.337 350.799 509.383 350.692 507.517C350.652 506.897 350.612 506.287 350.572 505.687C350.634 505.522 350.714 505.365 350.792 505.207C350.803 505.183 350.811 505.16 350.822 505.137C350.841 505.085 350.865 505.035 350.892 504.987C350.922 504.925 350.955 504.865 350.992 504.807C351.025 504.736 351.065 504.669 351.112 504.607C351.202 504.467 351.302 504.317 351.412 504.177C351.493 504.072 351.58 503.972 351.672 503.877C351.703 503.829 351.74 503.785 351.782 503.747C351.822 503.707 351.862 503.657 351.912 503.607C351.934 503.575 351.961 503.548 351.992 503.527C352.071 503.436 352.158 503.352 352.252 503.277C352.609 502.948 352.99 502.648 353.392 502.377C353.532 502.287 353.682 502.197 353.822 502.097C354.83 501.494 355.891 500.985 356.992 500.577C357.372 500.437 357.752 500.307 358.162 500.167C358.312 500.127 358.452 500.077 358.602 500.027C358.822 499.957 359.042 499.887 359.272 499.837C360.412 499.497 361.642 499.207 362.972 498.937C363.372 498.857 363.792 498.777 364.212 498.707C364.552 498.647 364.902 498.587 365.252 498.527C368.222 498.057 371.592 497.707 375.312 497.477C375.662 497.457 376.012 497.437 376.362 497.417C376.772 497.397 377.182 497.377 377.602 497.357C377.952 497.337 378.312 497.327 378.672 497.317C379.022 497.297 379.382 497.287 379.752 497.277C380.762 497.247 381.802 497.217 382.862 497.197C385.882 497.147 389.062 497.167 392.402 497.237C393.952 497.267 395.532 497.317 397.152 497.387C397.252 497.387 397.362 497.397 397.462 497.397C398.872 497.437 400.302 497.507 401.752 497.577C402.772 497.627 403.802 497.677 404.832 497.737C405.802 497.797 406.782 497.857 407.772 497.927C408.542 497.967 409.312 498.027 410.092 498.077C410.752 498.127 411.412 498.177 412.072 498.217C412.862 498.277 413.652 498.337 414.452 498.397C415.552 498.487 416.652 498.577 417.772 498.667C418.882 498.767 420.012 498.867 421.142 498.967C422.272 499.067 423.412 499.177 424.552 499.287C424.672 499.297 424.782 499.307 424.892 499.317C425.932 499.427 426.972 499.527 428.022 499.637C433.842 500.227 439.832 500.917 445.992 501.707C449.672 502.177 453.399 502.68 457.172 503.217C462.902 504.027 468.722 504.907 474.582 505.847C480.452 506.797 486.356 507.8 492.292 508.857C493.792 509.127 495.292 509.397 496.802 509.677C498.642 510.017 500.482 510.363 502.322 510.717C503.482 510.937 504.642 511.157 505.802 511.387C507.182 511.657 508.572 511.927 509.952 512.197C519.042 513.997 528.082 515.917 536.902 517.927C538.352 518.257 539.802 518.597 541.242 518.927C544.122 519.597 546.976 520.277 549.802 520.967C550.582 521.157 551.352 521.347 552.122 521.537C554.052 522.017 555.962 522.497 557.852 522.977V522.987C557.962 523.007 558.072 523.037 558.182 523.067C559.562 523.417 560.932 523.767 562.292 524.127C565.502 524.967 568.659 525.813 571.762 526.667C573.822 527.247 575.862 527.817 577.872 528.397C580.882 529.277 583.832 530.157 586.702 531.037C587.412 531.257 588.122 531.477 588.822 531.687C590.922 532.347 592.982 533.003 595.002 533.657C596.602 534.177 598.162 534.707 599.702 535.237C601.242 535.767 602.752 536.297 604.232 536.827C605.192 537.167 606.132 537.517 607.062 537.857C608.422 538.357 609.742 538.857 611.042 539.367C611.442 539.517 611.832 539.677 612.222 539.827C612.952 540.107 613.662 540.397 614.362 540.687C614.832 540.867 615.292 541.057 615.752 541.257C616.202 541.437 616.662 541.627 617.102 541.817C617.552 541.997 617.992 542.187 618.432 542.387C618.802 542.537 619.162 542.697 619.512 542.857C620.222 543.167 620.932 543.477 621.622 543.797C621.962 543.957 622.302 544.107 622.642 544.267L623.422 544.627C623.532 544.687 623.642 544.737 623.752 544.787C624.602 545.187 625.422 545.587 626.222 545.987C626.972 546.367 627.702 546.747 628.402 547.117C629.232 547.557 630.022 547.987 630.782 548.427C630.932 548.507 631.082 548.597 631.232 548.677C631.742 548.967 632.232 549.267 632.722 549.557C633.682 550.147 634.592 550.727 635.442 551.307C636.282 551.887 637.062 552.457 637.792 553.027C637.792 553.037 637.792 553.037 637.802 553.037C638.152 553.317 638.492 553.597 638.812 553.867C639.332 554.317 639.812 554.747 640.252 555.187C640.4 555.322 640.54 555.466 640.672 555.617C640.73 555.665 640.784 555.718 640.832 555.777C641.042 556.007 641.252 556.237 641.452 556.467C641.692 556.747 641.912 557.027 642.122 557.307C642.222 557.447 642.332 557.587 642.422 557.727C642.542 557.897 642.662 558.077 642.762 558.247C642.852 558.387 642.932 558.537 643.012 558.677C643.225 559.037 643.405 559.415 643.552 559.807C643.662 560.073 643.752 560.347 643.822 560.627C643.898 560.892 643.955 561.163 643.992 561.437V561.437Z" fill="black"></path></g><defs><clipPath id="clip0_91_22552"><rect width="786.82" height="572.258" fill="white" transform="translate(100 100)"></rect></clipPath></defs></svg>