<?xml version="1.0" standalone="no"?>
<!DOCTYPE svg PUBLIC "-//W3C//DTD SVG 20010904//EN"
 "http://www.w3.org/TR/2001/REC-SVG-20010904/DTD/svg10.dtd">
<svg version="1.0" xmlns="http://www.w3.org/2000/svg"
 width="360.000000pt" height="360.000000pt" viewBox="0 0 360.000000 360.000000"
 preserveAspectRatio="xMidYMid meet">
<metadata>
Created by potrace 1.14, written by Peter Selinger 2001-2017
</metadata>
<g transform="translate(0.000000,360.000000) scale(0.100000,-0.100000)"
fill="#000000" stroke="none">
<path d="M574 3585 c-259 -56 -459 -240 -546 -500 l-23 -70 -2 -1195 c-2
-1158 -1 -1197 18 -1270 66 -253 249 -444 499 -522 l75 -23 1200 0 c1350 0
1246 -6 1415 77 120 59 247 186 307 308 23 47 47 101 53 121 6 20 14 47 18 60
3 13 8 559 9 1214 2 1146 1 1193 -17 1264 -66 250 -238 434 -485 519 l-80 27
-1190 2 c-960 1 -1202 -1 -1251 -12z"/>
</g>
</svg>
