<svg width="745" height="300" viewBox="0 0 745 300" fill="none" xmlns="http://www.w3.org/2000/svg">
<path d="M571.493 237.419C587.513 232.703 609.161 236.902 607.151 209.765C606.057 195.086 608.314 188.359 615.51 184.538C632.378 175.559 662.608 164.773 662.608 134.818C655.879 134.531 649.386 132.251 643.956 128.266C669.099 134.985 680.471 129.381 701.996 113.221C700.113 112.69 698.495 111.477 697.458 109.818C702.397 102.547 706.112 94.5157 708.456 86.044C710.983 87.4252 712.882 86.8998 714.147 80.229C717.598 75.6995 720.794 71.1661 723.632 66.6446C725.885 60.8812 724.269 58.6563 722.116 56.9369C722.812 52.28 725.718 52.5586 728.938 53.5457C727.043 47.5993 722.968 47.7346 717.941 50.6322C717.621 49.8844 717.48 49.0725 717.528 48.2608C717.575 47.449 717.811 46.6594 718.216 45.9541C718.62 45.2488 719.183 44.6471 719.86 44.1963C720.537 43.7456 721.309 43.458 722.116 43.3564C717.005 39.9971 713.196 42.7235 709.976 48.2082C708.034 45.6184 708.919 43.03 712.631 40.4429C707.271 39.9812 704.109 42.7302 703.146 48.6898C698.37 47.2092 696.921 58.4414 695.934 71.4925C696.01 76.8018 694.562 82.0217 691.763 86.5336C687.846 92.3288 684.746 93.698 682.875 93.7418L690.147 97.0931C685.528 100.31 680.407 102.739 674.994 104.281C669.829 105.53 664.438 105.513 659.28 104.234C661.781 108.181 665.206 111.46 669.259 113.786C666.084 113.512 663.012 112.534 660.263 110.923C657.515 109.311 655.16 107.108 653.37 104.472C650.178 99.4813 646.344 94.9315 641.966 90.9397C651.033 98.0285 665.637 103.41 675.002 99.728L681.179 97.5708C673.458 94.6015 663.623 84.5833 659.045 81.4549C655.582 78.5352 651.392 76.6095 646.922 75.8826C643.315 75.8368 639.801 74.7293 636.82 72.6984C635.185 71.1006 633.915 69.1673 633.099 67.0318C632.283 64.8962 631.939 62.6091 632.092 60.3279C632.096 56.9561 633.197 53.6773 635.23 50.9873C637.263 48.2973 640.117 46.3424 643.36 45.4182C640.915 46.8751 638.915 48.9727 637.576 51.4842C636.238 53.9957 635.612 56.8254 635.765 59.6672C635.448 61.5774 635.671 63.5384 636.409 65.3285C637.148 67.1185 638.372 68.6663 639.944 69.7969C645.803 72.5313 648.613 70.7481 656.009 74.39L660.498 77.2359C663.49 79.2977 666.259 81.6654 668.761 84.3008C671.738 79.9225 676.642 76.5831 676.355 72.0019C674.65 72.9149 672.699 73.262 670.783 72.993C668.992 72.6268 664.562 71.4924 662.823 70.9312C662.125 70.7752 661.474 70.4611 660.917 70.0132C660.36 69.5653 659.914 68.9956 659.613 68.3479C659.311 67.7003 659.163 66.9921 659.178 66.2778C659.194 65.5636 659.373 64.8625 659.702 64.2286C661.617 60.1688 666.867 61.128 671.05 61.2553C672.766 61.202 674.47 61.5538 676.025 62.2823C676.24 64.1251 677.088 66.159 677.155 67.8545C679.687 66.8529 682.059 65.4879 684.196 63.8027C684.993 61.4145 685.999 57.5179 686.791 55.1418C685.637 52.788 684.766 50.3055 684.196 47.7465C685.29 49.1892 686.582 50.4702 688.033 51.5516C689.983 49.8983 691.257 47.5869 691.615 45.0559C685.37 40.2393 678.513 36.2722 671.225 33.2586C669.557 32.172 663.085 27.5948 660.287 26.0704C661.444 25.5727 662.464 24.8044 663.262 23.8301C664.059 22.8559 664.611 21.7041 664.87 20.472C665.13 19.2399 665.089 17.9635 664.752 16.7503C664.415 15.5371 663.792 14.4226 662.934 13.5008C658.385 7.92856 649.8 4.08369 644.884 0C644.37 1.34227 644.144 2.77789 644.221 4.21324C644.299 5.64859 644.678 7.05148 645.334 8.33058C640.597 0.680624 625.242 -2.01796 610.785 2.65082C621.417 5.06282 627.618 7.3236 631.932 12.5695C612.031 4.42203 598.407 6.31259 588.596 18.8781C596.973 16.5171 605.906 17.0944 613.91 20.514C609.146 19.9008 604.317 19.996 599.581 20.7966C592.488 22.926 589.233 24.4863 581.149 34.9781C586.901 31.3992 593.705 29.8989 600.429 30.7272C589.81 35.8139 588.166 37.5254 582.848 45.6092C579.194 53.4359 577.612 62.0705 578.255 70.6845C580.548 61.733 590.506 46.449 605.671 46.449C586.53 53.2551 574.86 85.5784 584.238 104.254C583.871 97.1688 589.77 71.0745 607.203 66.8396C595.553 78.2588 588.795 104.604 593.83 122.336L598.582 137.325C599.74 122.117 602.164 111.39 611.777 98.0404C613.409 108.445 620.955 117.078 631.451 123.788C625.568 111.175 629.019 106.367 628.963 94.7568C629.337 95.8107 629.795 96.8328 630.332 97.8135C631.409 100.589 632.091 103.502 632.358 106.467C632.444 110.895 633.022 115.3 634.082 119.601C635.167 123.349 636.624 126.978 638.432 130.435C635.389 130.379 632.405 129.591 629.731 128.139C622.76 124.264 617.174 118.308 613.755 111.103C609.064 118.736 606.067 127.288 604.967 136.179L600.986 142.316C597.658 147.913 593.33 152.85 588.218 156.884C581.79 161.33 574.001 163.065 569.28 168.1C563.704 167.532 558.197 166.414 552.842 164.761C544.997 162.313 534.732 157.632 530.353 149.238C526.083 141.047 527.93 130.177 535.854 116.915C536.77 115.382 537.665 113.874 538.541 112.417C548.34 96.0304 555.333 84.3365 559.636 75.0746L559.755 75.1184C562.835 70.0386 564.578 64.2615 564.822 58.3259C564.971 56.7573 564.971 55.1781 564.822 53.6094C563.974 39.5195 556.193 25.8992 545.212 21.3936C537.315 18.1537 527.476 23.535 522.333 27.7619C515.71 33.2228 511.515 33.4377 502.365 32.5382C504.647 37.3428 508.336 41.3404 512.942 44.001C517.548 46.6616 522.854 47.8595 528.156 47.4361C533.04 47.2291 538.855 44.5305 546.039 43.1812C546.789 43.0354 547.559 43.0354 548.308 43.1812C550.16 44.9443 551.774 46.9421 553.108 49.1237C553.651 50.0491 554.09 51.0315 554.418 52.0531C554.728 53.6633 554.917 55.2944 554.983 56.9328C554.936 57.7623 554.837 58.5879 554.685 59.4046C552.945 68.9571 544.336 83.4012 530.007 107.31L527.317 111.812C517.513 128.226 515.567 142.36 521.537 153.811C530.672 171.324 555.576 176.307 565.14 177.601C564.887 180.398 564.989 183.216 565.443 185.987C566.518 193.199 566.772 200.574 567.716 207.814C568.281 212.137 564.683 212.937 560.512 214.605C548.01 219.624 545.14 231.568 543.44 243.716C545.474 241.63 550.207 234.876 550.653 239.338C553.18 265.348 564.846 261.539 563.218 280.334C564.145 292.044 589.312 293.341 592.377 300C593.345 298.229 593.721 296.194 593.448 294.194C593.175 292.194 592.268 290.334 590.861 288.887C592.759 287.092 596.556 288.995 598.451 293.695C600.54 286.81 598.252 282.885 595.724 281.914C598.113 280.557 601.981 281.974 605.277 285.93C605.874 280.234 604.162 275.49 598.761 275.689C602.304 273.961 600.019 267.728 595.721 267.203C594.268 266.228 589.105 269.094 584.771 266.503C573.634 259.872 559.262 241.017 571.493 237.419ZM662.464 35.9452C667.241 38.6558 670.182 39.9692 670.182 39.9692C667.813 39.808 665.471 39.3671 663.205 38.6558C662.556 39.54 661.62 40.1709 660.556 40.4403C659.493 40.7098 658.369 40.6009 657.378 40.1324C656.678 39.7652 656.111 39.1871 655.757 38.48C655.404 37.7729 655.281 36.9725 655.408 36.192C655.37 35.7525 655.239 35.3262 655.022 34.9417C654.806 34.5572 654.51 34.2235 654.154 33.9631C657.068 33.6651 659.998 34.3638 662.464 35.9452Z" fill="#2E4C22"/>
<path d="M217.892 215.389C217.12 215.543 216.37 215.793 215.659 216.133C206.375 219.59 196.546 221.353 186.64 221.339C176.518 221.339 156.725 219.703 125.317 203.623L95.4016 188.296C103.352 182.834 109.861 175.528 114.371 167.002C118.882 158.476 121.259 148.985 121.301 139.339C121.301 104.512 96.5916 82.9316 61.0205 82.9316C17.4095 82.9316 0 116.27 0 140.529C0 167.32 16.9676 199.619 60.5787 199.619C68.5233 199.582 76.4107 198.274 83.9425 195.747L107.31 209.442C131.868 223.875 147.797 229.682 170.269 229.682C186.635 229.565 202.763 225.756 217.45 218.537C218.493 218.091 219.234 217.65 219.234 216.758C219.238 216.579 219.207 216.401 219.142 216.235C219.077 216.069 218.978 215.917 218.853 215.789C218.728 215.661 218.579 215.56 218.413 215.491C218.248 215.423 218.071 215.388 217.892 215.389ZM66.0794 192.184C42.1146 192.184 20.705 172.534 20.705 137.114C20.705 102.582 38.1184 90.0801 57.6174 90.0801C78.1513 90.0801 100.484 107.346 100.484 143.367C100.46 186.962 77.9881 192.184 66.0794 192.184Z" fill="#2E4C22"/>
<path d="M229.335 103.015C229.335 102.12 228.439 101.821 226.656 101.821C221.593 101.821 212.813 102.12 211.324 102.12C211.177 102.12 202.397 101.821 195.698 101.821C193.911 101.821 193.019 102.12 193.019 103.015C193.019 103.911 193.764 104.353 195.252 104.353C196.856 104.331 198.457 104.481 200.028 104.798C204.196 105.992 205.238 107.33 205.537 111.644C205.684 115.664 205.831 119.239 205.831 138.439V154.36C205.831 167.304 205.537 178.317 198.241 185.167C193.485 189.604 187.184 192.008 180.681 191.865C174.749 192.177 168.898 190.384 164.159 186.803C157.759 181.744 154.188 174.595 154.188 156.155V138.439C154.188 119.239 154.188 115.664 154.483 111.644C154.781 107.179 155.824 105.395 159.259 104.798C160.53 104.512 161.829 104.363 163.132 104.353C164.469 104.353 165.213 103.907 165.213 103.015C165.213 102.124 164.322 101.821 162.388 101.821C157.611 101.821 148.855 102.12 145.567 102.12C141.698 102.12 132.914 101.821 125.921 101.821C123.987 101.821 123.095 102.12 123.095 103.015C123.095 103.911 123.839 104.353 125.328 104.353C127.024 104.319 128.719 104.469 130.383 104.798C134.55 105.992 135.744 107.187 136.039 111.644C136.337 115.664 136.186 119.239 136.186 138.439V157.043C136.186 175.352 141.396 184.725 148.091 190.528C157.619 198.863 171.176 199.161 178.01 199.161C188.04 199.642 197.895 196.41 205.692 190.082C216.705 181.003 218.194 166.121 218.194 151.98V138.447C218.194 119.247 218.341 115.672 218.493 111.652C218.791 107.187 219.687 105.403 223.269 104.806C224.539 104.52 225.836 104.371 227.138 104.361C228.602 104.355 229.335 103.907 229.335 103.015Z" fill="#2E4C22"/>
<path d="M202.222 11.7158C203.484 11.6915 204.747 11.7888 205.991 12.0063C209.175 12.683 209.971 14.2313 210.154 17.5229C210.349 20.6195 210.349 23.33 210.349 38.0329V55.0602C210.349 63.956 210.349 71.6019 209.868 75.6617C209.47 78.4678 208.996 80.6012 207.081 80.9872C205.939 81.2462 204.771 81.3797 203.599 81.3853C202.437 81.3853 202.05 81.6758 202.05 82.1813C202.05 82.8619 202.731 83.1485 203.985 83.1485C207.858 83.1485 213.935 82.8579 215.786 82.8579C217.239 82.8579 224.399 83.1485 230.011 83.1485C231.265 83.1485 231.946 82.8579 231.946 82.1813C231.946 81.6997 231.548 81.3853 230.784 81.3853C229.198 81.335 227.615 81.2021 226.043 80.9872C223.138 80.5892 222.56 78.4678 222.27 75.6617C221.784 71.6019 221.784 63.956 221.784 54.9647V53.6074C221.784 53.0223 222.075 52.8353 222.58 52.8353L230.995 53.0223C231.318 52.9879 231.645 53.0318 231.947 53.1502C232.25 53.2687 232.52 53.4583 232.734 53.7029C233.996 55.1557 238.441 61.735 242.314 67.0526C247.731 74.5035 251.409 79.0489 255.568 81.2738C258.787 82.8156 262.364 83.4513 265.917 83.1126H275.111C276.269 83.1126 276.946 82.9137 276.946 82.1455C276.946 81.6639 276.548 81.3494 275.788 81.3494C274.877 81.3344 273.97 81.2371 273.077 81.0589C268.825 80.155 265.005 77.8372 262.239 74.4836C256.532 68.4854 249.857 59.8802 241.244 49.0382C251.019 41.1096 254.012 34.5263 254.012 27.3699C254.003 24.8049 253.406 22.2761 252.266 19.9783C251.126 17.6805 249.474 15.6748 247.437 14.1158C242.058 10.9679 235.854 9.5181 229.637 9.95654C226.636 9.95654 219.289 10.2471 215.997 10.2471C213.967 10.2471 207.874 9.95654 202.743 9.95654C201.29 9.95654 200.618 10.1476 200.618 10.8282C200.618 11.5088 201.155 11.7158 202.222 11.7158ZM221.76 16.2651C221.76 15.4691 221.955 15.1029 222.632 14.9079C224.319 14.5686 226.04 14.435 227.759 14.5099C233.462 14.5099 242.561 18.4901 242.561 32.2138C242.833 34.9123 242.457 37.6367 241.464 40.1606C240.471 42.6846 238.89 44.9352 236.853 46.7256C234.854 48.1191 232.402 48.7062 229.988 48.3695C227.503 48.4074 225.026 48.0815 222.636 47.4023C221.959 47.1117 221.764 46.7256 221.764 45.6629L221.76 16.2651Z" fill="#2E4C22"/>
<path d="M457.271 22.5588C458.208 22.5398 459.144 22.6374 460.057 22.8493C462.763 23.6454 463.539 24.4932 463.734 27.2953C463.83 29.9102 463.83 32.2307 463.83 44.7127V59.2245C463.83 66.7869 463.83 73.2467 463.432 76.7373C463.137 79.1533 462.636 80.7176 460.912 81.0917C459.929 81.3095 458.922 81.4071 457.915 81.3823C456.853 81.3823 456.562 81.8638 456.562 82.2539C456.562 82.835 457.143 83.1256 458.21 83.1256C459.949 83.1256 462.075 83.0301 464.109 82.9266C466.138 82.9266 467.977 82.8351 468.948 82.8351C472.427 82.8351 476.005 82.9266 480.264 83.0301C484.519 83.2171 489.45 83.3206 495.548 83.3206C499.998 83.3206 500.384 82.9226 500.969 81.0917C501.628 77.9692 502.048 74.8011 502.227 71.6149C502.227 70.6477 502.028 69.776 501.431 69.776C500.754 69.776 500.563 70.2616 500.464 71.0337C500.225 72.842 499.488 74.5482 498.334 75.9612C496.205 78.1941 492.921 78.2857 488.384 78.2857C481.804 78.2857 478.521 77.8001 477.064 76.5423C475.229 74.994 475.229 69.776 475.229 59.2284V44.7166C475.229 32.2347 475.229 29.9143 475.424 27.2993C475.619 24.3977 476.292 23.2394 478.608 22.8534C479.694 22.6604 480.794 22.5632 481.896 22.5628C482.963 22.5628 483.448 22.2722 483.448 21.6911C483.448 21.11 482.871 20.9189 481.613 20.9189C478.322 20.9189 471.36 21.114 469.323 21.114C467.002 21.114 461.585 20.9189 457.621 20.9189C456.359 20.9189 455.786 21.114 455.786 21.6911C455.786 22.2682 456.307 22.5588 457.271 22.5588Z" fill="#2E4C22"/>
<path d="M252.047 237.75L249.34 235.72C241.312 229.626 239.087 226.239 239.087 221.789C239.087 215.986 243.438 211.839 250.598 211.839C252.61 211.7 254.626 212.06 256.465 212.888C258.305 213.716 259.911 214.985 261.142 216.583C262.597 218.407 263.473 220.625 263.657 222.951C263.657 224.114 263.948 224.695 264.628 224.695C265.4 224.695 265.691 223.899 265.691 221.789C265.691 214.227 266.089 211.441 266.089 210.183C266.089 209.506 265.607 209.216 264.736 209.021C260.543 207.88 256.212 207.327 251.868 207.377C238.423 207.377 229.523 215.019 229.523 225.662C229.523 233.499 233.201 240.273 243.852 248.592L248.301 252.075C256.334 258.359 257.782 262.821 257.782 267.554C257.692 269.142 257.281 270.696 256.573 272.121C255.864 273.546 254.874 274.812 253.662 275.843C252.45 276.874 251.041 277.648 249.521 278.118C248.001 278.588 246.401 278.745 244.819 278.579C241.738 278.806 238.673 277.955 236.15 276.173C233.626 274.391 231.8 271.787 230.984 268.807C230.492 267.204 230.199 265.547 230.112 263.872C230.112 263.076 230.016 262.228 229.145 262.228C228.373 262.228 228.082 263.295 227.986 264.744C227.887 266.292 227.501 272.099 227.501 277.421C227.501 279.55 227.791 280.028 229.34 280.708C233.81 282.558 238.628 283.417 243.462 283.228C248.867 283.418 254.211 282.035 258.845 279.247C261.679 277.46 264.005 274.971 265.598 272.023C267.191 269.075 267.998 265.766 267.94 262.415C267.912 253.229 263.749 246.558 252.047 237.75Z" fill="#2E4C22"/>
<path d="M388.393 81.2737C387.621 81.2737 386.65 81.3692 385.874 81.3692C385.751 81.3516 385.626 81.3612 385.507 81.3974C385.388 81.4336 385.279 81.4956 385.187 81.5788C385.095 81.6621 385.023 81.7645 384.975 81.879C384.927 81.9934 384.905 82.117 384.91 82.241C384.91 82.9136 385.392 83.1126 386.455 83.1126C390.905 83.1126 395.45 82.822 396.322 82.822C399.028 82.822 402.996 83.1126 405.802 83.1126C406.674 83.1126 407.156 82.9136 407.156 82.241C407.156 81.7593 406.965 81.3692 405.902 81.3692H404.644C402.029 81.3692 401.261 80.4976 401.261 79.0488C401.38 77.3112 401.804 75.6081 402.515 74.0178L407.06 62.9887C407.255 62.5071 407.351 62.4076 407.856 62.4076H427.881C428.072 62.3826 428.265 62.4277 428.425 62.5345C428.586 62.6414 428.702 62.8027 428.752 62.9887L435.328 79.5344C435.417 79.703 435.467 79.8894 435.476 80.0799C435.484 80.2705 435.45 80.4606 435.377 80.6365C435.303 80.8124 435.191 80.9697 435.049 81.0971C434.907 81.2245 434.738 81.3188 434.555 81.3733C433.684 81.4688 433.493 81.7713 433.493 82.2449C433.493 82.83 434.46 82.83 436.008 82.9176C443.173 83.1166 449.354 83.1166 452.355 83.1166C455.539 83.1166 456.029 82.9176 456.029 82.2449C456.029 81.6678 455.631 81.3733 454.87 81.3733C453.803 81.3601 452.738 81.263 451.686 81.0827C450.138 80.7922 447.706 79.7294 444.43 72.2825C439.009 59.8006 424.788 26.1121 422.754 21.5866C421.882 19.7517 421.5 18.9756 420.239 18.9756C419.371 18.9756 418.694 19.9428 417.723 22.2633L395.474 74.0059C393.711 78.1811 392.258 80.6966 388.393 81.2737ZM409.289 57.2851L417.508 36.4845C417.604 36.1979 417.699 35.7124 417.994 35.7124C418.185 35.7124 418.284 36.1979 418.392 36.4845L426.42 57.3806C426.519 57.6711 426.42 57.8622 426.022 57.8622H409.572C409.289 57.8622 409.094 57.6711 409.289 57.2851Z" fill="#2E4C22"/>
<path d="M333.437 22.5549C334.696 22.6374 335.921 23.002 337.02 23.6217C339.255 25.1341 341.137 27.1124 342.536 29.4208C345.533 33.799 357.144 51.8652 357.725 53.1269C359.142 55.7667 359.811 58.7437 359.659 61.7361V68.5024C359.659 69.8597 359.659 73.2389 359.368 76.7255C359.173 79.1415 358.493 80.7058 356.754 81.0799C355.768 81.2924 354.761 81.3899 353.752 81.3704C352.785 81.3704 352.399 81.852 352.399 82.2421C352.399 82.9147 353.076 83.1138 354.238 83.1138C357.422 83.1138 363.142 82.8232 365.267 82.8232C367.588 82.8232 373.291 83.1138 378.613 83.1138C379.775 83.1138 380.456 82.8232 380.456 82.2421C380.456 81.8441 379.974 81.3704 379.003 81.3704C377.578 81.3671 376.156 81.2701 374.744 81.0799C372.232 80.6819 371.456 79.1455 371.265 76.7255C371.07 73.2389 371.07 69.8597 371.07 68.5024V61.9271C370.82 59.1397 371.184 56.3315 372.137 53.7001C377.153 44.6269 382.675 35.8433 388.679 27.3909C389.797 25.7333 391.331 24.399 393.129 23.5222C394.286 22.9769 395.534 22.649 396.81 22.5549C397.777 22.5549 398.454 22.157 398.454 21.5838C398.454 21.1062 397.877 20.9111 396.91 20.9111C395.262 20.9111 389.654 21.1061 387.811 21.1061C385.295 21.1061 382.298 20.9111 379.496 20.9111C378.525 20.9111 378.044 21.1062 378.044 21.6833C378.044 22.3599 378.84 22.4554 379.592 22.6505C381.037 22.945 381.427 23.7132 381.427 24.4893C381.318 26.0118 380.89 27.4942 380.169 28.8397C378.915 31.3592 368.559 48.9636 367.496 50.902C366.047 48.5815 354.923 29.3292 353.37 26.8098C352.798 25.9724 352.433 25.0104 352.308 24.0037C352.308 23.3311 352.789 22.945 353.47 22.75C354.823 22.352 355.4 22.352 355.4 21.6833C355.4 21.1062 354.919 20.9111 354.142 20.9111C350.27 20.9111 346.305 21.1061 344.467 21.1061C341.68 21.1061 335.276 20.9111 333.827 20.9111C332.757 20.9111 332.18 21.1062 332.18 21.6833C332.18 22.2604 332.761 22.5549 333.437 22.5549Z" fill="#2E4C22"/>
<path d="M302.527 84.186C324.486 84.186 338.225 69.3875 338.225 50.5214C338.225 31.6552 324.872 19.7544 303.398 19.7544C277.567 19.7544 267.7 37.9439 267.7 51.9701C267.696 66.5775 277.758 84.186 302.527 84.186ZM300.879 24.1087C314.619 24.1087 325.556 35.3329 325.556 53.5224C325.556 76.93 312.024 79.7361 306.009 79.7361C289.953 79.7361 280.281 66.3825 280.281 49.4547C280.281 29.1238 291.402 24.1087 300.879 24.1087Z" fill="#2E4C22"/>
<path d="M502.087 101.819C495.691 101.819 490.775 102.118 489.287 102.118C486.461 102.118 479.459 101.819 472.614 101.819C470.683 101.819 469.346 101.97 469.346 103.013C469.346 103.758 469.788 104.351 471.428 104.351C473.734 104.237 476.045 104.488 478.274 105.095C481.398 106.289 482.592 108.518 482.739 116.239L484.077 172.496H483.484C481.545 170.713 464.136 152.853 455.2 144.069C436.151 125.466 416.505 105.374 414.869 103.738C412.636 101.505 410.849 99.5664 409.213 99.5664C407.872 99.5664 406.98 101.353 406.98 103.885L405.786 178.9C405.635 189.913 405.193 193.336 401.766 194.228C399.804 194.649 397.802 194.849 395.796 194.825C394.602 194.825 393.71 195.418 393.71 196.162C393.71 197.356 394.904 197.503 396.691 197.503C403.386 197.503 409.639 197.057 410.829 197.057C413.217 197.057 419.315 197.503 427.797 197.503C429.584 197.503 430.774 197.205 430.774 196.162C430.774 195.418 430.029 194.825 428.541 194.825C426.226 194.885 423.917 194.584 421.695 193.933C419.163 193.041 417.528 190.064 417.229 180.241L415.74 128.594H416.186C418.718 130.827 432.557 146.155 446.834 159.851C460.526 173.097 476.896 188.727 485.084 196.317C485.754 197.096 486.573 197.734 487.492 198.194C488.411 198.655 489.412 198.929 490.437 199C491.484 199 492.527 197.806 492.527 194.98L494.015 115.201C494.166 108.036 495.209 105.823 498.791 104.784C500.1 104.432 501.454 104.282 502.807 104.339C504.296 104.339 505.04 103.746 505.04 103.001C505.064 101.974 503.878 101.819 502.087 101.819Z" fill="#2E4C22"/>
<path d="M484.733 244.237L481.254 242.302C473.608 238.044 472.259 235.138 472.259 231.464C472.259 225.856 477.775 222.664 483.869 222.664C485.641 222.526 487.422 222.805 489.068 223.476C490.713 224.148 492.18 225.195 493.35 226.533C494.658 228.051 495.44 229.951 495.579 231.95C495.579 232.913 495.869 233.399 496.447 233.399C497.123 233.399 497.513 232.531 497.513 230.784C497.513 224.3 497.8 221.983 497.8 220.921C497.8 220.34 497.402 220.049 496.642 219.854C492.68 218.919 488.62 218.465 484.55 218.501C472.744 218.501 463.057 224.981 463.057 235.043C463.057 242.298 466.348 247.815 476.41 253.714L481.346 256.615C488.908 261.065 489.756 264.643 489.756 268.226C489.733 269.708 489.402 271.17 488.783 272.517C488.164 273.864 487.271 275.068 486.161 276.051C485.051 277.034 483.748 277.775 482.336 278.226C480.924 278.678 479.433 278.83 477.958 278.674C475.128 278.964 472.279 278.329 469.84 276.864C467.4 275.4 465.501 273.184 464.426 270.55C463.969 269.174 463.709 267.74 463.654 266.291C463.654 265.714 463.558 264.938 462.782 264.938C462.105 264.938 461.715 265.809 461.715 267.067C461.62 268.424 461.234 273.547 461.234 277.997C461.234 279.836 461.524 280.226 462.877 280.783C467.306 282.385 472.004 283.109 476.709 282.912C481.681 283.236 486.636 282.057 490.93 279.529C493.574 277.938 495.752 275.678 497.246 272.978C498.74 270.277 499.496 267.231 499.44 264.146C499.44 256.719 495.941 250.422 484.733 244.237Z" fill="#2E4C22"/>
<path d="M733.209 136.877C735.68 132.355 738.669 130.282 744.568 135.114C743.283 128.538 739.832 125.502 733.209 127.631C735.091 121.872 738.872 121.955 743.187 123.651C739.927 118.791 736.297 115.26 730.108 121.008C728.808 115.942 726.053 114.914 721.845 117.923C711.453 130.839 690.831 146.246 676.96 132.65C673.353 133.862 669.61 134.624 665.816 134.919C665.813 143.557 663.425 152.026 658.914 159.393C669.386 171.469 688.694 169.057 704.288 165.507C700.253 163.99 695.842 162.553 697.749 159.779C701.027 157.658 704.033 155.144 706.7 152.292C709.884 153.486 718.422 158.462 719.095 150.537C723.497 151.174 732.52 152.666 732.52 144.364C735.545 140.754 738.24 142.282 740.779 146.123C740.449 140.698 739.386 136.053 733.209 136.877Z" fill="#2E4C22"/>
<path d="M696.719 266.349C696.61 265.251 696.266 264.19 695.71 263.238C695.155 262.285 694.401 261.463 693.5 260.828C692.598 260.192 691.571 259.758 690.487 259.555C689.403 259.352 688.288 259.384 687.218 259.65C688.074 258.161 689.477 257.065 691.129 256.595C692.781 256.126 694.551 256.319 696.062 257.134C695.139 253.29 693.567 250.213 687.385 252.529C687.234 248.613 686.227 244.859 679.528 245.831C675.067 246.479 670.772 248.617 666.27 248.967C659.217 249.552 647.165 236.593 653.335 227.613C665.315 210.16 672.089 198.132 653.665 187.206C643.452 181.148 632.379 182.768 619.523 186.37C617.019 187.3 614.845 188.948 613.273 191.107C611.701 193.267 610.802 195.842 610.687 198.51C609.978 205.038 611.881 214.988 609.867 220.915C616.207 219.278 622.82 218.992 629.278 220.075C629.834 220.081 630.381 220.215 630.877 220.467C631.372 220.719 631.802 221.082 632.135 221.528C632.467 221.973 632.692 222.489 632.793 223.036C632.893 223.583 632.866 224.145 632.713 224.68C631.078 229.154 627.515 232.931 625.35 238.077C622.739 244.286 625.656 249.62 627.479 254.619C626.683 247.455 627.4 242.121 632.554 242.479C639.547 242.965 642.107 251.299 646.142 258.181C651.225 270.412 660.953 272.172 670.366 275.141C672.491 275.96 674.759 276.347 677.035 276.278C679.312 276.21 681.552 275.688 683.624 274.743C686.08 273.242 689.137 275.197 692.464 278.723C692.79 271.951 690.717 268.532 686.243 268.466C686.714 267.555 687.384 266.761 688.203 266.143C689.021 265.525 689.968 265.099 690.973 264.896C691.979 264.693 693.017 264.718 694.011 264.969C695.006 265.221 695.931 265.692 696.719 266.349Z" fill="#2E4C22"/>
<path d="M413.934 219.658C408.808 219.658 402.714 219.853 400.099 219.853C397.679 219.853 392.262 219.658 387.812 219.658C386.554 219.658 385.882 219.853 385.882 220.454C385.882 221.055 386.463 221.326 387.33 221.326C388.467 221.299 389.603 221.397 390.718 221.616C393.428 222.389 394.2 223.256 394.395 226.062C394.491 228.677 394.491 230.998 394.491 243.476V257.988C394.491 265.55 394.491 272.014 394.093 275.5C393.802 277.92 393.321 279.481 391.577 279.855C390.593 280.07 389.587 280.168 388.58 280.145C387.517 280.145 387.227 280.627 387.227 281.013C387.227 281.598 387.808 281.885 388.875 281.885C390.618 281.885 392.743 281.789 394.773 281.69C396.803 281.69 398.642 281.594 399.609 281.594C401.739 281.594 404.835 281.785 408.219 282.076C411.606 282.271 415.279 282.557 418.376 282.557C434.05 282.557 443.053 276.754 446.914 272.886C449.912 269.875 452.277 266.296 453.872 262.358C455.466 258.42 456.258 254.203 456.2 249.956C456.324 246.113 455.677 242.284 454.298 238.695C452.918 235.106 450.834 231.83 448.168 229.059C438.894 219.658 424.577 219.658 413.934 219.658ZM436.769 272.679C431.493 276.799 424.868 278.799 418.193 278.287C411.514 278.287 408.131 276.547 407.048 274.999C406.347 273.146 406.019 271.172 406.085 269.192C405.99 267.548 405.89 261.259 405.89 252.555V242.206C405.89 235.726 405.89 228.952 405.99 226.146C405.928 225.788 406.003 225.42 406.2 225.115C406.397 224.81 406.701 224.59 407.052 224.498C408.757 224.052 410.517 223.856 412.278 223.917C420.913 223.441 429.41 226.24 436.072 231.754C438.772 234.416 440.876 237.621 442.244 241.156C443.612 244.692 444.214 248.478 444.009 252.264C444.024 260.774 442.281 268.133 436.769 272.679Z" fill="#2E4C22"/>
<path d="M322.047 268.9C321.466 268.9 321.251 269.298 321.08 270.158C320.499 273.545 319.531 275.288 317.406 276.252C314.814 277.078 312.096 277.438 309.378 277.314C300.673 277.314 298.062 276.057 297.867 270.449C297.772 268.029 297.867 261.063 297.867 258.257V251.678C297.867 251.2 297.963 250.806 298.353 250.806C300.482 250.806 310.15 251.001 311.698 251.204C314.883 251.491 315.953 252.749 316.439 254.389C316.63 255.455 316.63 256.518 316.729 257.39C316.729 257.788 316.924 258.066 317.501 258.066C318.274 258.066 318.373 256.904 318.373 256.227C318.373 255.646 318.564 252.359 318.771 250.711C319.253 246.551 319.452 245.194 319.452 244.713C319.473 244.507 319.415 244.302 319.288 244.139C319.161 243.977 318.975 243.87 318.771 243.841C318.373 243.841 318.095 244.326 317.418 244.908C316.622 245.779 315.388 245.97 313.358 246.165C311.42 246.364 300.399 246.364 298.46 246.364C297.979 246.364 297.879 245.966 297.879 245.493V225.194C297.879 224.712 298.074 224.398 298.46 224.398C300.204 224.398 310.357 224.593 311.806 224.796C316.061 225.194 316.737 226.34 317.414 227.793C317.804 228.743 318 229.762 317.991 230.79C317.991 231.466 318.087 231.853 318.668 231.853C319.344 231.853 319.539 230.889 319.635 230.499C319.83 229.536 320.033 225.95 320.121 225.082C320.215 223.294 320.441 221.515 320.797 219.761C320.797 219.363 320.702 218.989 320.216 218.989C319.756 219.089 319.304 219.222 318.863 219.387C317.678 219.613 316.483 219.774 315.281 219.868C313.637 219.968 294.775 219.868 292.064 219.868C289.648 219.868 284.227 219.673 279.777 219.673C278.519 219.673 277.843 219.868 277.843 220.469C277.843 221.07 278.424 221.341 279.296 221.341C280.432 221.314 281.568 221.412 282.683 221.631C285.393 222.404 286.165 223.271 286.36 226.077C286.456 228.692 286.456 231.013 286.456 243.491V258.002C286.456 265.565 286.456 272.029 286.058 275.515C285.767 277.935 285.286 279.496 283.542 279.87C282.558 280.085 281.552 280.183 280.545 280.16C279.479 280.16 279.188 280.642 279.188 281.028C279.188 281.613 279.769 281.9 280.836 281.9C282.575 281.9 284.705 281.804 286.735 281.705C288.768 281.705 290.603 281.609 291.571 281.609C294.086 281.609 297.278 281.705 301.437 281.8C305.601 281.995 310.723 282.091 317.107 282.091C320.292 282.091 321.088 282.091 321.649 279.965C322.285 276.971 322.673 273.929 322.811 270.871C322.823 269.967 322.724 268.9 322.047 268.9Z" fill="#2E4C22"/>
<path d="M302.214 194.553C303.194 189.946 303.792 185.265 304.001 180.559C304.001 179.222 303.853 177.582 302.807 177.582C301.915 177.582 301.613 178.183 301.318 179.52C300.427 184.73 298.93 187.405 295.662 188.897C291.678 190.168 287.501 190.722 283.324 190.533C269.93 190.533 265.91 188.599 265.612 179.966C265.464 176.24 265.612 165.53 265.612 161.207V151.093C265.612 150.349 265.763 149.748 266.356 149.748C269.636 149.748 284.518 150.047 286.898 150.345C291.809 150.791 293.445 152.733 294.19 155.253C294.488 156.889 294.488 158.532 294.635 159.87C294.635 160.463 294.934 160.917 295.829 160.917C297.023 160.917 297.171 159.126 297.171 158.087C297.171 157.191 297.473 152.116 297.764 149.605C298.508 143.201 298.807 141.119 298.807 140.375C298.827 140.218 298.817 140.059 298.775 139.906C298.734 139.754 298.662 139.611 298.565 139.486C298.468 139.361 298.348 139.257 298.21 139.179C298.072 139.102 297.921 139.052 297.764 139.033C297.171 139.033 296.725 139.778 295.682 140.673C294.488 142.011 292.558 142.309 289.429 142.604C286.452 142.906 269.484 142.906 266.511 142.906C265.767 142.906 265.616 142.309 265.616 141.561V110.304C265.616 109.56 265.914 109.11 266.511 109.11C269.19 109.11 284.82 109.409 287.049 109.707C293.601 110.3 294.639 112.095 295.682 114.32C296.284 115.785 296.587 117.354 296.574 118.937C296.574 119.98 296.725 120.573 297.617 120.573C298.659 120.573 298.958 119.085 299.105 118.492C299.404 117.003 299.706 111.494 299.849 110.133C299.996 107.383 300.344 104.648 300.892 101.95C300.892 101.357 300.745 100.756 300.001 100.756C299.292 100.904 298.595 101.102 297.915 101.349C296.093 101.689 294.254 101.938 292.407 102.093C289.879 102.244 260.855 102.093 256.684 102.093C252.963 102.093 244.628 101.795 237.782 101.795C235.844 101.795 234.805 102.093 234.805 102.989C234.805 103.884 235.697 104.326 237.038 104.326C238.786 104.286 240.532 104.436 242.248 104.772C246.415 105.966 247.609 107.303 247.904 111.618C248.051 115.638 248.051 119.212 248.051 138.413V160.737C248.051 172.344 248.051 182.318 247.458 187.675C247.012 191.397 246.264 193.777 243.585 194.374C242.071 194.708 240.522 194.857 238.972 194.82C237.332 194.82 236.887 195.564 236.887 196.157C236.887 197.053 237.782 197.499 239.418 197.499C242.097 197.499 245.388 197.347 248.497 197.2C251.621 197.2 254.467 197.053 255.94 197.053C259.809 197.053 264.72 197.2 271.124 197.351C277.524 197.65 285.413 197.797 295.236 197.797C300.132 197.829 301.322 197.829 302.214 194.553Z" fill="#2E4C22"/>
<path d="M376.065 268.9C375.484 268.9 375.293 269.298 375.098 270.158C374.516 273.545 373.553 275.288 371.424 276.252C368.831 277.078 366.111 277.438 363.392 277.314C354.687 277.314 352.072 276.057 351.881 270.449C351.786 268.029 351.881 261.063 351.881 258.257V251.678C351.881 251.2 351.977 250.806 352.363 250.806C354.492 250.806 364.164 251.001 365.712 251.204C368.896 251.491 369.967 252.749 370.453 254.389C370.644 255.455 370.644 256.518 370.743 257.39C370.743 257.788 370.938 258.066 371.539 258.066C372.312 258.066 372.411 256.904 372.411 256.227C372.411 255.646 372.606 252.359 372.809 250.711C373.291 246.551 373.486 245.194 373.486 244.713C373.507 244.508 373.449 244.303 373.323 244.141C373.197 243.978 373.013 243.871 372.809 243.841C372.411 243.841 372.128 244.326 371.456 244.908C370.66 245.779 369.422 245.97 367.392 246.165C365.458 246.364 354.428 246.364 352.494 246.364C352.008 246.364 351.913 245.966 351.913 245.493V225.194C351.913 224.712 352.104 224.398 352.494 224.398C354.233 224.398 364.395 224.593 365.844 224.796C370.103 225.194 370.779 226.34 371.456 227.793C371.846 228.743 372.044 229.762 372.037 230.79C372.037 231.466 372.132 231.853 372.713 231.853C373.39 231.853 373.585 230.889 373.681 230.499C373.876 229.536 374.079 225.95 374.162 225.082C374.259 223.294 374.486 221.515 374.843 219.761C374.843 219.363 374.747 218.989 374.262 218.989C373.802 219.09 373.35 219.223 372.909 219.387C371.724 219.613 370.528 219.774 369.326 219.868C367.683 219.968 348.82 219.868 346.11 219.868C343.694 219.868 338.273 219.673 333.823 219.673C332.565 219.673 331.889 219.868 331.889 220.469C331.889 221.07 332.466 221.341 333.341 221.341C334.478 221.314 335.613 221.412 336.728 221.631C339.435 222.404 340.211 223.271 340.406 226.077C340.502 228.692 340.502 231.013 340.502 243.491V258.002C340.502 265.565 340.502 272.029 340.104 275.515C339.813 277.935 339.308 279.496 337.588 279.87C336.603 280.086 335.596 280.183 334.587 280.16C333.524 280.16 333.234 280.642 333.234 281.028C333.234 281.613 333.815 281.9 334.878 281.9C336.621 281.9 338.746 281.804 340.78 281.705C342.814 281.705 344.649 281.609 345.616 281.609C348.132 281.609 351.324 281.705 355.483 281.8C359.643 281.995 364.769 282.091 371.157 282.091C374.341 282.091 375.137 282.091 375.703 279.965C376.338 276.971 376.726 273.929 376.865 270.871C376.841 269.967 376.741 268.9 376.065 268.9Z" fill="#2E4C22"/>
<path d="M384.162 177.582C383.27 177.582 382.968 178.183 382.673 179.52C381.782 184.73 380.285 187.405 377.017 188.897C373.034 190.168 368.856 190.722 364.679 190.533C351.285 190.533 347.265 188.599 346.971 179.966C346.82 176.24 346.971 165.53 346.971 161.207V151.093C346.971 150.349 347.118 149.748 347.715 149.748C350.991 149.748 365.873 150.047 368.253 150.345C373.165 150.791 374.8 152.733 375.545 155.253C375.839 156.889 375.839 158.532 375.991 159.87C375.991 160.463 376.289 160.917 377.185 160.917C378.379 160.917 378.522 159.126 378.522 158.087C378.522 157.191 378.824 152.116 379.119 149.605C379.863 143.201 380.162 141.119 380.162 140.375C380.162 139.63 379.716 139.033 379.119 139.033C378.522 139.033 378.076 139.778 377.033 140.673C375.839 142.011 373.913 142.309 370.784 142.604C367.807 142.906 350.84 142.906 347.862 142.906C347.118 142.906 346.971 142.309 346.971 141.561V110.304C346.971 109.56 347.269 109.11 347.862 109.11C350.541 109.11 366.171 109.409 368.4 109.707C374.952 110.3 375.994 112.095 377.033 114.32C377.637 115.784 377.942 117.354 377.929 118.937C377.929 119.98 378.08 120.573 378.972 120.573C380.011 120.573 380.313 119.085 380.46 118.492C380.755 117.003 381.057 111.494 381.205 110.133C381.349 107.384 381.696 104.648 382.243 101.95C382.243 101.357 382.096 100.756 381.356 100.756C380.647 100.903 379.95 101.101 379.27 101.349C377.449 101.689 375.612 101.938 373.766 102.093C371.234 102.244 342.215 102.093 338.043 102.093C334.322 102.093 325.987 101.795 319.141 101.795C317.207 101.795 316.164 102.093 316.164 102.989C316.164 103.884 317.06 104.326 318.397 104.326C320.145 104.286 321.892 104.435 323.607 104.772C327.774 105.966 328.964 107.303 329.263 111.618C329.414 115.638 329.414 119.212 329.414 138.413V160.737C329.414 172.344 329.414 182.318 328.817 187.675C328.371 191.397 327.623 193.777 324.948 194.374C323.434 194.707 321.885 194.857 320.335 194.82C318.699 194.82 318.254 195.564 318.254 196.157C318.254 197.053 319.145 197.499 320.781 197.499C323.46 197.499 326.751 197.347 329.86 197.2C332.984 197.2 335.83 197.053 337.303 197.053C341.172 197.053 346.083 197.2 352.483 197.351C358.884 197.65 366.772 197.797 376.599 197.797C381.507 197.797 382.697 197.797 383.593 194.521C384.573 189.914 385.17 185.233 385.38 180.527C385.356 179.226 385.209 177.582 384.162 177.582Z" fill="#2E4C22"/>
</svg>
