<svg width="1011" height="732" viewBox="0 0 1011 732" fill="none" xmlns="http://www.w3.org/2000/svg">
<g clip-path="url(#clip0_73_452)">
<path d="M600 692H40V44L600 218V692Z" fill="#F2F2F2"/>
<path d="M532.129 463H92.1294V668H532.129V463Z" fill="#3F3D56"/>
<path d="M436.839 424.649C470.631 424.649 498.024 397.255 498.024 363.463C498.024 329.671 470.631 302.277 436.839 302.277C403.047 302.277 375.653 329.671 375.653 363.463C375.653 397.255 403.047 424.649 436.839 424.649Z" fill="#2E4C22"/>
<path d="M436.285 474.113L436.786 363.126" stroke="#3F3D56" stroke-width="2" stroke-miterlimit="10"/>
<path d="M436.786 378.821C445.454 378.821 452.481 371.794 452.481 363.126C452.481 354.458 445.454 347.431 436.786 347.431C428.117 347.431 421.09 354.458 421.09 363.126C421.09 371.794 428.117 378.821 436.786 378.821Z" fill="#3F3D56"/>
<path d="M436.477 431.53C436.477 431.53 434.453 383.296 388.463 388.693Z" fill="#3F3D56"/>
<path d="M180.524 301.806C214.316 301.806 241.709 274.412 241.709 240.62C241.709 206.828 214.316 179.435 180.524 179.435C146.732 179.435 119.338 206.828 119.338 240.62C119.338 274.412 146.732 301.806 180.524 301.806Z" fill="#2E4C22"/>
<path d="M177.059 466.502L180.58 240.553" stroke="#3F3D56" stroke-width="2" stroke-miterlimit="10"/>
<path d="M180.581 256.248C189.249 256.248 196.276 249.221 196.276 240.553C196.276 231.884 189.249 224.857 180.581 224.857C171.912 224.857 164.885 231.884 164.885 240.553C164.885 249.221 171.912 256.248 180.581 256.248Z" fill="#3F3D56"/>
<path d="M179.585 304.465C179.585 304.465 178.094 256.211 132.047 261.1Z" fill="#3F3D56"/>
<path d="M177.126 462.189C177.126 462.189 188.66 369.621 130.44 364.229" stroke="#3F3D56" stroke-width="2" stroke-miterlimit="10"/>
<path d="M130.44 379.924C139.108 379.924 146.135 372.897 146.135 364.229C146.135 355.56 139.108 348.533 130.44 348.533C121.772 348.533 114.745 355.56 114.745 364.229C114.745 372.897 121.772 379.924 130.44 379.924Z" fill="#3F3D56"/>
<path d="M312.103 165.971C345.895 165.971 373.288 138.577 373.288 104.785C373.288 70.9934 345.895 43.5996 312.103 43.5996C278.311 43.5996 250.917 70.9934 250.917 104.785C250.917 138.577 278.311 165.971 312.103 165.971Z" fill="#2E4C22"/>
<path d="M312.141 475.216V105.01" stroke="#3F3D56" stroke-width="2" stroke-miterlimit="10"/>
<path d="M312.141 120.53C320.809 120.53 327.836 113.503 327.836 104.835C327.836 96.1662 320.809 89.1392 312.141 89.1392C303.473 89.1392 296.446 96.1662 296.446 104.835C296.446 113.503 303.473 120.53 312.141 120.53Z" fill="#3F3D56"/>
<path d="M263.934 388.376C272.602 388.376 279.629 381.349 279.629 372.68C279.629 364.012 272.602 356.985 263.934 356.985C255.266 356.985 248.239 364.012 248.239 372.68C248.239 381.349 255.266 388.376 263.934 388.376Z" fill="#3F3D56"/>
<path d="M312.141 185.007C312.141 185.007 309.899 136.782 263.934 142.388Z" fill="#3F3D56"/>
<path d="M312.141 321.719C312.141 321.719 309.899 273.494 263.934 279.1Z" fill="#3F3D56"/>
<path d="M312.141 470.902C312.141 470.902 322.231 377.165 263.934 372.681" stroke="#3F3D56" stroke-width="2" stroke-miterlimit="10"/>
<path d="M361.312 241.148C369.98 241.148 377.007 234.12 377.007 225.452C377.007 216.784 369.98 209.757 361.312 209.757C352.643 209.757 345.616 216.784 345.616 225.452C345.616 234.12 352.643 241.148 361.312 241.148Z" fill="#3F3D56"/>
<path d="M313.104 318.673C313.104 318.673 303.014 229.937 361.311 225.452" stroke="#3F3D56" stroke-width="2" stroke-miterlimit="10"/>
<path d="M443 190C438.649 190 434.395 188.71 430.777 186.292C427.16 183.875 424.34 180.439 422.675 176.419C421.01 172.399 420.574 167.976 421.423 163.708C422.272 159.44 424.367 155.52 427.444 152.444C430.52 149.367 434.44 147.272 438.708 146.423C442.976 145.574 447.399 146.01 451.419 147.675C455.439 149.34 458.875 152.16 461.292 155.777C463.71 159.395 465 163.649 465 168C464.993 173.833 462.673 179.425 458.549 183.549C454.425 187.673 448.833 189.993 443 190ZM443 148C439.044 148 435.178 149.173 431.889 151.371C428.6 153.568 426.036 156.692 424.522 160.346C423.009 164.001 422.613 168.022 423.384 171.902C424.156 175.781 426.061 179.345 428.858 182.142C431.655 184.939 435.219 186.844 439.098 187.616C442.978 188.387 446.999 187.991 450.654 186.478C454.308 184.964 457.432 182.4 459.629 179.111C461.827 175.822 463 171.956 463 168C462.994 162.698 460.885 157.614 457.135 153.865C453.386 150.115 448.302 148.006 443 148Z" fill="#3F3D56"/>
<path d="M97 84C92.6488 84 88.3954 82.7097 84.7775 80.2923C81.1596 77.8749 78.3398 74.439 76.6747 70.419C75.0095 66.3991 74.5739 61.9756 75.4227 57.708C76.2716 53.4404 78.3669 49.5204 81.4437 46.4437C84.5204 43.3669 88.4404 41.2716 92.708 40.4227C96.9756 39.5739 101.399 40.0095 105.419 41.6747C109.439 43.3398 112.875 46.1596 115.292 49.7775C117.71 53.3953 119 57.6488 119 62C118.993 67.8328 116.673 73.4247 112.549 77.5491C108.425 81.6735 102.833 83.9934 97 84ZM97 42C93.0444 42 89.1776 43.173 85.8886 45.3706C82.5996 47.5682 80.0362 50.6918 78.5224 54.3463C77.0087 58.0009 76.6126 62.0222 77.3843 65.9018C78.156 69.7814 80.0608 73.3451 82.8579 76.1421C85.6549 78.9392 89.2186 80.844 93.0982 81.6157C96.9778 82.3874 100.999 81.9913 104.654 80.4776C108.308 78.9638 111.432 76.4004 113.629 73.1114C115.827 69.8224 117 65.9556 117 62C116.994 56.6975 114.885 51.614 111.135 47.8646C107.386 44.1152 102.302 42.0061 97 42Z" fill="#3F3D56"/>
<path d="M600 410C595.649 410 591.395 408.71 587.777 406.292C584.16 403.875 581.34 400.439 579.675 396.419C578.01 392.399 577.574 387.976 578.423 383.708C579.272 379.44 581.367 375.52 584.444 372.444C587.52 369.367 591.44 367.272 595.708 366.423C599.976 365.574 604.399 366.01 608.419 367.675C612.439 369.34 615.875 372.16 618.292 375.777C620.71 379.395 622 383.649 622 388C621.993 393.833 619.673 399.425 615.549 403.549C611.425 407.673 605.833 409.993 600 410ZM600 368C596.044 368 592.178 369.173 588.889 371.371C585.6 373.568 583.036 376.692 581.522 380.346C580.009 384.001 579.613 388.022 580.384 391.902C581.156 395.781 583.061 399.345 585.858 402.142C588.655 404.939 592.219 406.844 596.098 407.616C599.978 408.387 603.999 407.991 607.654 406.478C611.308 404.964 614.432 402.4 616.629 399.111C618.827 395.822 620 391.956 620 388C619.994 382.698 617.885 377.614 614.135 373.865C610.386 370.115 605.302 368.006 600 368Z" fill="#3F3D56"/>
<path d="M507 238C514.18 238 520 232.18 520 225C520 217.82 514.18 212 507 212C499.82 212 494 217.82 494 225C494 232.18 499.82 238 507 238Z" fill="#3F3D56"/>
<path d="M609 475C616.18 475 622 469.18 622 462C622 454.82 616.18 449 609 449C601.82 449 596 454.82 596 462C596 469.18 601.82 475 609 475Z" fill="#3F3D56"/>
<path d="M600 692V463H507C507 570.143 420.143 657 313 657C205.857 657 119 570.143 119 463H40V692H600Z" fill="#3F3D56"/>
<path d="M313 657C420.143 657 507 570.143 507 463H119C119 570.143 205.857 657 313 657Z" fill="#2E4C22"/>
<path d="M863.783 544.557C959.391 496.195 997.691 379.485 949.33 283.877L603.104 459.01C651.465 554.618 768.175 592.918 863.783 544.557Z" fill="#3F3D56"/>
<path d="M870.796 183.503C871.44 183.066 872.063 182.598 872.669 182.11C871.407 185.887 869.374 189.361 866.697 192.31C866.071 193 865.403 193.645 864.717 194.269C864.703 194.111 864.688 193.953 864.679 193.795C864.599 192.265 864.711 190.655 864.732 189.08C867.116 187.659 869.181 185.76 870.796 183.503Z" fill="url(#paint0_linear_73_452)"/>
<path d="M880.178 127.711C881.633 125.258 882.472 122.489 882.624 119.641C882.775 116.793 882.234 113.95 881.046 111.357C879.859 108.764 878.06 106.497 875.805 104.751C873.55 103.005 870.906 101.831 868.098 101.33C865.29 100.83 862.403 101.017 859.683 101.876C856.964 102.735 854.493 104.24 852.482 106.263C850.471 108.286 848.981 110.766 848.138 113.491C847.296 116.216 847.126 119.104 847.643 121.909C842.597 124.312 838.374 128.154 835.506 132.951C832.638 137.748 831.252 143.286 831.524 148.869C829.113 152.569 827.599 156.781 827.104 161.17C826.608 165.559 827.143 170.002 828.668 174.147C830.192 178.293 832.663 182.025 835.884 185.047C839.105 188.068 842.986 190.297 847.22 191.554C851.454 192.811 855.923 193.063 860.271 192.288C864.619 191.514 868.726 189.736 872.266 187.094C875.805 184.453 878.679 181.021 880.659 177.074C882.639 173.126 883.67 168.77 883.669 164.353C883.669 163.901 883.656 163.452 883.635 163.005C887.154 157.604 888.729 151.166 888.101 144.751C887.473 138.336 884.678 132.326 880.178 127.711Z" fill="#2F2E41"/>
<g opacity="0.1">
<path d="M847.409 117.428C847.488 117.39 847.564 117.345 847.643 117.307C847.587 117.002 847.548 116.691 847.508 116.381C847.499 116.446 847.487 116.509 847.479 116.574C847.445 116.86 847.43 117.144 847.409 117.428Z" fill="black"/>
<path d="M888.032 146.314C887.515 150.629 886.011 154.766 883.635 158.403C883.656 158.851 883.669 159.3 883.669 159.752C883.67 167.079 880.837 174.122 875.762 179.407C870.687 184.692 863.764 187.808 856.443 188.104C849.123 188.399 841.971 185.851 836.487 180.992C831.002 176.134 827.61 169.342 827.021 162.039C826.959 162.803 826.921 163.574 826.921 164.354C826.921 171.879 829.91 179.096 835.232 184.417C840.553 189.738 847.77 192.728 855.295 192.728C862.82 192.728 870.038 189.738 875.359 184.417C880.68 179.096 883.669 171.879 883.669 164.354C883.669 163.901 883.656 163.452 883.635 163.005C887.076 157.732 888.659 151.463 888.135 145.189C888.104 145.564 888.077 145.938 888.032 146.314Z" fill="black"/>
<path d="M882.506 116.362C882.199 118.747 881.407 121.043 880.178 123.11C880.674 123.619 881.143 124.153 881.599 124.698C882.566 122.032 882.877 119.173 882.506 116.362Z" fill="black"/>
</g>
<path d="M765.837 432.134C765.972 433.749 766.41 435.324 767.126 436.777C767.492 437.5 768.023 438.127 768.677 438.605C769.331 439.084 770.088 439.401 770.888 439.531C772.359 439.54 773.801 439.122 775.038 438.328C777.564 437.008 780.186 435.475 781.505 432.948C782.781 430.502 782.598 427.583 782.382 424.832L780.686 403.196C776.599 403.083 772.494 403.085 768.411 403.308C764.366 403.528 763.656 404.481 764.219 408.429C765.339 416.287 764.794 424.27 765.837 432.134Z" fill="#FBBEBE"/>
<path d="M885.729 446.758L895.453 462.467C895.871 463.381 896.63 464.095 897.568 464.456C898.266 464.557 898.977 464.433 899.6 464.103C902.843 462.686 905.325 459.995 907.707 457.377C909.323 455.601 910.993 453.727 911.599 451.404C911.913 450.144 911.9 448.825 911.559 447.571C911.219 446.318 910.564 445.173 909.657 444.244C908.521 443.256 907.294 442.378 905.991 441.624C898.304 436.44 894.835 426.59 887.247 421.262C886.809 420.899 886.275 420.669 885.71 420.601C885.146 420.634 884.601 420.817 884.131 421.131C880.673 423.026 877.215 424.921 873.757 426.817C869.265 429.274 870.689 429.563 874.1 432.21C879.126 436.109 882.264 441.56 885.729 446.758Z" fill="#FBBEBE"/>
<path d="M786.944 419.621C785.519 419.172 783.923 418.768 782.58 419.421C781.952 419.805 781.421 420.328 781.027 420.95C780.633 421.571 780.386 422.275 780.307 423.007C780.036 424.45 780.069 425.949 779.668 427.362C778.992 429.745 777.176 431.607 775.426 433.36C774.719 434.203 773.8 434.843 772.764 435.213C771.361 435.572 769.87 434.915 768.445 435.165C767.614 435.378 766.857 435.814 766.257 436.426C765.656 437.038 765.234 437.803 765.037 438.638C764.667 440.311 764.61 442.039 764.871 443.733L765.974 455.792C766.169 457.261 766.184 458.749 766.019 460.223C765.613 462.874 764.072 465.2 763.217 467.742C762.362 470.284 762.41 473.53 764.549 475.147C765.296 475.645 766.157 475.947 767.051 476.026C767.945 476.105 768.845 475.958 769.668 475.598C771.306 474.859 772.756 473.758 773.907 472.379C780.457 465.237 783.381 455.564 788.475 447.32C789.775 445.413 790.938 443.417 791.956 441.346C792.655 439.744 793.099 438.045 793.665 436.392C794.446 434.183 795.383 432.033 796.47 429.957C797.075 428.77 799.395 425.91 798.908 424.584C798.076 422.322 789.149 420.317 786.944 419.621Z" fill="#2F2E41"/>
<path d="M905.035 452.883C903.561 455.647 901.102 457.755 898.145 458.788C897.287 459.02 896.488 459.433 895.803 459.999C895.353 460.549 895.075 461.218 895.002 461.924C894.929 462.63 895.065 463.342 895.394 463.971C896.071 465.217 896.951 466.341 897.999 467.297C903.878 473.519 907.766 481.354 909.165 489.799C909.513 491.93 909.741 494.195 911.016 495.937C913.507 499.34 918.809 499.118 922.554 497.178C923.698 496.654 924.691 495.849 925.44 494.838C926.064 493.742 926.461 492.532 926.607 491.279C927.283 488.175 927.657 485.012 927.721 481.835C927.649 475.84 925.397 470.109 924.321 464.21C922.795 455.839 923.56 446.822 919.661 439.258C919.273 438.37 918.659 437.599 917.881 437.02C916.906 436.508 915.812 436.262 914.711 436.309C911.189 436.165 907.664 436.133 904.138 436.216C903.15 436.239 901.995 436.363 901.483 437.208C900.96 438.073 901.417 439.176 901.877 440.076C904.059 444.347 907.596 447.76 905.035 452.883Z" fill="#2F2E41"/>
<path d="M821.372 302.835C820.387 303.648 819.719 304.781 819.485 306.037C819.252 307.293 819.468 308.59 820.095 309.703C820.876 310.997 822.277 312.201 821.97 313.681C821.652 315.217 819.763 315.739 818.214 315.986C804.558 318.158 791.269 322.155 778.03 326.142L764.142 330.323C760.137 331.529 756.063 332.767 752.603 335.116C749.428 337.279 746.916 340.28 745.345 343.786C743.757 347.346 743.211 351.267 742.645 355.124C740.559 369.316 737.896 383.648 731.563 396.518L765.246 407.563C768.512 408.762 771.895 409.613 775.339 410.103C778.622 410.375 781.927 410.216 785.168 409.627C784.959 402.106 784.832 394.358 784.623 386.837C784.601 384.461 784.447 382.089 784.161 379.73C783.656 376.126 782.537 372.62 782.189 368.997C783.743 367.715 786.001 368.034 788.015 368.093C792.609 368.227 797.095 366.629 801.182 364.524C805.268 362.419 809.068 359.795 813.132 357.646C819.903 354.065 827.603 351.657 832.771 346.004C830.138 356.038 823.919 364.781 822.716 375.085C821.5 385.494 825.737 395.682 829.884 405.307L843.135 436.06C844.598 439.455 846.547 443.272 850.154 444.082C852.402 444.586 854.721 443.743 856.807 442.766C869.003 437.054 878.76 426.315 891.782 422.881C890.812 416.433 885.717 411.102 882.831 405.254C880.397 400.322 879.602 394.768 877.981 389.512C876.359 384.257 873.572 378.931 868.673 376.433C866.346 375.247 863.212 374.215 862.994 371.612C862.979 370.777 863.156 369.949 863.512 369.192C865.257 364.801 867.966 360.858 871.438 357.654C871.886 357.31 872.243 356.862 872.48 356.35C872.609 355.843 872.635 355.315 872.558 354.798C872.312 350.611 874.554 346.694 877.055 343.327C879.557 339.96 882.447 336.755 883.857 332.805C886.281 326.013 883.875 318.549 881.478 311.747C880.509 308.997 879.49 306.163 877.5 304.034C874.379 300.694 869.518 299.732 864.975 299.234C850.284 297.623 833.045 293.772 821.372 302.835Z" fill="#2F2E41"/>
<g opacity="0.1">
<path d="M819.842 304.866C820.336 304.765 820.794 304.534 821.168 304.196C821.543 303.858 821.82 303.426 821.97 302.945C822.008 302.757 822.02 302.564 822.004 302.372C821.793 302.525 821.579 302.674 821.371 302.835C820.696 303.37 820.17 304.069 819.842 304.866Z" fill="black"/>
</g>
<path d="M844.585 196.385C844.761 199.741 843.748 203.331 841.168 205.484C840.341 206.175 839.38 206.698 838.584 207.425C837.877 208.151 837.336 209.024 837 209.98C836.663 210.937 836.539 211.956 836.637 212.965C836.734 213.975 837.05 214.951 837.562 215.826C838.075 216.701 838.772 217.454 839.605 218.032C842.284 219.667 845.689 219.226 848.781 218.689C852.903 218.113 856.945 217.058 860.823 215.547C864.724 214.015 868.044 211.295 870.315 207.773C866.949 205.896 865.116 201.954 864.912 198.106C864.707 194.252 865.763 189.879 863.323 186.89C860.973 184.011 856.55 184.032 852.968 185.02C851.17 185.516 849.429 186.202 847.628 186.688C846.716 186.934 843.702 186.94 843.106 187.612C842.022 188.834 844.484 194.444 844.585 196.385Z" fill="#FBBEBE"/>
<path opacity="0.1" d="M844.585 196.385C844.761 199.741 843.748 203.331 841.168 205.484C840.341 206.175 839.38 206.698 838.584 207.425C837.877 208.151 837.336 209.024 837 209.98C836.663 210.937 836.539 211.956 836.637 212.965C836.734 213.975 837.05 214.951 837.562 215.826C838.075 216.701 838.772 217.454 839.605 218.032C842.284 219.667 845.689 219.226 848.781 218.689C852.903 218.113 856.945 217.058 860.823 215.547C864.724 214.015 868.044 211.295 870.315 207.773C866.949 205.896 865.116 201.954 864.912 198.106C864.707 194.252 865.763 189.879 863.323 186.89C860.973 184.011 856.55 184.032 852.968 185.02C851.17 185.516 849.429 186.202 847.628 186.688C846.716 186.934 843.702 186.94 843.106 187.612C842.022 188.834 844.484 194.444 844.585 196.385Z" fill="black"/>
<path d="M854.912 196.179C865.924 196.179 874.85 187.252 874.85 176.24C874.85 165.228 865.924 156.301 854.912 156.301C843.9 156.301 834.973 165.228 834.973 176.24C834.973 187.252 843.9 196.179 854.912 196.179Z" fill="#FBBEBE"/>
<path d="M791.951 329.213C791.593 330.788 790.957 332.287 790.074 333.64C787.749 337.771 786.909 342.573 787.694 347.247C788.115 349.565 789.099 351.744 790.561 353.591C792.023 355.439 793.916 356.898 796.075 357.841C797.942 358.576 800.254 358.77 801.793 357.484C799.129 354.018 798.988 349.288 799.147 344.92C799.101 344.104 799.296 343.293 799.706 342.588C799.816 342.42 799.958 342.276 800.126 342.165C800.293 342.054 800.481 341.979 800.678 341.944C800.875 341.909 801.078 341.915 801.273 341.961C801.468 342.008 801.651 342.094 801.812 342.214C801.744 344.964 802.276 347.696 803.369 350.22C803.791 351.191 804.512 352.263 805.57 352.236C807.088 352.196 807.498 350.14 807.441 348.622C807.206 342.438 806.903 335.997 803.922 330.574C802.831 328.589 801.376 326.725 800.961 324.498C800.942 323.726 800.675 322.981 800.199 322.372C799.871 322.114 799.487 321.935 799.078 321.849C797.361 321.364 793.298 319.854 791.882 321.462C790.363 323.186 792.226 327.152 791.951 329.213Z" fill="#FBBEBE"/>
<path d="M821.563 223.275C819.276 223.018 817.471 225.111 816.218 227.041C811.551 234.238 808.191 242.203 806.295 250.568C805.329 254.838 804.722 259.273 802.695 263.153C802.207 263.959 801.814 264.818 801.523 265.714C801.35 267.082 801.289 268.462 801.341 269.84C801.129 272.332 799.658 274.545 799.163 276.996C798.869 278.457 798.928 279.969 798.666 281.436C798.207 284.005 796.795 286.291 795.892 288.739C794.302 293.051 794.316 297.784 793.146 302.228C793.003 302.96 792.686 303.648 792.222 304.233C791.429 305.104 790.161 305.317 789.123 305.875C788.306 306.375 787.606 307.043 787.069 307.836C786.532 308.629 786.171 309.527 786.01 310.471C785.7 312.358 785.665 314.28 785.904 316.178L786.82 327.972C787.765 327.576 788.382 326.507 789.169 325.852C790.611 324.653 792.728 324.922 794.573 325.256L797.26 325.744C800.009 326.242 802.998 326.877 804.761 329.043C806.162 326.852 805.362 323.623 807.515 322.165C808.216 321.691 809.083 321.53 809.821 321.118C810.517 320.668 811.093 320.057 811.502 319.336C811.91 318.616 812.139 317.808 812.168 316.98C812.21 315.326 811.982 313.676 811.493 312.095C814.945 310.637 817.086 307.142 818.436 303.647C819.922 299.417 820.997 295.053 821.647 290.617C824.765 273.09 827.615 255.437 827.898 237.637C828.095 234.66 827.767 231.671 826.928 228.807C825.945 225.997 824.521 223.608 821.563 223.275Z" fill="#D0CDE1"/>
<path d="M871.83 204.187C868.539 207.638 864.332 210.081 859.703 211.23C855.098 212.362 850.396 213.055 845.661 213.298C844.204 213.542 842.71 213.413 841.317 212.923C839.979 212.317 838.961 210.731 839.506 209.366C839.77 208.944 839.948 208.474 840.03 207.983C840.007 206.768 838.22 206.668 837.059 207.027C829.384 209.401 822.023 214.102 818.48 221.313C816.479 225.386 815.819 229.967 815.185 234.461C813.516 246.28 811.852 258.357 814.088 270.082C815.281 276.335 817.575 282.429 817.718 288.793C817.799 292.359 817.197 295.911 817.225 299.478C817.119 300.727 817.453 301.974 818.17 303.003C818.722 303.644 819.555 304.049 819.94 304.802C820.584 306.062 819.724 307.793 820.571 308.926C821.615 310.321 823.796 309.319 825.234 308.335C832.469 303.422 841.208 301.222 849.907 302.124C860.357 303.245 870.741 308.815 880.875 306.031C880.354 305.271 879.903 304.463 879.53 303.619C874.477 287.013 874.819 268.45 882.382 252.826C884.966 247.489 888.395 242.402 889.385 236.555C889.784 233.82 889.815 231.044 889.478 228.301C888.946 222.993 887.682 217.641 884.797 213.154C881.912 208.666 877.139 204.712 871.83 204.187Z" fill="#D0CDE1"/>
<path d="M823.592 334.345C822.78 336.513 822.39 338.817 822.444 341.131C822.369 343.345 822.479 345.562 822.774 347.758C822.943 349.634 823.612 351.432 824.711 352.963C825.273 353.716 826.046 354.286 826.932 354.601C827.818 354.915 828.777 354.961 829.688 354.732C830.406 354.434 831.048 353.98 831.567 353.402C832.087 352.824 832.471 352.138 832.691 351.393C833.12 349.904 833.436 348.384 833.634 346.846C834.508 342.321 836.884 338.073 836.926 333.463C836.959 332.917 836.872 332.369 836.672 331.86C835.808 329.965 831.573 327.839 829.503 328.158C826.915 328.557 824.531 332.157 823.592 334.345Z" fill="#FBBEBE"/>
<path opacity="0.1" d="M881.131 221.02C880.737 224.984 884.572 227.972 886.088 231.656C886.708 233.376 887.061 235.181 887.134 237.008C888.199 249.684 887.372 262.434 886.544 275.127C886.393 279.353 885.869 283.557 884.978 287.691C882.838 296.365 877.573 303.884 872.414 311.178C870.641 314.103 867.929 316.34 864.72 317.523L847.017 326.099C844.799 327.079 842.691 328.291 840.728 329.716C838.451 331.501 836.66 333.832 835.523 336.493C832.088 334.738 828.522 333.162 825.087 331.407C824.283 330.997 823.384 330.46 823.246 329.568C823.059 328.372 824.31 327.526 825.171 326.674C826.782 325.081 827.279 322.719 828.151 320.627C831 313.794 838.166 309.421 840.751 302.484C841.744 299.818 842.048 296.806 843.809 294.572C844.817 293.452 845.95 292.451 847.187 291.591C849.916 289.274 852.423 286.708 854.675 283.925C855.687 282.875 856.515 281.663 857.124 280.339C857.898 278.37 857.666 276.175 857.707 274.06C857.838 267.136 860.969 260.679 862.885 254.024C864.69 247.758 865.444 241.184 867.811 235.107C870.179 229.031 874.818 222.654 881.131 221.02Z" fill="black"/>
<path d="M883.432 221.02C883.037 224.984 886.872 227.972 888.388 231.656C889.008 233.376 889.361 235.181 889.435 237.008C890.5 249.684 889.672 262.434 888.845 275.127C888.694 279.353 888.17 283.557 887.278 287.691C885.138 296.365 879.873 303.884 874.714 311.178C872.941 314.103 870.229 316.34 867.021 317.523L849.317 326.099C847.099 327.079 844.991 328.291 843.029 329.716C840.751 331.501 838.96 333.832 837.823 336.493C834.388 334.738 830.822 333.162 827.388 331.407C826.584 330.997 825.685 330.46 825.546 329.568C825.36 328.372 826.611 327.526 827.472 326.674C829.082 325.081 829.579 322.719 830.451 320.627C833.3 313.794 840.466 309.421 843.051 302.484C844.044 299.818 844.348 296.806 846.109 294.572C847.117 293.452 848.251 292.451 849.487 291.591C852.217 289.274 854.724 286.708 856.975 283.925C857.987 282.875 858.815 281.663 859.425 280.339C860.198 278.37 859.967 276.175 860.007 274.06C860.139 267.136 863.269 260.679 865.186 254.024C866.991 247.758 867.744 241.184 870.112 235.107C872.479 229.031 877.118 222.654 883.432 221.02Z" fill="#D0CDE1"/>
<path d="M864.8 145.416C858.656 144.665 852.436 145.953 847.096 149.081C847.883 149.111 848.674 149.165 849.469 149.261C855.369 149.973 860.897 152.52 865.272 156.543C869.647 160.566 872.648 165.861 873.852 171.681C875.056 177.5 874.402 183.551 871.982 188.98C869.562 194.408 865.499 198.939 860.366 201.934C867.68 202.201 874.814 199.631 880.278 194.761C885.741 189.891 889.112 183.098 889.684 175.801C890.256 168.505 887.987 161.269 883.35 155.607C878.712 149.944 872.066 146.293 864.8 145.416Z" fill="#2F2E41"/>
<path d="M873.528 161.19C874.217 162.75 874.592 164.431 874.63 166.137C874.669 167.842 874.37 169.538 873.752 171.128C873.618 170.717 873.463 170.313 873.287 169.918C869.78 162.114 858.976 158.884 849.156 162.703C843.371 164.953 839.22 169.148 837.501 173.811C835 166.267 840.079 157.599 849.397 153.975C859.217 150.156 870.021 153.386 873.528 161.19Z" fill="#2F2E41"/>
<g opacity="0.1">
<path d="M873.583 170.509C873.129 165.032 871.097 159.804 867.731 155.459C864.366 151.114 859.812 147.839 854.622 146.03C851.98 146.681 849.445 147.708 847.096 149.081C847.883 149.111 848.674 149.164 849.469 149.261C855.165 149.949 860.519 152.349 864.824 156.142C869.129 159.935 872.183 164.944 873.583 170.509Z" fill="black"/>
<path d="M878.184 149.804C877.731 144.326 875.698 139.099 872.332 134.754C868.967 130.409 864.413 127.134 859.223 125.325C856.581 125.976 854.046 127.003 851.697 128.376C852.484 128.406 853.275 128.459 854.07 128.555C859.767 129.244 865.12 131.644 869.425 135.437C873.73 139.23 876.784 144.239 878.184 149.804Z" fill="black"/>
<path d="M878.302 118.877C878.028 115.571 876.801 112.416 874.77 109.794C872.739 107.172 869.99 105.195 866.858 104.104C865.264 104.497 863.734 105.117 862.316 105.945C862.791 105.963 863.268 105.995 863.749 106.053C867.186 106.469 870.417 107.917 873.015 110.206C875.613 112.496 877.457 115.519 878.302 118.877Z" fill="black"/>
<path d="M888.914 166.665C889.465 173.469 887.547 180.244 883.51 185.75C879.474 191.255 873.589 195.122 866.933 196.642C865.018 198.721 862.805 200.505 860.366 201.934C864.765 202.095 869.141 201.23 873.148 199.407C877.155 197.585 880.683 194.854 883.453 191.433C886.222 188.011 888.157 183.992 889.105 179.693C890.053 175.394 889.987 170.934 888.914 166.665Z" fill="black"/>
</g>
<path d="M800.656 348.469L796.987 237.541" stroke="#6C63FF" stroke-width="2" stroke-miterlimit="10"/>
<path d="M796.987 253.236C805.655 253.236 812.682 246.209 812.682 237.541C812.682 228.873 805.655 221.846 796.987 221.846C788.319 221.846 781.292 228.873 781.292 237.541C781.292 246.209 788.319 253.236 796.987 253.236Z" fill="#2E4C22"/>
<path d="M799.248 305.908C799.248 305.908 795.413 257.784 749.658 264.906Z" fill="#2E4C22"/>
</g>
<defs>
<linearGradient id="paint0_linear_73_452" x1="868.66" y1="194.269" x2="868.66" y2="182.11" gradientUnits="userSpaceOnUse">
<stop stop-color="#808080" stop-opacity="0.25"/>
<stop offset="0.53514" stop-color="#808080" stop-opacity="0.12"/>
<stop offset="1" stop-color="#808080" stop-opacity="0.1"/>
</linearGradient>
<clipPath id="clip0_73_452">
<rect width="930.259" height="652" fill="white" transform="translate(40 40)"/>
</clipPath>
</defs>
</svg>
