<svg width="745" height="300" viewBox="0 0 745 300" fill="none" xmlns="http://www.w3.org/2000/svg">
<path d="M571.493 237.419C587.513 232.703 609.161 236.902 607.151 209.765C606.057 195.086 608.314 188.359 615.51 184.538C632.378 175.559 662.608 164.773 662.608 134.818C655.879 134.531 649.386 132.251 643.956 128.266C669.099 134.985 680.471 129.381 701.996 113.221C700.113 112.69 698.495 111.477 697.458 109.818C702.397 102.547 706.112 94.5157 708.456 86.044C710.983 87.4252 712.882 86.8998 714.147 80.229C717.598 75.6995 720.794 71.1661 723.632 66.6446C725.885 60.8812 724.269 58.6563 722.116 56.9369C722.812 52.28 725.718 52.5586 728.938 53.5457C727.043 47.5993 722.968 47.7346 717.941 50.6322C717.621 49.8844 717.48 49.0725 717.528 48.2608C717.575 47.449 717.811 46.6594 718.216 45.9541C718.62 45.2488 719.183 44.6471 719.86 44.1963C720.537 43.7456 721.309 43.458 722.116 43.3564C717.005 39.9971 713.196 42.7235 709.976 48.2082C708.034 45.6184 708.919 43.03 712.631 40.4429C707.271 39.9812 704.109 42.7302 703.146 48.6898C698.37 47.2092 696.921 58.4414 695.934 71.4925C696.01 76.8018 694.562 82.0217 691.763 86.5336C687.846 92.3288 684.746 93.698 682.875 93.7418L690.147 97.0931C685.528 100.31 680.407 102.739 674.994 104.281C669.829 105.53 664.438 105.513 659.28 104.234C661.781 108.181 665.206 111.46 669.259 113.786C666.084 113.512 663.012 112.534 660.263 110.923C657.515 109.311 655.16 107.108 653.37 104.472C650.178 99.4813 646.344 94.9315 641.966 90.9397C651.033 98.0285 665.637 103.41 675.002 99.728L681.179 97.5708C673.458 94.6015 663.623 84.5833 659.045 81.4549C655.582 78.5352 651.392 76.6095 646.922 75.8826C643.315 75.8368 639.801 74.7293 636.82 72.6984C635.185 71.1006 633.915 69.1673 633.099 67.0318C632.283 64.8962 631.939 62.6091 632.092 60.3279C632.096 56.9561 633.197 53.6773 635.23 50.9873C637.263 48.2973 640.117 46.3424 643.36 45.4182C640.915 46.8751 638.915 48.9727 637.576 51.4842C636.238 53.9957 635.612 56.8254 635.765 59.6672C635.448 61.5774 635.671 63.5384 636.409 65.3285C637.148 67.1185 638.372 68.6663 639.944 69.7969C645.803 72.5313 648.613 70.7481 656.009 74.39L660.498 77.2359C663.49 79.2977 666.259 81.6654 668.761 84.3008C671.738 79.9225 676.642 76.5831 676.355 72.0019C674.65 72.9149 672.699 73.262 670.783 72.993C668.992 72.6268 664.562 71.4924 662.823 70.9312C662.125 70.7752 661.474 70.4611 660.917 70.0132C660.36 69.5653 659.914 68.9956 659.613 68.3479C659.311 67.7003 659.163 66.9921 659.178 66.2778C659.194 65.5636 659.373 64.8625 659.702 64.2286C661.617 60.1688 666.867 61.128 671.05 61.2553C672.766 61.202 674.47 61.5538 676.025 62.2823C676.24 64.1251 677.088 66.159 677.155 67.8545C679.687 66.8529 682.059 65.4879 684.196 63.8027C684.993 61.4145 685.999 57.5179 686.791 55.1418C685.637 52.788 684.766 50.3055 684.196 47.7465C685.29 49.1892 686.582 50.4702 688.033 51.5516C689.983 49.8983 691.257 47.5869 691.615 45.0559C685.37 40.2393 678.513 36.2722 671.225 33.2586C669.557 32.172 663.085 27.5948 660.287 26.0704C661.444 25.5727 662.464 24.8044 663.262 23.8301C664.059 22.8559 664.611 21.7041 664.87 20.472C665.13 19.2399 665.089 17.9635 664.752 16.7503C664.415 15.5371 663.792 14.4226 662.934 13.5008C658.385 7.92856 649.8 4.08369 644.884 0C644.37 1.34227 644.144 2.77789 644.221 4.21324C644.299 5.64859 644.678 7.05148 645.334 8.33058C640.597 0.680624 625.242 -2.01796 610.785 2.65082C621.417 5.06282 627.618 7.3236 631.932 12.5695C612.031 4.42203 598.407 6.31259 588.596 18.8781C596.973 16.5171 605.906 17.0944 613.91 20.514C609.146 19.9008 604.317 19.996 599.581 20.7966C592.488 22.926 589.233 24.4863 581.149 34.9781C586.901 31.3992 593.705 29.8989 600.429 30.7272C589.81 35.8139 588.166 37.5254 582.848 45.6092C579.194 53.4359 577.612 62.0705 578.255 70.6845C580.548 61.733 590.506 46.449 605.671 46.449C586.53 53.2551 574.86 85.5784 584.238 104.254C583.871 97.1688 589.77 71.0745 607.203 66.8396C595.553 78.2588 588.795 104.604 593.83 122.336L598.582 137.325C599.74 122.117 602.164 111.39 611.777 98.0404C613.409 108.445 620.955 117.078 631.451 123.788C625.568 111.175 629.019 106.367 628.963 94.7568C629.337 95.8107 629.795 96.8328 630.332 97.8135C631.409 100.589 632.091 103.502 632.358 106.467C632.444 110.895 633.022 115.3 634.082 119.601C635.167 123.349 636.624 126.978 638.432 130.435C635.389 130.379 632.405 129.591 629.731 128.139C622.76 124.264 617.174 118.308 613.755 111.103C609.064 118.736 606.067 127.288 604.967 136.179L600.986 142.316C597.658 147.913 593.33 152.85 588.218 156.884C581.79 161.33 574.001 163.065 569.28 168.1C563.704 167.532 558.197 166.414 552.842 164.761C544.997 162.313 534.732 157.632 530.353 149.238C526.083 141.047 527.93 130.177 535.854 116.915C536.77 115.382 537.665 113.874 538.541 112.417C548.34 96.0304 555.333 84.3365 559.636 75.0746L559.755 75.1184C562.835 70.0386 564.578 64.2615 564.822 58.3259C564.971 56.7573 564.971 55.1781 564.822 53.6094C563.974 39.5195 556.193 25.8992 545.212 21.3936C537.315 18.1537 527.476 23.535 522.333 27.7619C515.71 33.2228 511.515 33.4377 502.365 32.5382C504.647 37.3428 508.336 41.3404 512.942 44.001C517.548 46.6616 522.854 47.8595 528.156 47.4361C533.04 47.2291 538.855 44.5305 546.039 43.1812C546.789 43.0354 547.559 43.0354 548.308 43.1812C550.16 44.9443 551.774 46.9421 553.108 49.1237C553.651 50.0491 554.09 51.0315 554.418 52.0531C554.728 53.6633 554.917 55.2944 554.983 56.9328C554.936 57.7623 554.837 58.5879 554.685 59.4046C552.945 68.9571 544.336 83.4012 530.007 107.31L527.317 111.812C517.513 128.226 515.567 142.36 521.537 153.811C530.672 171.324 555.576 176.307 565.14 177.601C564.887 180.398 564.989 183.216 565.443 185.987C566.518 193.199 566.772 200.574 567.716 207.814C568.281 212.137 564.683 212.937 560.512 214.605C548.01 219.624 545.14 231.568 543.44 243.716C545.474 241.63 550.207 234.876 550.653 239.338C553.18 265.348 564.846 261.539 563.218 280.334C564.145 292.044 589.312 293.341 592.377 300C593.345 298.229 593.721 296.194 593.448 294.194C593.175 292.194 592.268 290.334 590.861 288.887C592.759 287.092 596.556 288.995 598.451 293.695C600.54 286.81 598.252 282.885 595.724 281.914C598.113 280.557 601.981 281.974 605.277 285.93C605.874 280.234 604.162 275.49 598.761 275.689C602.304 273.961 600.019 267.728 595.721 267.203C594.268 266.228 589.105 269.094 584.771 266.503C573.634 259.872 559.262 241.017 571.493 237.419ZM662.464 35.9452C667.241 38.6558 670.182 39.9692 670.182 39.9692C667.813 39.808 665.471 39.3671 663.205 38.6558C662.556 39.54 661.62 40.1709 660.556 40.4403C659.493 40.7098 658.369 40.6009 657.378 40.1324C656.678 39.7652 656.111 39.1871 655.757 38.48C655.404 37.7729 655.281 36.9725 655.408 36.192C655.37 35.7525 655.239 35.3262 655.022 34.9417C654.806 34.5572 654.51 34.2235 654.154 33.9631C657.068 33.6651 659.998 34.3638 662.464 35.9452Z" fill="secondary"/>
<path d="M217.892 215.389C217.12 215.543 216.37 215.793 215.659 216.133C206.375 219.59 196.546 221.353 186.64 221.339C176.518 221.339 156.725 219.703 125.317 203.623L95.4016 188.296C103.352 182.834 109.861 175.528 114.371 167.002C118.882 158.476 121.259 148.985 121.301 139.339C121.301 104.512 96.5916 82.9316 61.0205 82.9316C17.4095 82.9316 0 116.27 0 140.529C0 167.32 16.9676 199.619 60.5787 199.619C68.5233 199.582 76.4107 198.274 83.9425 195.747L107.31 209.442C131.868 223.875 147.797 229.682 170.269 229.682C186.635 229.565 202.763 225.756 217.45 218.537C218.493 218.091 219.234 217.65 219.234 216.758C219.238 216.579 219.207 216.401 219.142 216.235C219.077 216.069 218.978 215.917 218.853 215.789C218.728 215.661 218.579 215.56 218.413 215.491C218.248 215.423 218.071 215.388 217.892 215.389ZM66.0794 192.184C42.1146 192.184 20.705 172.534 20.705 137.114C20.705 102.582 38.1184 90.0801 57.6174 90.0801C78.1513 90.0801 100.484 107.346 100.484 143.367C100.46 186.962 77.9881 192.184 66.0794 192.184Z" fill="secondary"/>
<path d="M229.335 103.014C229.335 102.119 228.439 101.82 226.656 101.82C221.593 101.82 212.813 102.119 211.324 102.119C211.177 102.119 202.397 101.82 195.698 101.82C193.911 101.82 193.019 102.119 193.019 103.014C193.019 103.91 193.764 104.352 195.252 104.352C196.856 104.33 198.457 104.48 200.029 104.797C204.196 105.992 205.239 107.329 205.537 111.643C205.685 115.663 205.832 119.238 205.832 138.438V154.359C205.832 167.303 205.537 178.316 198.241 185.166C193.485 189.603 187.184 192.007 180.681 191.864C174.749 192.176 168.898 190.383 164.159 186.802C157.759 181.743 154.189 174.594 154.189 156.154V138.438C154.189 119.238 154.189 115.663 154.483 111.643C154.782 107.178 155.824 105.394 159.259 104.797C160.531 104.511 161.829 104.362 163.132 104.352C164.469 104.352 165.214 103.906 165.214 103.014C165.214 102.123 164.322 101.82 162.388 101.82C157.612 101.82 148.855 102.119 145.567 102.119C141.699 102.119 132.914 101.82 125.921 101.82C123.987 101.82 123.095 102.119 123.095 103.014C123.095 103.91 123.84 104.352 125.328 104.352C127.024 104.318 128.719 104.468 130.383 104.797C134.55 105.992 135.744 107.186 136.039 111.643C136.337 115.663 136.186 119.238 136.186 138.438V157.042C136.186 175.351 141.396 184.724 148.091 190.527C157.62 198.862 171.176 199.16 178.01 199.16C188.04 199.641 197.896 196.409 205.692 190.081C216.706 181.002 218.194 166.12 218.194 151.979V138.446C218.194 119.246 218.342 115.671 218.493 111.651C218.791 107.186 219.687 105.402 223.269 104.805C224.539 104.519 225.836 104.37 227.138 104.36C228.602 104.354 229.335 103.906 229.335 103.014Z" fill="secondary"/>
<path d="M202.222 11.7148C203.484 11.6905 204.747 11.7878 205.991 12.0054C209.175 12.682 209.971 14.2303 210.154 17.5219C210.349 20.6185 210.349 23.329 210.349 38.0319V55.0592C210.349 63.955 210.349 71.6009 209.868 75.6608C209.47 78.4668 208.996 80.6002 207.081 80.9863C205.939 81.2453 204.771 81.3787 203.599 81.3843C202.437 81.3843 202.05 81.6748 202.05 82.1803C202.05 82.8609 202.731 83.1475 203.985 83.1475C207.858 83.1475 213.935 82.857 215.786 82.857C217.239 82.857 224.399 83.1475 230.011 83.1475C231.265 83.1475 231.946 82.857 231.946 82.1803C231.946 81.6987 231.548 81.3843 230.784 81.3843C229.198 81.334 227.615 81.2011 226.043 80.9863C223.138 80.5882 222.56 78.4668 222.27 75.6608C221.784 71.6009 221.784 63.955 221.784 54.9637V53.6064C221.784 53.0213 222.075 52.8343 222.58 52.8343L230.995 53.0213C231.318 52.9869 231.645 53.0308 231.947 53.1492C232.25 53.2677 232.52 53.4573 232.734 53.702C233.996 55.1547 238.441 61.734 242.314 67.0516C247.731 74.5025 251.409 79.0479 255.568 81.2729C258.787 82.8147 262.364 83.4504 265.917 83.1117H275.111C276.269 83.1117 276.946 82.9127 276.946 82.1445C276.946 81.6629 276.548 81.3485 275.788 81.3485C274.877 81.3334 273.97 81.2362 273.077 81.0579C268.825 80.154 265.005 77.8362 262.239 74.4826C256.532 68.4844 249.857 59.8793 241.244 49.0372C251.019 41.1086 254.012 34.5254 254.012 27.369C254.003 24.8039 253.406 22.2751 252.266 19.9773C251.126 17.6795 249.474 15.6739 247.437 14.1149C242.058 10.9669 235.854 9.51712 229.637 9.95556C226.636 9.95556 219.289 10.2461 215.997 10.2461C213.967 10.2461 207.874 9.95556 202.743 9.95556C201.29 9.95556 200.618 10.1466 200.618 10.8272C200.618 11.5078 201.155 11.7148 202.222 11.7148ZM221.76 16.2641C221.76 15.4681 221.955 15.1019 222.632 14.9069C224.319 14.5676 226.04 14.434 227.759 14.5089C233.462 14.5089 242.561 18.4891 242.561 32.2128C242.833 34.9113 242.457 37.6357 241.464 40.1596C240.471 42.6836 238.89 44.9342 236.853 46.7247C234.854 48.1181 232.402 48.7053 229.988 48.3685C227.503 48.4064 225.026 48.0805 222.636 47.4013C221.959 47.1107 221.764 46.7247 221.764 45.6619L221.76 16.2641Z" fill="secondary"/>
<path d="M457.27 22.5578C458.207 22.5389 459.143 22.6365 460.056 22.8484C462.763 23.6444 463.539 24.4922 463.734 27.2943C463.83 29.9093 463.83 32.2298 463.83 44.7117V59.2235C463.83 66.7859 463.83 73.2457 463.432 76.7364C463.137 79.1523 462.636 80.7166 460.912 81.0907C459.929 81.3086 458.922 81.4061 457.915 81.3813C456.852 81.3813 456.562 81.8629 456.562 82.2529C456.562 82.834 457.143 83.1246 458.21 83.1246C459.949 83.1246 462.074 83.0291 464.108 82.9256C466.138 82.9256 467.977 82.8341 468.948 82.8341C472.427 82.8341 476.005 82.9256 480.264 83.0291C484.519 83.2162 489.45 83.3196 495.548 83.3196C499.998 83.3196 500.384 82.9216 500.969 81.0907C501.628 77.9682 502.048 74.8001 502.227 71.6139C502.227 70.6467 502.028 69.775 501.431 69.775C500.754 69.775 500.563 70.2606 500.463 71.0327C500.225 72.841 499.487 74.5472 498.334 75.9603C496.205 78.1931 492.921 78.2847 488.384 78.2847C481.804 78.2847 478.521 77.7991 477.064 76.5413C475.229 74.993 475.229 69.775 475.229 59.2274V44.7156C475.229 32.2337 475.229 29.9133 475.424 27.2983C475.619 24.3967 476.292 23.2385 478.608 22.8524C479.693 22.6594 480.793 22.5622 481.896 22.5618C482.962 22.5618 483.448 22.2712 483.448 21.6901C483.448 21.109 482.871 20.918 481.613 20.918C478.322 20.918 471.36 21.113 469.322 21.113C467.002 21.113 461.585 20.918 457.621 20.918C456.359 20.918 455.786 21.113 455.786 21.6901C455.786 22.2673 456.307 22.5578 457.27 22.5578Z" fill="secondary"/>
<path d="M252.047 237.749L249.34 235.719C241.312 229.625 239.087 226.238 239.087 221.788C239.087 215.985 243.438 211.838 250.598 211.838C252.61 211.699 254.626 212.059 256.465 212.887C258.305 213.715 259.911 214.984 261.142 216.582C262.597 218.407 263.473 220.624 263.657 222.951C263.657 224.113 263.948 224.694 264.628 224.694C265.4 224.694 265.691 223.898 265.691 221.788C265.691 214.226 266.089 211.44 266.089 210.182C266.089 209.506 265.607 209.215 264.736 209.02C260.543 207.879 256.212 207.326 251.868 207.376C238.423 207.376 229.523 215.018 229.523 225.661C229.523 233.498 233.201 240.273 243.852 248.591L248.301 252.074C256.334 258.359 257.782 262.82 257.782 267.553C257.692 269.142 257.281 270.695 256.573 272.12C255.864 273.545 254.874 274.811 253.662 275.842C252.45 276.873 251.041 277.647 249.521 278.117C248.001 278.588 246.401 278.744 244.819 278.578C241.738 278.805 238.673 277.955 236.15 276.172C233.626 274.39 231.8 271.786 230.984 268.807C230.492 267.204 230.199 265.546 230.112 263.871C230.112 263.075 230.016 262.227 229.145 262.227C228.373 262.227 228.082 263.294 227.986 264.743C227.887 266.291 227.501 272.098 227.501 277.42C227.501 279.549 227.791 280.027 229.34 280.707C233.81 282.557 238.628 283.416 243.462 283.227C248.867 283.417 254.211 282.035 258.845 279.247C261.679 277.459 264.005 274.971 265.598 272.022C267.191 269.074 267.998 265.765 267.94 262.414C267.912 253.228 263.749 246.557 252.047 237.749Z" fill="secondary"/>
<path d="M388.393 81.2747C387.621 81.2747 386.65 81.3702 385.874 81.3702C385.751 81.3526 385.626 81.3622 385.507 81.3984C385.388 81.4346 385.279 81.4966 385.187 81.5798C385.095 81.663 385.023 81.7655 384.975 81.88C384.927 81.9944 384.905 82.118 384.91 82.2419C384.91 82.9146 385.392 83.1136 386.455 83.1136C390.905 83.1136 395.45 82.823 396.322 82.823C399.028 82.823 402.996 83.1136 405.803 83.1136C406.674 83.1136 407.156 82.9146 407.156 82.2419C407.156 81.7603 406.965 81.3702 405.902 81.3702H404.644C402.029 81.3702 401.261 80.4986 401.261 79.0498C401.38 77.3121 401.804 75.609 402.515 74.0188L407.06 62.9897C407.255 62.5081 407.351 62.4086 407.856 62.4086H427.881C428.072 62.3836 428.265 62.4286 428.426 62.5355C428.586 62.6424 428.702 62.8037 428.752 62.9897L435.328 79.5354C435.417 79.704 435.468 79.8903 435.476 80.0809C435.484 80.2715 435.451 80.4616 435.377 80.6375C435.303 80.8134 435.191 80.9707 435.049 81.0981C434.907 81.2255 434.738 81.3198 434.556 81.3742C433.684 81.4698 433.493 81.7722 433.493 82.2459C433.493 82.831 434.46 82.831 436.008 82.9186C443.173 83.1176 449.354 83.1176 452.355 83.1176C455.539 83.1176 456.029 82.9185 456.029 82.2459C456.029 81.6687 455.631 81.3742 454.87 81.3742C453.803 81.3611 452.738 81.264 451.686 81.0837C450.138 80.7931 447.706 79.7304 444.43 72.2835C439.009 59.8015 424.788 26.1131 422.754 21.5876C421.883 19.7527 421.501 18.9766 420.239 18.9766C419.371 18.9766 418.694 19.9438 417.723 22.2642L395.474 74.0069C393.711 78.1821 392.258 80.6976 388.393 81.2747ZM409.289 57.286L417.508 36.4855C417.604 36.1989 417.699 35.7133 417.994 35.7133C418.185 35.7133 418.284 36.1989 418.392 36.4855L426.42 57.3816C426.519 57.6721 426.42 57.8632 426.022 57.8632H409.572C409.289 57.8632 409.094 57.6721 409.289 57.286Z" fill="secondary"/>
<path d="M333.437 22.554C334.696 22.6365 335.921 23.001 337.02 23.6207C339.255 25.1331 341.137 27.1114 342.536 29.4198C345.533 33.7981 357.144 51.8642 357.725 53.1259C359.142 55.7657 359.811 58.7427 359.659 61.7351V68.5015C359.659 69.8587 359.659 73.2379 359.368 76.7245C359.173 79.1405 358.493 80.7048 356.754 81.0789C355.768 81.2915 354.761 81.389 353.752 81.3695C352.785 81.3695 352.399 81.8511 352.399 82.2411C352.399 82.9138 353.076 83.1128 354.238 83.1128C357.422 83.1128 363.142 82.8222 365.267 82.8222C367.588 82.8222 373.291 83.1128 378.613 83.1128C379.775 83.1128 380.456 82.8222 380.456 82.2411C380.456 81.8431 379.974 81.3695 379.003 81.3695C377.578 81.3662 376.156 81.2691 374.744 81.0789C372.232 80.6809 371.456 79.1445 371.265 76.7245C371.07 73.2379 371.07 69.8587 371.07 68.5015V61.9261C370.82 59.1388 371.184 56.3305 372.137 53.6991C377.153 44.6259 382.675 35.8423 388.679 27.39C389.797 25.7323 391.331 24.398 393.129 23.5212C394.286 22.9759 395.534 22.648 396.81 22.554C397.777 22.554 398.454 22.156 398.454 21.5828C398.454 21.1052 397.877 20.9102 396.91 20.9102C395.262 20.9102 389.654 21.1052 387.811 21.1052C385.295 21.1052 382.298 20.9102 379.496 20.9102C378.525 20.9102 378.044 21.1052 378.044 21.6823C378.044 22.359 378.84 22.4545 379.592 22.6495C381.037 22.944 381.427 23.7122 381.427 24.4884C381.318 26.0108 380.89 27.4933 380.169 28.8387C378.915 31.3582 368.559 48.9627 367.496 50.901C366.047 48.5806 354.923 29.3283 353.37 26.8088C352.798 25.9714 352.433 25.0094 352.308 24.0027C352.308 23.3301 352.789 22.9441 353.47 22.749C354.823 22.351 355.4 22.351 355.4 21.6823C355.4 21.1052 354.919 20.9102 354.142 20.9102C350.27 20.9102 346.305 21.1052 344.467 21.1052C341.68 21.1052 335.276 20.9102 333.827 20.9102C332.757 20.9102 332.18 21.1052 332.18 21.6823C332.18 22.2594 332.761 22.554 333.437 22.554Z" fill="secondary"/>
<path d="M302.526 84.1855C324.485 84.1855 338.225 69.387 338.225 50.5209C338.225 31.6547 324.871 19.7539 303.398 19.7539C277.567 19.7539 267.7 37.9434 267.7 51.9697C267.696 66.577 277.758 84.1855 302.526 84.1855ZM300.879 24.1082C314.618 24.1082 325.556 35.3324 325.556 53.5219C325.556 76.9295 312.023 79.7356 306.009 79.7356C289.953 79.7356 280.281 66.382 280.281 49.4542C280.281 29.1233 291.402 24.1082 300.879 24.1082Z" fill="secondary"/>
<path d="M502.087 101.819C495.691 101.819 490.775 102.118 489.287 102.118C486.461 102.118 479.459 101.819 472.613 101.819C470.683 101.819 469.346 101.97 469.346 103.013C469.346 103.758 469.788 104.351 471.427 104.351C473.734 104.237 476.045 104.488 478.273 105.095C481.398 106.289 482.592 108.518 482.739 116.239L484.076 172.496H483.483C481.545 170.713 464.136 152.853 455.2 144.069C436.151 125.466 416.505 105.374 414.869 103.738C412.636 101.505 410.849 99.5664 409.213 99.5664C407.871 99.5664 406.98 101.353 406.98 103.885L405.786 178.9C405.635 189.913 405.193 193.336 401.766 194.228C399.804 194.649 397.802 194.849 395.796 194.825C394.601 194.825 393.71 195.418 393.71 196.162C393.71 197.356 394.904 197.503 396.691 197.503C403.386 197.503 409.639 197.057 410.829 197.057C413.217 197.057 419.315 197.503 427.796 197.503C429.584 197.503 430.774 197.205 430.774 196.162C430.774 195.418 430.029 194.825 428.541 194.825C426.226 194.885 423.916 194.584 421.695 193.933C419.163 193.041 417.527 190.064 417.229 180.241L415.74 128.594H416.186C418.717 130.827 432.557 146.155 446.834 159.851C460.526 173.097 476.896 188.727 485.084 196.317C485.754 197.096 486.573 197.734 487.492 198.194C488.41 198.655 489.412 198.929 490.437 199C491.484 199 492.526 197.806 492.526 194.98L494.015 115.201C494.166 108.036 495.209 105.823 498.791 104.784C500.099 104.432 501.454 104.282 502.807 104.339C504.296 104.339 505.04 103.746 505.04 103.001C505.064 101.974 503.878 101.819 502.087 101.819Z" fill="secondary"/>
<path d="M484.733 244.236L481.254 242.302C473.608 238.043 472.259 235.137 472.259 231.464C472.259 225.855 477.775 222.663 483.869 222.663C485.641 222.526 487.421 222.804 489.067 223.475C490.713 224.147 492.18 225.194 493.35 226.532C494.658 228.05 495.44 229.95 495.579 231.949C495.579 232.912 495.869 233.398 496.446 233.398C497.123 233.398 497.513 232.53 497.513 230.783C497.513 224.299 497.8 221.983 497.8 220.92C497.8 220.339 497.401 220.048 496.641 219.853C492.68 218.918 488.62 218.464 484.549 218.5C472.744 218.5 463.056 224.98 463.056 235.042C463.056 242.298 466.348 247.814 476.41 253.713L481.345 256.614C488.908 261.064 489.756 264.643 489.756 268.225C489.733 269.707 489.401 271.169 488.783 272.516C488.164 273.864 487.271 275.067 486.161 276.05C485.051 277.033 483.748 277.774 482.336 278.226C480.924 278.677 479.433 278.83 477.958 278.673C475.128 278.963 472.279 278.328 469.84 276.864C467.4 275.399 465.501 273.184 464.426 270.549C463.969 269.173 463.709 267.739 463.653 266.29C463.653 265.713 463.558 264.937 462.782 264.937C462.105 264.937 461.715 265.809 461.715 267.066C461.619 268.424 461.233 273.546 461.233 277.996C461.233 279.835 461.524 280.225 462.877 280.782C467.305 282.385 472.003 283.108 476.708 282.912C481.681 283.235 486.636 282.056 490.93 279.529C493.573 277.937 495.752 275.677 497.246 272.977C498.739 270.276 499.496 267.23 499.439 264.145C499.439 256.718 495.941 250.421 484.733 244.236Z" fill="secondary"/>
<path d="M733.209 136.878C735.68 132.356 738.669 130.283 744.568 135.115C743.283 128.539 739.832 125.502 733.209 127.632C735.091 121.873 738.872 121.956 743.187 123.652C739.927 118.792 736.297 115.261 730.108 121.009C728.808 115.943 726.053 114.915 721.845 117.924C711.453 130.84 690.831 146.247 676.96 132.651C673.353 133.863 669.61 134.625 665.816 134.92C665.813 143.558 663.425 152.027 658.914 159.394C669.386 171.47 688.694 169.058 704.288 165.507C700.253 163.991 695.842 162.554 697.749 159.78C701.027 157.659 704.033 155.145 706.7 152.293C709.884 153.487 718.422 158.463 719.095 150.538C723.497 151.175 732.52 152.667 732.52 144.365C735.545 140.755 738.24 142.283 740.779 146.124C740.449 140.699 739.386 136.054 733.209 136.878Z" fill="secondary"/>
<path d="M696.719 266.349C696.61 265.252 696.266 264.19 695.711 263.238C695.155 262.285 694.401 261.463 693.5 260.828C692.599 260.192 691.571 259.758 690.487 259.555C689.404 259.352 688.289 259.384 687.218 259.65C688.074 258.161 689.477 257.065 691.129 256.596C692.781 256.126 694.551 256.319 696.062 257.135C695.139 253.29 693.567 250.213 687.385 252.53C687.234 248.613 686.227 244.86 679.529 245.831C675.067 246.48 670.772 248.617 666.271 248.967C659.218 249.552 647.166 236.593 653.335 227.614C665.315 210.16 672.09 198.132 653.665 187.206C643.452 181.149 632.379 182.769 619.523 186.371C617.019 187.3 614.845 188.948 613.273 191.107C611.702 193.267 610.802 195.842 610.687 198.51C609.979 205.038 611.881 214.988 609.867 220.915C616.207 219.278 622.821 218.992 629.278 220.075C629.834 220.081 630.381 220.216 630.877 220.468C631.372 220.72 631.803 221.083 632.135 221.528C632.467 221.974 632.692 222.49 632.793 223.036C632.893 223.583 632.866 224.146 632.714 224.68C631.078 229.154 627.515 232.931 625.35 238.077C622.739 244.287 625.657 249.62 627.48 254.619C626.684 247.455 627.4 242.121 632.554 242.48C639.547 242.965 642.107 251.3 646.143 258.181C651.225 270.413 660.953 272.172 670.366 275.141C672.491 275.96 674.759 276.347 677.035 276.279C679.312 276.21 681.552 275.688 683.624 274.743C686.08 273.243 689.137 275.197 692.464 278.723C692.791 271.952 690.717 268.533 686.243 268.466C686.714 267.555 687.384 266.761 688.203 266.144C689.021 265.526 689.968 265.099 690.974 264.896C691.979 264.693 693.017 264.718 694.011 264.969C695.006 265.221 695.931 265.692 696.719 266.349Z" fill="secondary"/>
<path d="M413.934 219.658C408.808 219.658 402.714 219.853 400.099 219.853C397.679 219.853 392.262 219.658 387.812 219.658C386.554 219.658 385.882 219.853 385.882 220.454C385.882 221.055 386.463 221.326 387.331 221.326C388.467 221.299 389.603 221.397 390.718 221.616C393.428 222.389 394.2 223.256 394.395 226.062C394.491 228.677 394.491 230.998 394.491 243.476V257.988C394.491 265.55 394.491 272.014 394.093 275.5C393.802 277.92 393.321 279.481 391.578 279.855C390.594 280.07 389.587 280.168 388.58 280.145C387.518 280.145 387.227 280.627 387.227 281.013C387.227 281.598 387.808 281.885 388.875 281.885C390.618 281.885 392.744 281.789 394.774 281.69C396.803 281.69 398.642 281.594 399.609 281.594C401.739 281.594 404.836 281.785 408.219 282.076C411.606 282.271 415.28 282.557 418.376 282.557C434.05 282.557 443.053 276.754 446.914 272.886C449.912 269.875 452.277 266.296 453.872 262.358C455.467 258.42 456.258 254.203 456.2 249.956C456.324 246.113 455.677 242.284 454.298 238.695C452.918 235.106 450.834 231.83 448.168 229.059C438.894 219.658 424.577 219.658 413.934 219.658ZM436.769 272.679C431.493 276.799 424.868 278.799 418.193 278.287C411.514 278.287 408.131 276.547 407.049 274.999C406.347 273.146 406.02 271.172 406.085 269.192C405.99 267.548 405.89 261.259 405.89 252.555V242.206C405.89 235.726 405.89 228.952 405.99 226.146C405.928 225.788 406.003 225.42 406.2 225.115C406.397 224.81 406.701 224.59 407.053 224.498C408.757 224.052 410.518 223.856 412.279 223.917C420.913 223.441 429.41 226.24 436.072 231.754C438.772 234.416 440.876 237.621 442.244 241.156C443.612 244.692 444.214 248.478 444.009 252.264C444.025 260.774 442.281 268.133 436.769 272.679Z" fill="secondary"/>
<path d="M322.047 268.9C321.466 268.9 321.251 269.298 321.08 270.158C320.499 273.545 319.531 275.288 317.406 276.251C314.814 277.078 312.096 277.438 309.378 277.314C300.673 277.314 298.062 276.057 297.867 270.448C297.772 268.028 297.867 261.063 297.867 258.257V251.678C297.867 251.2 297.963 250.806 298.353 250.806C300.482 250.806 310.15 251.001 311.698 251.204C314.883 251.491 315.953 252.748 316.439 254.388C316.63 255.455 316.63 256.518 316.729 257.389C316.729 257.787 316.924 258.066 317.501 258.066C318.274 258.066 318.373 256.904 318.373 256.227C318.373 255.646 318.564 252.358 318.771 250.711C319.253 246.551 319.452 245.194 319.452 244.712C319.473 244.507 319.415 244.302 319.288 244.139C319.161 243.976 318.975 243.87 318.771 243.841C318.373 243.841 318.095 244.326 317.418 244.907C316.622 245.779 315.388 245.97 313.358 246.165C311.42 246.364 300.399 246.364 298.46 246.364C297.979 246.364 297.879 245.966 297.879 245.492V225.194C297.879 224.712 298.074 224.397 298.46 224.397C300.204 224.397 310.357 224.592 311.806 224.795C316.061 225.193 316.737 226.34 317.414 227.793C317.804 228.743 318 229.762 317.991 230.79C317.991 231.466 318.087 231.852 318.668 231.852C319.344 231.852 319.539 230.889 319.635 230.499C319.83 229.536 320.033 225.95 320.121 225.082C320.215 223.294 320.441 221.515 320.797 219.76C320.797 219.362 320.702 218.988 320.216 218.988C319.756 219.089 319.304 219.222 318.863 219.386C317.678 219.613 316.483 219.773 315.281 219.868C313.637 219.967 294.775 219.868 292.064 219.868C289.648 219.868 284.227 219.673 279.777 219.673C278.519 219.673 277.843 219.868 277.843 220.469C277.843 221.07 278.424 221.341 279.296 221.341C280.432 221.314 281.568 221.411 282.683 221.631C285.393 222.403 286.165 223.271 286.36 226.077C286.456 228.692 286.456 231.013 286.456 243.49V258.002C286.456 265.565 286.456 272.028 286.058 275.515C285.767 277.935 285.286 279.495 283.542 279.87C282.558 280.085 281.552 280.183 280.545 280.16C279.479 280.16 279.188 280.642 279.188 281.028C279.188 281.613 279.769 281.899 280.836 281.899C282.575 281.899 284.705 281.804 286.735 281.704C288.768 281.704 290.603 281.609 291.571 281.609C294.086 281.609 297.278 281.704 301.437 281.8C305.601 281.995 310.723 282.09 317.107 282.09C320.292 282.09 321.088 282.09 321.649 279.965C322.285 276.97 322.673 273.929 322.811 270.87C322.823 269.967 322.724 268.9 322.047 268.9Z" fill="secondary"/>
<path d="M302.214 194.553C303.194 189.946 303.792 185.265 304.001 180.559C304.001 179.222 303.854 177.582 302.807 177.582C301.915 177.582 301.613 178.183 301.318 179.52C300.427 184.73 298.93 187.405 295.663 188.897C291.679 190.168 287.501 190.722 283.324 190.533C269.93 190.533 265.91 188.599 265.612 179.966C265.465 176.24 265.612 165.53 265.612 161.207V151.093C265.612 150.349 265.763 149.748 266.356 149.748C269.636 149.748 284.518 150.047 286.898 150.345C291.81 150.791 293.446 152.733 294.19 155.253C294.488 156.889 294.488 158.532 294.636 159.87C294.636 160.463 294.934 160.917 295.83 160.917C297.024 160.917 297.171 159.126 297.171 158.087C297.171 157.191 297.473 152.116 297.764 149.605C298.508 143.201 298.807 141.119 298.807 140.375C298.828 140.218 298.817 140.059 298.775 139.906C298.734 139.754 298.663 139.611 298.566 139.486C298.469 139.361 298.348 139.257 298.21 139.179C298.073 139.102 297.921 139.052 297.764 139.033C297.171 139.033 296.725 139.778 295.682 140.673C294.488 142.011 292.558 142.309 289.429 142.604C286.452 142.906 269.485 142.906 266.511 142.906C265.767 142.906 265.616 142.309 265.616 141.561V110.304C265.616 109.56 265.914 109.11 266.511 109.11C269.19 109.11 284.82 109.409 287.049 109.707C293.601 110.3 294.64 112.095 295.682 114.32C296.284 115.785 296.587 117.354 296.574 118.937C296.574 119.98 296.725 120.573 297.617 120.573C298.66 120.573 298.958 119.085 299.105 118.492C299.404 117.003 299.706 111.494 299.85 110.133C299.996 107.383 300.344 104.648 300.893 101.95C300.893 101.357 300.745 100.756 300.001 100.756C299.293 100.904 298.596 101.102 297.915 101.349C296.093 101.689 294.254 101.938 292.407 102.093C289.879 102.244 260.856 102.093 256.684 102.093C252.963 102.093 244.628 101.795 237.782 101.795C235.844 101.795 234.805 102.093 234.805 102.989C234.805 103.884 235.697 104.326 237.038 104.326C238.786 104.286 240.533 104.436 242.248 104.772C246.415 105.966 247.61 107.303 247.904 111.618C248.051 115.638 248.051 119.212 248.051 138.413V160.737C248.051 172.344 248.051 182.318 247.458 187.675C247.013 191.397 246.264 193.777 243.585 194.374C242.071 194.708 240.522 194.857 238.972 194.82C237.333 194.82 236.887 195.564 236.887 196.157C236.887 197.053 237.782 197.499 239.418 197.499C242.097 197.499 245.389 197.347 248.497 197.2C251.622 197.2 254.467 197.053 255.94 197.053C259.809 197.053 264.72 197.2 271.125 197.351C277.525 197.65 285.414 197.797 295.237 197.797C300.132 197.829 301.322 197.829 302.214 194.553Z" fill="secondary"/>
<path d="M376.065 268.9C375.484 268.9 375.293 269.298 375.098 270.158C374.517 273.545 373.554 275.288 371.424 276.251C368.831 277.078 366.111 277.438 363.392 277.314C354.687 277.314 352.072 276.057 351.881 270.448C351.786 268.028 351.881 261.063 351.881 258.257V251.678C351.881 251.2 351.977 250.806 352.363 250.806C354.492 250.806 364.164 251.001 365.712 251.204C368.897 251.491 369.967 252.748 370.453 254.388C370.644 255.455 370.644 256.518 370.743 257.389C370.743 257.787 370.938 258.066 371.539 258.066C372.312 258.066 372.411 256.904 372.411 256.227C372.411 255.646 372.606 252.358 372.809 250.711C373.291 246.551 373.486 245.194 373.486 244.712C373.507 244.508 373.449 244.303 373.323 244.14C373.197 243.978 373.013 243.87 372.809 243.841C372.411 243.841 372.129 244.326 371.456 244.907C370.66 245.779 369.422 245.97 367.392 246.165C365.458 246.364 354.429 246.364 352.494 246.364C352.009 246.364 351.913 245.966 351.913 245.492V225.194C351.913 224.712 352.104 224.397 352.494 224.397C354.234 224.397 364.395 224.592 365.844 224.795C370.103 225.193 370.779 226.34 371.456 227.793C371.846 228.743 372.044 229.762 372.037 230.79C372.037 231.466 372.132 231.852 372.714 231.852C373.39 231.852 373.585 230.889 373.681 230.499C373.876 229.536 374.079 225.95 374.162 225.082C374.259 223.294 374.486 221.515 374.843 219.76C374.843 219.362 374.747 218.988 374.262 218.988C373.802 219.09 373.35 219.223 372.909 219.386C371.724 219.613 370.528 219.773 369.326 219.868C367.683 219.967 348.82 219.868 346.11 219.868C343.694 219.868 338.273 219.673 333.823 219.673C332.565 219.673 331.889 219.868 331.889 220.469C331.889 221.07 332.466 221.341 333.341 221.341C334.478 221.314 335.613 221.412 336.729 221.631C339.435 222.403 340.211 223.271 340.406 226.077C340.502 228.692 340.502 231.013 340.502 243.49V258.002C340.502 265.565 340.502 272.028 340.104 275.515C339.813 277.935 339.308 279.495 337.588 279.87C336.603 280.085 335.596 280.183 334.587 280.16C333.525 280.16 333.234 280.642 333.234 281.028C333.234 281.613 333.815 281.899 334.878 281.899C336.621 281.899 338.747 281.804 340.78 281.704C342.814 281.704 344.649 281.609 345.616 281.609C348.132 281.609 351.324 281.704 355.483 281.8C359.643 281.995 364.769 282.09 371.157 282.09C374.342 282.09 375.138 282.09 375.703 279.965C376.338 276.97 376.727 273.928 376.865 270.87C376.841 269.967 376.742 268.9 376.065 268.9Z" fill="secondary"/>
<path d="M384.162 177.582C383.27 177.582 382.968 178.183 382.673 179.52C381.782 184.73 380.285 187.405 377.017 188.897C373.034 190.168 368.856 190.722 364.679 190.533C351.285 190.533 347.265 188.599 346.971 179.966C346.82 176.24 346.971 165.53 346.971 161.207V151.093C346.971 150.349 347.118 149.748 347.715 149.748C350.991 149.748 365.873 150.047 368.253 150.345C373.165 150.791 374.8 152.733 375.545 155.253C375.839 156.889 375.839 158.532 375.991 159.87C375.991 160.463 376.289 160.917 377.185 160.917C378.379 160.917 378.522 159.126 378.522 158.087C378.522 157.191 378.824 152.116 379.119 149.605C379.863 143.201 380.162 141.119 380.162 140.375C380.162 139.63 379.716 139.033 379.119 139.033C378.522 139.033 378.076 139.778 377.033 140.673C375.839 142.011 373.913 142.309 370.784 142.604C367.807 142.906 350.84 142.906 347.862 142.906C347.118 142.906 346.971 142.309 346.971 141.561V110.304C346.971 109.56 347.269 109.11 347.862 109.11C350.541 109.11 366.171 109.409 368.4 109.707C374.952 110.3 375.994 112.095 377.033 114.32C377.637 115.784 377.942 117.354 377.929 118.937C377.929 119.98 378.08 120.573 378.972 120.573C380.011 120.573 380.313 119.085 380.46 118.492C380.755 117.003 381.057 111.494 381.205 110.133C381.349 107.384 381.696 104.648 382.243 101.95C382.243 101.357 382.096 100.756 381.356 100.756C380.647 100.903 379.95 101.101 379.27 101.349C377.449 101.689 375.612 101.938 373.766 102.093C371.234 102.244 342.215 102.093 338.043 102.093C334.322 102.093 325.987 101.795 319.141 101.795C317.207 101.795 316.164 102.093 316.164 102.989C316.164 103.884 317.06 104.326 318.397 104.326C320.145 104.286 321.892 104.435 323.607 104.772C327.774 105.966 328.964 107.303 329.263 111.618C329.414 115.638 329.414 119.212 329.414 138.413V160.737C329.414 172.344 329.414 182.318 328.817 187.675C328.371 191.397 327.623 193.777 324.948 194.374C323.434 194.707 321.885 194.857 320.335 194.82C318.699 194.82 318.254 195.564 318.254 196.157C318.254 197.053 319.145 197.499 320.781 197.499C323.46 197.499 326.751 197.347 329.86 197.2C332.984 197.2 335.83 197.053 337.303 197.053C341.172 197.053 346.083 197.2 352.483 197.351C358.884 197.65 366.772 197.797 376.599 197.797C381.507 197.797 382.697 197.797 383.593 194.521C384.573 189.914 385.17 185.233 385.38 180.527C385.356 179.226 385.209 177.582 384.162 177.582Z" fill="secondary"/>
</svg>
